{
.appVersion = "3436";
.storedFileType = com.schriftgestaltung.glyphs;
.formatVersion = 3;
DisplayStrings = (
"̀́̋̂̌
ÓÔ̈OÖÒŐ",
"̊",
"̃",
".,:;…!¡?¿·•*#",
"Alphabet and Numbers with spacing characters:

HHAHHOOAOO
HHBHHOOBOO
HHCHHOOCOO
HHDHHOODOO
HHEHHOOEOO
HHFHHOOFOO
HHGHHOOGOO
HHHHHOOHOO
HHIHHOOIOO
HHJHHOOJOO
HHKHHOOKOO
HHLHHOOLOO
HHMHHOOMOO
HHNHHOONOO
HHOHHOOOOO
HHPHHOOPOO
HHQHHOOQOO
HHRHHOOROO
HHSHHOOSOO
HHTHHOOTOO
HHUHHOOUOO
HHVHHOOVOO
HHWHHOOWOO
HHXHHOOXOO
HHYHHOOYOO
HHZHHOOZOO

nnannooaoo
nnbnnooboo
nncnnoocoo
nndnnoodoo
nnennooeoo
nnfnnoofoo
nngnnoogoo
nnnnhoohoo
nninnooioo
nnjnnoojoo
nnknnookoo
nnlnnooloo
nnmnnoomoo
nnnnnoonoo
nnonnooooo
nnpnnoopoo
nnqnnooqoo
nnrnnooroo
nn snnoosoo
nntnnootoo
nnunnoouoo
nnvnnoovoo
nnwnnoowoo
nnxnnooxoo
nnynnooyoo
nnznnoozoo


H1TLER
1111111111
0000010010111
0001010111111
0002010212111
0003010313111
0004010414111
0005010515111
0006010616111
0007010717111
0008010818111
0009010919111


",
"‚",
"nngnnoogoo "
);
axes = (
{
name = Weight;
tag = wght;
}
);
date = "2025-10-19 19:33:20 +0000";
familyName = Juncture;
fontMaster = (
{
axesValues = (
100
);
iconName = Light_SemiExtended;
id = m004;
metricValues = (
{
pos = 1360;
},
{
over = 24;
pos = 1300;
},
{
over = 24;
pos = 930;
},
{
over = -24;
},
{
over = -24;
pos = -400;
},
{
}
);
name = ExtraLight;
stemValues = (
42,
36
);
userData = {
GSCornerRadius = 15;
GSOffsetHorizontal = -16;
GSOffsetVertical = -16;
"Letterink-NibData" = {
AngleInDegrees = 45;
MainAxisWidth = 30;
MinorAxisWidth = 15;
};
};
},
{
axesValues = (
400
);
id = "1B8EDE0E-D46F-48F9-B9C6-2CD34FEA95FD";
metricValues = (
{
pos = 1360;
},
{
over = 24;
pos = 1300;
},
{
over = 24;
pos = 930;
},
{
over = -24;
},
{
over = -24;
pos = -400;
},
{
}
);
name = Regular;
stemValues = (
89,
76
);
userData = {
GSCornerRadius = 59;
"Letterink-NibData" = {
AngleInDegrees = 45;
MainAxisWidth = 30;
MinorAxisWidth = 15;
};
};
},
{
axesValues = (
500
);
iconName = SemiBold;
id = m002;
metricValues = (
{
pos = 1360;
},
{
over = 24;

glyphs = (
{
glyphname = A;
lastChange = "2025-11-23 21:03:29 +0000";
layers = (
{
anchors = (
{
name = bottom;
pos = (565,0);
},
{
name = ogonek;
pos = (1017,10);
},
{
name = top;
pos = (565,1300);
}
);
layerId = m002;
shapes = (
{
closed = 1;
nodes = (
(809,452,l),
(311,452,l),
(315,270,l),
(813,270,l)
);
},
{
closed = 1;
nodes = (
(229,0,l),
(587,1098,l),
(531,1098,l),
(887,0,l),
(1105,0,l),
(671,1300,l),
(459,1300,l),
(25,0,l)
);
}
);
width = 1130;
},
{
anchors = (
{
name = bottom;
pos = (548,0);
},
{
name = ogonek;
pos = (986,10);
},
{
name = top;
pos = (548,1300);
}
);
background = {
shapes = (
{
closed = 1;
nodes = (
(47,0,l),
(120,200,l),
(408,200,l),
(481,0,l),
(521,0,l),
(285,650,l),
(244,650,l),
(7,0,l)
);
},
{
closed = 1;
nodes = (
(264,594,l),
(397,230,l),
(131,230,l)
);
}
);
};
layerId = m004;
shapes = (
{
closed = 1;
nodes = (
(852,438,l),
(246,438,l),
(246,364,l),
(852,364,l)
);
},
{
closed = 1;
nodes = (
(154,0,l),
(576,1264,l),
(521,1262,l),
(941,0,l),
(1023,0,l),
(589,1300,l),
(507,1300,l),
(73,0,l)
);
}
);
width = 1096;
},
{
anchors = (
{
name = bottom;
pos = (585,0);
},
{
name = ogonek;
pos = (1053,10);
},
{
name = top;
pos = (585,1300);
}
);
layerId = m005;
shapes = (
{
closed = 1;
nodes = (
(859,472,l),
(301,472,l),
(305,246,l),
(863,246,l)
);
},
{
closed = 1;
nodes = (
(273,0,l),
(645,1122,l),
(513,1122,l),
(883,0,l),
(1165,0,l),
(713,1300,l),
(457,1300,l),
(5,0,l)
);
}
);
width = 1170;
},
{
anchors = (
{
name = bottom;
pos = (591,0);
},
{
name = ogonek;
pos = (1064,10);
},
{
name = top;
pos = (591,1300);
}
);
layerId = "1B8EDE0E-D46F-48F9-B9C6-2CD34FEA95FD";
shapes = (
{
closed = 1;
nodes = (
(874,444,l),
(304,444,l),
(306,296,l),
(876,296,l)
);
},
{
closed = 1;
nodes = (
(232,0,l),
(616,1140,l),
(560,1140,l),
(942,0,l),
(1122,0,l),
(678,1300,l),
(504,1300,l),
(60,0,l)
);
}
);
width = 1182;
}
);
metricRight = "=|";
unicode = 65;
},
{
glyphname = AE;
lastChange = "2025-11-21 21:37:24 +0000";
layers = (
{
anchors = (
{
name = bottom;
pos = (704,0);
},
{
name = top;
pos = (704,1300);
}
);
layerId = m004;
shapes = (
{
closed = 1;
nodes = (
(165,0,l),
(365,424,l),
(781,424,l),
(781,0,l),
(1401,0,l),
(1401,72,l),
(865,72,l),
(865,640,l),
(1327,640,l),
(1327,712,l),
(865,712,l),
(865,1228,l),
(1401,1228,l),
(1401,1300,l),
(687,1300,l),
(73,0,l)
);
},
{
closed = 1;
nodes = (
(761,1262,l),
(707,1228,l),
(781,1228,l),
(781,504,l),
(403,504,l)
);
}
);
width = 1441;
},
{
anchors = (
{
name = bottom;
pos = (806,0);
},
{
name = top;
pos = (806,1300);
}
);
layerId = "1B8EDE0E-D46F-48F9-B9C6-2CD34FEA95FD";
shapes = (
{
closed = 1;
nodes = (
(256,0,l),
(436,384,l),
(828,384,l),
(828,0,l),
(1514,0,l),
(1514,148,l),
(1006,148,l),
(1006,600,l),
(1424,600,l),
(1424,752,l),
(1006,752,l),
(1006,1152,l),
(1514,1152,l),
(1514,1300,l),
(688,1300,l),
(60,0,l)
);
},
{
closed = 1;
nodes = (
(830,1224,l),
(716,1152,l),
(828,1152,l),
(828,532,l),
(506,532,l)
);
}
);
width = 1554;
},
{
anchors = (
{
name = bottom;
pos = (769,0);
},
{
name = top;
pos = (769,1300);
}
);
layerId = m002;
shapes = (
{
closed = 1;
nodes = (
(235,0,l),
(387,350,l),
(755,350,l),
(755,0,l),
(1461,0,l),
(1461,180,l),
(963,180,l),
(963,586,l),
(1367,586,l),
(1367,766,l),
(963,766,l),
(963,1120,l),
(1461,1120,l),
(1461,1300,l),
(585,1300,l),
(25,0,l)
);
},
{
closed = 1;
nodes = (
(757,1206,l),
(625,1120,l),
(755,1120,l),
(755,532,l),
(465,532,l)
);
}
);
width = 1501;
},
{
anchors = (
{
name = bottom;
pos = (825,0);
},
{
name = top;
pos = (825,1300);
}
);
layerId = m005;
shapes = (
{
closed = 1;
nodes = (
(299,0,l),
(435,308,l),
(807,308,l),
(807,0,l),
(1573,0,l),
(1573,240,l),
(1075,240,l),
(1075,554,l),
(1479,554,l),
(1479,798,l),
(1075,798,l),
(1075,1060,l),
(1573,1060,l),
(1573,1300,l),
(597,1300,l),
(5,0,l)
);
},
{
closed = 1;
nodes = (
(815,1170,l),
(647,1060,l),
(807,1060,l),
(807,550,l),
(543,550,l)
);
}
);
width = 1613;
}
);
metricLeft = "=A";
metricRight = "=E";
unicode = 198;
},
{
glyphname = B;
lastChange = "2025-11-21 20:58:09 +0000";
layers = (
{
anchors = (
{
name = bottom;
pos = (538,0);
},
{
name = center;
pos = (260,390);
},
{
name = top;
pos = (538,1300);
}
);
layerId = m002;
shapes = (
{
closed = 1;
nodes = (
(596,0,l),
(596,180,l),
(328,180,l),
(328,592,l),
(598,592,l),
(598,764,l),
(328,764,l),
(328,1120,l),
(598,1120,l),
(598,1300,l),
(120,1300,l),
(120,0,l)
);
},
{
closed = 1;
nodes = (
(840,632,o),
(980,744,o),
(980,942,cs),
(980,1150,o),
(878,1300,o),
(598,1300,c),
(598,1120,l),
(748,1120,o),
(772,1016,o),
(772,942,cs),
(772,868,o),
(748,764,o),
(598,764,c),
(598,632,l)
);
},
{
closed = 1;
nodes = (
(878,0,o),
(1020,106,o),
(1020,370,cs),
(1020,598,o),
(822,732,o),
(598,732,c),
(598,592,l),
(760,592,o),
(810,488,o),
(810,378,c),
(810,258,o),
(760,180,o),
(596,180,c),
(596,0,l)
);
}
);
width = 1048;
},
{
anchors = (
{
name = bottom;
pos = (569,0);
},
{
name = center;
pos = (314,390);
},
{
name = top;
pos = (569,1300);
}
);
layerId = m004;
shapes = (
{
closed = 1;
nodes = (
(654,0,l),
(654,74,l),
(284,74,l),
(284,641,l),
(652,641,l),
(652,715,l),
(284,715,l),
(284,1226,l),
(594,1226,l),
(594,1300,l),
(200,1300,l),
(200,0,l)
);
},
{
closed = 1;
nodes = (
(832,647,o),
(952,792,o),
(952,972,c),
(952,1132,o),
(856,1300,o),
(594,1300,c),
(594,1226,l),
(784,1226,o),
(870,1117,o),
(870,971,cs),
(870,825,o),
(778,715,o),
(614,715,c),
(614,647,l)
);
},
{
closed = 1;
nodes = (
(916,0,o),
(1022,140,o),
(1022,354,c),
(1022,588,o),
(850,711,o),
(652,711,c),
(652,641,l),
(872,641,o),
(940,517,o),
(940,353,cs),
(940,189,o),
(872,74,o),
(652,74,c),
(652,0,l)
);
}
);
width = 1142;
},
{
anchors = (
{
name = bottom;
pos = (495,0);
},
{
name = center;
pos = (215,390);
},
{
name = top;
pos = (495,1300);
}
);
layerId = m005;
shapes = (
{
closed = 1;
nodes = (
(501,0,l),
(501,228,l),
(333,228,l),
(333,572,l),
(563,572,l),
(563,776,l),
(333,776,l),
(333,1072,l),
(483,1072,l),
(483,1300,l),
(65,1300,l),
(65,0,l)
);
},
{
closed = 1;
nodes = (
(755,588,o),
(925,690,o),
(925,920,cs),
(925,1114,o),
(773,1300,o),
(483,1300,c),
(483,1072,l),
(611,1072,o),
(657,1006,o),
(657,924,cs),
(657,848,o),
(611,776,o),
(483,776,c),
(483,588,l)
);
},
{
closed = 1;
nodes = (
(817,0,o),
(983,140,o),
(983,400,cs),
(983,692,o),
(681,760,o),
(481,760,c),
(481,572,l),
(643,572,o),
(715,500,o),
(715,400,cs),
(715,300,o),
(643,228,o),
(501,228,c),
(501,0,l)
);
}
);
width = 1011;
},
{
anchors = (
{
name = bottom;
pos = (516,0);
},
{
name = center;
pos = (246,390);
},
{
name = top;
pos = (516,1300);
}
);
layerId = "1B8EDE0E-D46F-48F9-B9C6-2CD34FEA95FD";
shapes = (
{
closed = 1;
nodes = (
(568,0,l),
(568,140,l),
(288,140,l),
(288,588,l),
(590,588,l),
(590,728,l),
(288,728,l),
(288,1156,l),
(552,1156,l),
(552,1300,l),
(110,1300,l),
(110,0,l)
);
},
{
closed = 1;
nodes = (
(826,618,o),
(936,740,o),
(936,942,cs),
(936,1142,o),
(812,1300,o),
(552,1300,c),
(552,1156,l),
(718,1156,o),
(760,1034,o),
(760,946,cs),
(760,856,o),
(704,728,o),
(552,728,c),
(552,618,l)
);
},
{
closed = 1;
nodes = (
(864,0,o),
(998,114,o),
(998,360,cs),
(998,612,o),
(776,722,o),
(568,722,c),
(568,588,l),
(790,588,o),
(834,482,o),
(834,362,cs),
(834,242,o),
(790,140,o),
(568,140,c),
(568,0,l)
);
}
);
width = 1026;
}
);
metricLeft = "=H";
unicode = 66;
},
{
glyphname = C;
lastChange = "2025-11-21 20:58:09 +0000";
layers = (
{
anchors = (
{
name = bottom;
pos = (578,12);
},
{
name = top;
pos = (578,1312);
}
);
background = {
shapes = (
{
closed = 1;
nodes = (
(482,265,l),
(482,105,o),
(399,75,o),
(326,76,cs),
(253,77,o),
(170,105,o),
(170,265,cs),
(170,385,ls),
(170,545,o),
(253,573,o),
(326,574,cs),
(399,575,o),
(482,545,o),
(482,385,c),
(582,385,l),
(582,607,o),
(436,662,o),
(326,662,cs),
(217,662,o),
(70,607,o),
(70,385,cs),
(70,265,ls),
(70,43,o),
(217,-12,o),
(326,-12,cs),
(436,-12,o),
(582,43,o),
(582,265,c)
);
}
);
};
layerId = m002;
shapes = (
{
closed = 1;
nodes = (
(822,-22,o),
(1068,102,o),
(1092,404,c),
(884,404,l),
(864,218,o),
(738,156,o),
(592,158,cs),
(446,160,o),
(288,212,o),
(288,532,cs),
(288,772,ls),
(288,1092,o),
(446,1144,o),
(592,1146,cs),
(738,1148,o),
(854,1082,o),
(886,900,c),
(1094,900,l),
(1060,1202,o),
(812,1326,o),
(592,1326,cs),
(374,1326,o),
(80,1216,o),
(80,772,cs),
(80,532,ls),
(80,88,o),
(374,-22,o),
(592,-22,cs)
);
}
);
width = 1174;
},
{
anchors = (
{
name = bottom;
pos = (591,0);
},
{
name = top;
pos = (591,1300);
}
);
background = {
shapes = (
{
closed = 1;
nodes = (
(436,-12,o),
(573,43,o),
(573,215,c),
(531,215,l),
(531,77,o),
(428,22,o),
(339,23,cs),
(250,24,o),
(147,77,o),
(147,215,c),
(147,425,l),
(147,573,o),
(250,626,o),
(339,627,cs),
(428,628,o),
(531,573,o),
(531,425,c),
(573,425,l),
(573,607,o),
(436,662,o),
(339,662,cs),
(243,662,o),
(105,607,o),
(105,425,c),
(105,215,l),
(105,43,o),
(243,-12,o),
(339,-12,cs)
);
}
);
};
layerId = m004;
shapes = (
{
closed = 1;
nodes = (
(791,-24,o),
(1043,70,o),
(1069,378,c),
(987,378,l),
(965,138,o),
(775,42,o),
(603,44,cs),
(425,46,o),
(219,154,o),
(219,430,c),
(219,850,l),
(219,1146,o),
(425,1254,o),
(603,1256,cs),
(781,1258,o),
(959,1156,o),
(987,900,c),
(1071,900,l),
(1043,1224,o),
(797,1324,o),
(603,1324,cs),
(411,1324,o),
(135,1214,o),
(135,850,c),
(135,430,l),
(135,86,o),
(411,-24,o),
(603,-24,cs)
);
}
);
width = 1206;
},
{
anchors = (
{
name = bottom;
pos = (584,0);
},
{
name = top;
pos = (584,1300);
}
);
background = {
shapes = (
{
closed = 1;
nodes = (
(477,265,l),
(477,105,o),
(394,75,o),
(321,76,cs),
(248,77,o),
(165,105,o),
(165,265,cs),
(165,385,ls),
(165,545,o),
(248,573,o),
(321,574,cs),
(394,575,o),
(477,545,o),
(477,385,c),
(577,385,l),
(577,607,o),
(431,662,o),
(321,662,cs),
(212,662,o),
(65,607,o),
(65,385,cs),
(65,265,ls),
(65,43,o),
(212,-12,o),
(321,-12,cs),
(431,-12,o),
(577,43,o),
(577,265,c)
);
}
);
};
layerId = m005;
shapes = (
{
closed = 1;
nodes = (
(840,-24,o),
(1110,112,o),
(1124,450,c),
(856,450,l),
(844,260,o),
(734,202,o),
(592,204,cs),
(454,206,o),
(318,254,o),
(318,554,cs),
(318,746,ls),
(318,1046,o),
(454,1094,o),
(592,1096,cs),
(732,1098,o),
(834,1036,o),
(860,850,c),
(1126,850,l),
(1102,1188,o),
(830,1324,o),
(592,1324,cs),
(364,1324,o),
(50,1208,o),
(50,746,cs),
(50,554,ls),
(50,92,o),
(364,-24,o),
(592,-24,cs)
);
}
);
width = 1176;
},
{
anchors = (
{
name = bottom;
pos = (578,0);
},
{
name = top;
pos = (578,1300);
}
);
layerId = "1B8EDE0E-D46F-48F9-B9C6-2CD34FEA95FD";
shapes = (
{
closed = 1;
nodes = (
(802,-24,o),
(1048,96,o),
(1072,396,c),
(896,396,l),
(874,198,o),
(734,128,o),
(582,130,cs),
(428,132,o),
(258,198,o),
(258,506,c),
(258,790,l),
(258,1100,o),
(428,1166,o),
(582,1168,cs),
(736,1170,o),
(866,1096,o),
(898,898,c),
(1074,898,l),
(1042,1208,o),
(794,1324,o),
(582,1324,cs),
(370,1324,o),
(80,1214,o),
(80,790,c),
(80,506,l),
(80,86,o),
(370,-24,o),
(582,-24,cs)
);
}
);
width = 1154;
}
);
metricLeft = O;
metricRight = "=|";
unicode = 67;
},
{
glyphname = D;
lastChange = "2025-11-21 20:58:09 +0000";
layers = (
{
anchors = (
{
name = bottom;
pos = (592,0);
},
{
name = center;
pos = (286,650);
},
{
name = top;
pos = (592,1300);
}
);
layerId = m002;
shapes = (
{
closed = 1;
nodes = (
(328,1120,l),
(548,1118,ls),
(714,1116,o),
(876,1062,o),
(876,746,cs),
(876,554,ls),
(876,236,o),
(714,182,o),
(548,180,cs),
(328,178,l)
);
},
{
closed = 1;
nodes = (
(568,0,ls),
(786,0,o),
(1084,90,o),
(1084,554,cs),
(1084,746,ls),
(1084,1210,o),
(786,1300,o),
(568,1300,cs),
(120,1300,l),
(120,0,l)
);
}
);
width = 1164;
},
{
anchors = (
{
name = bottom;
pos = (583,0);
},
{
name = center;
pos = (321,650);
},
{
name = top;
pos = (583,1300);
}
);
layerId = m004;
shapes = (
{
closed = 1;
nodes = (
(284,1228,l),
(548,1228,ls),
(724,1228,o),
(908,1120,o),
(908,846,cs),
(908,434,ls),
(908,180,o),
(724,72,o),
(548,72,cs),
(284,72,l)
);
},
{
closed = 1;
nodes = (
(548,0,ls),
(740,0,o),
(990,114,o),
(990,434,cs),
(990,846,ls),
(990,1186,o),
(740,1298,o),
(548,1298,cs),
(200,1300,l),
(200,0,l)
);
}
);
width = 1125;
},
{
anchors = (
{
name = bottom;
pos = (547,24);
},
{
name = center;
pos = (241,674);
},
{
name = top;
pos = (547,1324);
}
);
layerId = m005;
shapes = (
{
closed = 1;
nodes = (
(333,1072,l),
(523,1072,ls),
(681,1072,o),
(821,1018,o),
(821,722,cs),
(821,578,ls),
(821,280,o),
(681,226,o),
(523,226,cs),
(333,226,l)
);
},
{
closed = 1;
nodes = (
(543,0,ls),
(769,0,o),
(1089,94,o),
(1089,578,cs),
(1089,722,ls),
(1089,1206,o),
(769,1300,o),
(543,1300,cs),
(65,1300,l),
(65,0,l)
);
}
);
width = 1139;
},
{
anchors = (
{
name = bottom;
pos = (552,0);
},
{
name = center;
pos = (264,650);
},
{
name = top;
pos = (552,1300);
}
);
layerId = "1B8EDE0E-D46F-48F9-B9C6-2CD34FEA95FD";
shapes = (
{
closed = 1;
nodes = (
(288,1146,l),
(514,1146,ls),
(684,1144,o),
(854,1076,o),
(854,766,cs),
(854,530,ls),
(854,222,o),
(680,154,o),
(514,154,cs),
(288,152,l)
);
},
{
closed = 1;
nodes = (
(528,0,ls),
(740,0,o),
(1032,96,o),
(1032,530,cs),
(1032,766,ls),
(1032,1204,o),
(742,1298,o),
(528,1300,cs),
(110,1300,l),
(110,0,l)
);
}
);
width = 1112;
}
);
metricLeft = "=H";
metricRight = "=O";
unicode = 68;
},
{
glyphname = E;
lastChange = "2025-11-21 21:00:36 +0000";
layers = (
{
anchors = (
{
name = bottom;
pos = (474,0);
},
{
name = ogonek;
pos = (868,20);
},
{
name = top;
pos = (474,1300);
},
{
name = topleft;
pos = (20,1300);
}
);
layerId = m002;
shapes = (
{
closed = 1;
nodes = (
(886,0,l),
(886,180,l),
(328,180,l),
(328,586,l),
(732,586,l),
(732,766,l),
(328,766,l),
(328,1120,l),
(886,1120,l),
(886,1300,l),
(120,1300,l),
(120,0,l)
);
}
);
width = 926;
},
{
anchors = (
{
name = bottom;
pos = (490,0);
},
{
name = ogonek;
pos = (834,10);
},
{
name = top;
pos = (490,1300);
},
{
name = topleft;
pos = (80,1300);
}
);
layerId = m004;
shapes = (
{
closed = 1;
nodes = (
(880,0,l),
(880,71,l),
(284,71,l),
(284,640,l),
(746,640,l),
(746,712,l),
(284,712,l),
(284,1229,l),
(880,1229,l),
(880,1300,l),
(200,1300,l),
(200,0,l)
);
}
);
width = 920;
},
{
anchors = (
{
name = bottom;
pos = (453,0);
},
{
name = ogonek;
pos = (867,20);
},
{
name = top;
pos = (453,1300);
},
{
name = topleft;
pos = (-25,1300);
}
);
layerId = m005;
shapes = (
{
closed = 1;
nodes = (
(891,0,l),
(891,240,l),
(333,240,l),
(333,554,l),
(737,554,l),
(737,798,l),
(333,798,l),
(333,1060,l),
(891,1060,l),
(891,1300,l),
(65,1300,l),
(65,0,l)
);
}
);
width = 931;
},
{
anchors = (
{
name = bottom;
pos = (456,0);
},
{
name = ogonek;
pos = (840,20);
},
{
name = top;
pos = (456,1300);
},
{
name = topleft;
pos = (16,1300);
}
);
layerId = "1B8EDE0E-D46F-48F9-B9C6-2CD34FEA95FD";
shapes = (
{
closed = 1;
nodes = (
(856,0,l),
(856,148,l),
(288,148,l),
(288,600,l),
(706,600,l),
(706,752,l),
(288,752,l),
(288,1152,l),
(856,1152,l),
(856,1300,l),
(110,1300,l),
(110,0,l)
);
}
);
width = 896;
}
);
metricLeft = "=H";
metricRight = "=40";
unicode = 69;
},
{
glyphname = F;
lastChange = "2025-11-21 21:00:36 +0000";
layers = (
{
anchors = (
{
name = bottom;
pos = (464,-243);
},
{
name = top;
pos = (464,1057);
}
);
layerId = m002;
shapes = (
{
closed = 1;
nodes = (
(328,0,l),
(328,486,l),
(732,486,l),
(732,666,l),
(328,666,l),
(328,1120,l),
(886,1120,l),
(886,1300,l),
(120,1300,l),
(120,0,l)
);
}
);
width = 906;
},
{
anchors = (
{
name = bottom;
pos = (480,0);
},
{
name = top;
pos = (480,1300);
}
);
layerId = m004;
shapes = (
{
closed = 1;
nodes = (
(284,0,l),
(284,580,l),
(746,580,l),
(746,652,l),
(284,652,l),
(284,1228,l),
(880,1228,l),
(880,1300,l),
(200,1300,l),
(200,0,l)
);
}
);
width = 900;
},
{
anchors = (
{
name = bottom;
pos = (443,-236);
},
{
name = top;
pos = (443,1064);
}
);
layerId = m005;
shapes = (
{
closed = 1;
nodes = (
(333,0,l),
(333,472,l),
(737,472,l),
(737,716,l),
(333,716,l),
(333,1060,l),
(891,1060,l),
(891,1300,l),
(65,1300,l),
(65,0,l)
);
}
);
width = 911;
},
{
anchors = (
{
name = bottom;
pos = (446,0);
},
{
name = top;
pos = (446,1300);
}
);
layerId = "1B8EDE0E-D46F-48F9-B9C6-2CD34FEA95FD";
shapes = (
{
closed = 1;
nodes = (
(288,0,l),
(288,500,l),
(706,500,l),
(706,654,l),
(288,654,l),
(288,1146,l),
(856,1146,l),
(856,1300,l),
(110,1300,l),
(110,0,l)
);
}
);
width = 876;
}
);
metricLeft = "=H";
metricRight = "=E-20";
unicode = 70;
},
{
glyphname = G;
lastChange = "2025-11-21 20:58:09 +0000";
layers = (
{
anchors = (
{
name = bottom;
pos = (578,0);
},
{
name = top;
pos = (578,1300);
}
);
background = {
shapes = (
{
closed = 1;
nodes = (
(472,201,l),
(458,108,o),
(399,77,o),
(326,78,cs),
(253,79,o),
(174,105,o),
(174,265,cs),
(174,385,ls),
(174,545,o),
(253,571,o),
(326,572,cs),
(399,573,o),
(457,540,o),
(473,449,c),
(577,449,l),
(560,600,o),
(436,662,o),
(326,662,cs),
(217,662,o),
(70,607,o),
(70,385,cs),
(70,265,ls),
(70,43,o),
(217,-12,o),
(326,-12,cs),
(441,-12,o),
(560,50,o),
(576,201,c)
);
}
);
};
guides = (
{
pos = (325,-100);
}
);
layerId = m002;
shapes = (
{
closed = 1;
nodes = (
(1092,-4,l),
(1092,652,l),
(650,652,l),
(650,472,l),
(884,472,l),
(884,90,l),
(902,90,l),
(922,-4,l)
);
},
{
closed = 1;
nodes = (
(822,-24,o),
(1000,100,o),
(1032,402,c),
(884,402,l),
(884,270,o),
(778,152,o),
(592,156,cs),
(400,160,o),
(288,296,o),
(288,530,cs),
(288,770,ls),
(288,1090,o),
(446,1142,o),
(592,1144,cs),
(738,1146,o),
(854,1080,o),
(886,898,c),
(1094,898,l),
(1060,1200,o),
(812,1324,o),
(592,1324,cs),
(374,1324,o),
(80,1214,o),
(80,770,cs),
(80,530,ls),
(80,190,o),
(278,-24,o),
(592,-24,cs)
);
}
);
width = 1194;
},
{
anchors = (
{
name = bottom;
pos = (611,0);
},
{
name = top;
pos = (611,1300);
}
);
background = {
shapes = (
{
closed = 0;
nodes = (
(634,325,ls),
(634,525,o),
(545,631,o),
(384,630,cs)
);
},
{
closed = 0;
nodes = (
(384,662,ls),
(558,662,o),
(673,567,o),
(673,325,cs)
);
}
);
};
layerId = m004;
shapes = (
{
closed = 1;
nodes = (
(1069,0,l),
(1069,652,l),
(735,652,l),
(735,580,l),
(987,580,l),
(985,172,l),
(985,152,l),
(1005,0,l)
);
},
{
closed = 1;
nodes = (
(791,-24,o),
(1005,34,o),
(1029,378,c),
(987,378,l),
(961,142,o),
(775,44,o),
(603,46,cs),
(425,48,o),
(219,154,o),
(219,430,c),
(219,850,l),
(219,1146,o),
(425,1252,o),
(603,1254,cs),
(781,1256,o),
(959,1156,o),
(987,900,c),
(1071,900,l),
(1043,1224,o),
(797,1324,o),
(603,1324,cs),
(411,1324,o),
(135,1214,o),
(135,850,c),
(135,430,l),
(135,86,o),
(411,-24,o),
(603,-24,cs)
);
}
);
width = 1231;
},
{
anchors = (
{
name = bottom;
pos = (598,12);
},
{
name = top;
pos = (598,1312);
}
);
background = {
shapes = (
{
closed = 1;
nodes = (
(467,201,l),
(453,108,o),
(394,77,o),
(321,78,cs),
(248,79,o),
(169,105,o),
(169,265,cs),
(169,385,ls),
(169,545,o),
(248,571,o),
(321,572,cs),
(394,573,o),
(452,540,o),
(468,449,c),
(572,449,l),
(555,600,o),
(431,662,o),
(321,662,cs),
(212,662,o),
(65,607,o),
(65,385,cs),
(65,265,ls),
(65,43,o),
(212,-12,o),
(321,-12,cs),
(436,-12,o),
(555,50,o),
(571,201,c)
);
}
);
};
guides = (
{
pos = (310,-100);
}
);
layerId = m005;
shapes = (
{
closed = 1;
nodes = (
(1122,-4,l),
(1122,676,l),
(680,676,l),
(680,466,l),
(854,466,l),
(854,90,l),
(876,90,l),
(896,-4,l)
);
},
{
closed = 1;
nodes = (
(860,-24,o),
(982,112,o),
(1004,450,c),
(854,466,l),
(856,334,o),
(772,202,o),
(592,204,cs),
(454,206,o),
(318,254,o),
(318,554,cs),
(318,746,ls),
(318,1046,o),
(454,1094,o),
(592,1096,cs),
(732,1098,o),
(834,1036,o),
(860,850,c),
(1126,850,l),
(1102,1188,o),
(830,1324,o),
(592,1324,cs),
(364,1324,o),
(50,1208,o),
(50,746,cs),
(50,554,ls),
(50,92,o),
(364,-24,o),
(592,-24,cs)
);
}
);
width = 1226;
},
{
anchors = (
{
name = bottom;
pos = (578,12);
},
{
name = top;
pos = (578,1312);
}
);
layerId = "1B8EDE0E-D46F-48F9-B9C6-2CD34FEA95FD";
shapes = (
{
closed = 1;
nodes = (
(1072,0,l),
(1072,654,l),
(658,654,l),
(658,508,l),
(896,508,l),
(896,124,l),
(910,114,l),
(924,0,l)
);
},
{
closed = 1;
nodes = (
(802,-22,o),
(988,94,o),
(1020,398,c),
(896,398,l),
(888,238,o),
(762,128,o),
(582,130,cs),
(406,134,o),
(258,236,o),
(258,508,c),
(258,792,l),
(258,1102,o),
(428,1168,o),
(582,1170,cs),
(736,1172,o),
(866,1098,o),
(898,900,c),
(1074,900,l),
(1042,1210,o),
(794,1326,o),
(582,1326,cs),
(370,1326,o),
(80,1216,o),
(80,792,c),
(80,508,l),
(80,134,o),
(328,-22,o),
(582,-22,cs)
);
}
);
width = 1149;
}
);
metricLeft = "=O";
unicode = 71;
},
{
glyphname = H;
lastChange = "2025-11-25 09:51:13 +0000";
layers = (
{
anchors = (
{
name = bottom;
pos = (594,-2);
},
{
name = center;
pos = (594,1038);
},
{
name = top;
pos = (594,1298);
},
{
name = topleft;
pos = (20,1298);
}
);
layerId = m002;
shapes = (
{
closed = 1;
nodes = (
(120,2,l),
(328,2,l),
(328,576,l),
(860,576,l),
(860,2,l),
(1068,2,l),
(1068,1298,l),
(860,1298,l),
(860,762,l),
(328,762,l),
(328,1298,l),
(120,1298,l)
);
}
);
width = 1188;
},
{
anchors = (
{
name = bottom;
pos = (628,0);
},
{
name = center;
pos = (628,1038);
},
{
name = top;
pos = (628,1300);
},
{
name = topleft;
pos = (80,1300);
}
);
layerId = m004;
shapes = (
{
closed = 1;
nodes = (
(200,2,l),
(284,2,l),
(284,628,l),
(972,628,l),
(972,2,l),
(1056,2,l),
(1056,1298,l),
(972,1298,l),
(972,700,l),
(284,700,l),
(284,1298,l),
(200,1298,l)
);
}
);
width = 1256;
},
{
anchors = (
{
name = bottom;
pos = (569,0);
},
{
name = center;
pos = (569,1040);
},
{
name = top;
pos = (569,1300);
},
{
name = topleft;
pos = (-25,1300);
}
);
layerId = m005;
shapes = (
{
closed = 1;
nodes = (
(65,0,l),
(333,0,l),
(333,556,l),
(805,556,l),
(805,0,l),
(1073,0,l),
(1073,1300,l),
(805,1300,l),
(805,800,l),
(333,800,l),
(333,1300,l),
(65,1300,l)
);
}
);
width = 1138;
},
{
.lastUpdate = 785757073.544;
anchors = (
{
name = bottom;
pos = (624,-2);
},
{
name = center;
pos = (624,1038);
},
{
name = top;
pos = (624,1298);
},
{
name = topleft;
pos = (66,1298);
}
);
layerId = "1B8EDE0E-D46F-48F9-B9C6-2CD34FEA95FD";
shapes = (
{
closed = 1;
nodes = (
(160,2,l),
(338,2,l),
(338,590,l),
(908,590,l),
(908,2,l),
(1086,2,l),
(1086,1298,l),
(908,1298,l),
(908,742,l),
(338,742,l),
(338,1298,l),
(160,1298,l)
);
}
);
width = 1246;
}
);
metricRight = "=|";
unicode = 72;
changeCount = 2;
},
{
glyphname = I;
lastChange = "2025-11-21 20:58:09 +0000";
layers = (
{
anchors = (
{
name = bottom;
pos = (224,0);
},
{
name = ogonek;
pos = (420,20);
},
{
name = top;
pos = (224,1300);
},
{
name = topleft;
pos = (20,1300);
}
);
layerId = m002;
shapes = (
{
closed = 1;
nodes = (
(120,1300,l),
(120,0,l),
(328,0,l),
(328,1300,l)
);
}
);
width = 448;
},
{
anchors = (
{
name = bottom;
pos = (241,0);
},
{
name = ogonek;
pos = (386,10);
},
{
name = top;
pos = (241,1300);
},
{
name = topleft;
pos = (80,1300);
}
);
layerId = m004;
shapes = (
{
closed = 1;
nodes = (
(200,1300,l),
(200,0,l),
(282,0,l),
(282,1300,l)
);
}
);
width = 482;
},
{
anchors = (
{
name = bottom;
pos = (199,12);
},
{
name = ogonek;
pos = (411,32);
},
{
name = top;
pos = (199,1312);
},
{
name = topleft;
pos = (-25,1312);
}
);
layerId = m005;
shapes = (
{
closed = 1;
nodes = (
(65,1300,l),
(65,0,l),
(333,0,l),
(333,1300,l)
);
}
);
width = 398;
},
{
anchors = (
{
name = bottom;
pos = (200,0);
},
{
name = ogonek;
pos = (378,20);
},
{
name = top;
pos = (200,1300);
},
{
name = topleft;
pos = (16,1300);
}
);
layerId = "1B8EDE0E-D46F-48F9-B9C6-2CD34FEA95FD";
shapes = (
{
closed = 1;
nodes = (
(110,1300,l),
(110,0,l),
(288,0,l),
(288,1300,l)
);
}
);
width = 398;
}
);
metricLeft = H;
metricRight = H;
unicode = 73;
},
{
glyphname = J;
lastChange = "2025-11-21 20:58:09 +0000";
layers = (
{
anchors = (
{
name = bottom;
pos = (462,0);
},
{
name = top;
pos = (462,1300);
}
);
layerId = m002;
shapes = (
{
closed = 1;
nodes = (
(610,-24,o),
(786,54,o),
(786,354,cs),
(786,1300,l),
(578,1300,l),
(578,354,ls),
(578,192,o),
(502,156,o),
(406,156,cs),
(310,156,o),
(234,192,o),
(234,354,c),
(234,394,l),
(30,394,l),
(30,354,l),
(30,54,o),
(202,-24,o),
(406,-24,cs)
);
}
);
width = 866;
},
{
anchors = (
{
name = bottom;
pos = (421,0);
},
{
name = top;
pos = (421,1300);
}
);
layerId = m004;
shapes = (
{
closed = 1;
nodes = (
(577,-24,o),
(674,75,o),
(674,296,cs),
(676,1300,l),
(592,1300,l),
(590,296,ls),
(590,130,o),
(523,47,o),
(378,47,cs),
(233,47,o),
(152,132,o),
(152,296,c),
(152,394,l),
(70,394,l),
(70,296,l),
(70,85,o),
(170,-24,o),
(378,-24,cs)
);
}
);
width = 836;
},
{
anchors = (
{
name = bottom;
pos = (473,12);
},
{
name = top;
pos = (473,1312);
}
);
layerId = m005;
shapes = (
{
closed = 1;
nodes = (
(643,-24,o),
(837,60,o),
(837,378,cs),
(837,1300,l),
(569,1300,l),
(569,378,ls),
(569,260,o),
(507,210,o),
(423,210,cs),
(339,210,o),
(279,260,o),
(279,378,cs),
(279,442,l),
(21,442,l),
(21,378,ls),
(21,60,o),
(211,-24,o),
(427,-24,cs)
);
}
);
width = 902;
},
{
anchors = (
{
name = bottom;
pos = (445,12);
},
{
name = top;
pos = (445,1312);
}
);
layerId = "1B8EDE0E-D46F-48F9-B9C6-2CD34FEA95FD";
shapes = (
{
closed = 1;
nodes = (
(589,-24,o),
(763,72,o),
(763,344,cs),
(763,1300,l),
(585,1300,l),
(585,344,ls),
(585,176,o),
(497,128,o),
(397,128,cs),
(297,128,o),
(211,176,o),
(211,344,c),
(211,394,l),
(45,394,l),
(45,344,l),
(45,72,o),
(227,-24,o),
(397,-24,cs)
);
}
);
width = 853;
}
);
unicode = 74;
},
{
glyphname = K;
lastChange = "2025-11-21 20:58:09 +0000";
layers = (
{
anchors = (
{
name = bottom;
pos = (552,-650);
},
{
name = top;
pos = (552,650);
}
);
layerId = m002;
shapes = (
{
closed = 1;
nodes = (
(328,2,l),
(328,532,l),
(268,366,l),
(530,678,l),
(420,684,l),
(862,0,l),
(1084,0,l),
(550,842,l),
(540,690,l),
(1052,1300,l),
(820,1300,l),
(266,672,l),
(328,648,l),
(328,1300,l),
(120,1300,l),
(120,2,l)
);
}
);
width = 982;
},
{
anchors = (
{
name = bottom;
pos = (581,0);
},
{
name = top;
pos = (581,1300);
}
);
layerId = m004;
shapes = (
{
closed = 1;
nodes = (
(284,2,l),
(284,552,l),
(224,386,l),
(516,730,l),
(488,742,l),
(964,0,l),
(1062,0,l),
(538,818,l),
(530,742,l),
(1006,1300,l),
(904,1300,l),
(219,502,l),
(284,492,l),
(284,1300,l),
(200,1300,l),
(200,2,l)
);
}
);
width = 1127;
},
{
anchors = (
{
name = bottom;
pos = (527,0);
},
{
name = top;
pos = (527,1300);
}
);
layerId = m005;
shapes = (
{
closed = 1;
nodes = (
(333,0,l),
(333,520,l),
(271,356,l),
(533,656,l),
(423,666,l),
(819,0,l),
(1111,0,l),
(595,868,l),
(581,718,l),
(1083,1300,l),
(771,1300,l),
(263,726,l),
(333,702,l),
(333,1300,l),
(65,1300,l),
(65,0,l)
);
}
);
width = 1211;
},
{
anchors = (
{
name = bottom;
pos = (518,-310);
},
{
name = top;
pos = (518,990);
}
);
layerId = "1B8EDE0E-D46F-48F9-B9C6-2CD34FEA95FD";
shapes = (
{
closed = 1;
nodes = (
(288,0,l),
(288,534,l),
(228,368,l),
(526,720,l),
(428,768,l),
(862,0,l),
(1058,0,l),
(546,902,l),
(520,710,l),
(1002,1300,l),
(805,1300,l),
(226,620,l),
(288,596,l),
(288,1300,l),
(110,1300,l),
(110,0,l)
);
}
);
width = 1088;
}
);
metricLeft = "=H";
unicode = 75;
},
{
glyphname = L;
lastChange = "2025-11-21 20:58:09 +0000";
layers = (
{
anchors = (
{
name = bottom;
pos = (464,0);
},
{
name = center;
pos = (464,650);
},
{
name = top;
pos = (464,1300);
},
{
name = topright;
pos = (908,1300);
}
);
layerId = m002;
shapes = (
{
closed = 1;
nodes = (
(896,0,l),
(896,180,l),
(328,180,l),
(328,1300,l),
(120,1300,l),
(120,0,l)
);
}
);
width = 956;
},
{
anchors = (
{
name = bottom;
pos = (483,0);
},
{
name = center;
pos = (483,650);
},
{
name = top;
pos = (483,1300);
},
{
name = topright;
pos = (886,1300);
}
);
layerId = m004;
shapes = (
{
closed = 1;
nodes = (
(846,0,l),
(846,72,l),
(282,72,l),
(282,1300,l),
(200,1300,l),
(200,0,l)
);
}
);
width = 896;
},
{
anchors = (
{
name = bottom;
pos = (439,0);
},
{
name = center;
pos = (439,650);
},
{
name = top;
pos = (439,1300);
},
{
name = topright;
pos = (901,1300);
}
);
layerId = m005;
shapes = (
{
closed = 1;
nodes = (
(901,0,l),
(901,240,l),
(333,240,l),
(333,1300,l),
(65,1300,l),
(65,0,l)
);
}
);
width = 1001;
},
{
anchors = (
{
name = bottom;
pos = (446,0);
},
{
name = center;
pos = (446,650);
},
{
name = top;
pos = (446,1300);
},
{
name = topright;
pos = (876,1300);
}
);
layerId = "1B8EDE0E-D46F-48F9-B9C6-2CD34FEA95FD";
shapes = (
{
closed = 1;
nodes = (
(854,0,l),
(854,152,l),
(288,152,l),
(288,1300,l),
(110,1300,l),
(110,0,l)
);
}
);
width = 904;
}
);
metricLeft = "=H";
unicode = 76;
},
{
glyphname = Lslash;
lastChange = "2025-11-21 20:58:09 +0000";
layers = (
{
layerId = m004;
shapes = (
{
ref = L;
},
{
closed = 1;
nodes = (
(51,388,l),
(641,622,l),
(641,702,l),
(51,468,l)
);
}
);
width = 499;
},
{
layerId = "1B8EDE0E-D46F-48F9-B9C6-2CD34FEA95FD";
shapes = (
{
ref = L;
},
{
closed = 1;
nodes = (
(41,388,l),
(677,640,l),
(677,806,l),
(41,554,l)
);
}
);
width = 510;
},
{
layerId = m002;
shapes = (
{
ref = L;
},
{
closed = 1;
nodes = (
(31,388,l),
(723,664,l),
(723,858,l),
(31,582,l)
);
}
);
width = 505;
},
{
layerId = m005;
shapes = (
{
ref = L;
},
{
closed = 1;
nodes = (
(21,388,l),
(789,696,l),
(789,950,l),
(21,642,l)
);
}
);
width = 503;
}
);
unicode = 321;
},
{
glyphname = M;
lastChange = "2025-11-21 20:58:09 +0000";
layers = (
{
anchors = (
{
name = bottom;
pos = (730,-457);
},
{
name = top;
pos = (730,843);
}
);
layerId = m002;
shapes = (
{
closed = 1;
nodes = (
(328,2,l),
(328,942,l),
(296,914,l),
(622,260,l),
(838,260,l),
(1164,914,l),
(1132,942,l),
(1132,2,l),
(1340,2,l),
(1340,1300,l),
(1128,1300,l),
(696,438,l),
(764,438,l),
(332,1300,l),
(120,1300,l),
(120,2,l)
);
}
);
width = 1460;
},
{
anchors = (
{
name = bottom;
pos = (676,0);
},
{
name = top;
pos = (676,1300);
}
);
layerId = m004;
shapes = (
{
closed = 1;
nodes = (
(284,0,l),
(284,1258,l),
(234,1230,l),
(664,276,l),
(730,276,l),
(1158,1230,l),
(1108,1258,l),
(1108,0,l),
(1192,0,l),
(1192,1300,l),
(1108,1300,l),
(680,356,l),
(712,356,l),
(284,1300,l),
(200,1300,l),
(200,0,l)
);
}
);
width = 1392;
},
{
anchors = (
{
name = bottom;
pos = (705,0);
},
{
name = top;
pos = (705,1300);
}
);
layerId = m005;
shapes = (
{
closed = 1;
nodes = (
(333,0,l),
(333,1040,l),
(237,956,l),
(597,212,l),
(813,212,l),
(1173,956,l),
(1077,1040,l),
(1077,0,l),
(1345,0,l),
(1345,1300,l),
(1093,1300,l),
(627,390,l),
(783,390,l),
(319,1300,l),
(65,1300,l),
(65,0,l)
);
}
);
width = 1410;
},
{
anchors = (
{
name = bottom;
pos = (698,-1);
},
{
name = top;
pos = (698,1299);
}
);
layerId = "1B8EDE0E-D46F-48F9-B9C6-2CD34FEA95FD";
shapes = (
{
closed = 1;
nodes = (
(288,1,l),
(288,1093,l),
(250,1051,l),
(630,259,l),
(764,259,l),
(1146,1051,l),
(1108,1093,l),
(1108,1,l),
(1286,1,l),
(1286,1299,l),
(1106,1299,l),
(668,415,l),
(728,415,l),
(290,1299,l),
(110,1299,l),
(110,1,l)
);
}
);
width = 1396;
}
);
metricLeft = H;
metricRight = H;
unicode = 77;
},
{
glyphname = N;
lastChange = "2025-11-21 20:58:09 +0000";
layers = (
{
anchors = (
{
name = bottom;
pos = (602,-125);
},
{
name = top;
pos = (602,1175);
}
);
layerId = m002;
shapes = (
{
closed = 1;
nodes = (
(120,0,l),
(328,0,l),
(328,1040,l),
(244,1040,l),
(876,0,l),
(1084,0,l),
(1084,1300,l),
(876,1300,l),
(876,252,l),
(960,250,l),
(328,1300,l),
(120,1300,l)
);
}
);
width = 1204;
},
{
anchors = (
{
name = bottom;
pos = (606,0);
},
{
name = top;
pos = (606,1300);
}
);
layerId = m004;
shapes = (
{
closed = 1;
nodes = (
(200,0,l),
(284,0,l),
(284,1206,l),
(236,1206,l),
(984,0,l),
(1042,0,l),
(1042,1300,l),
(958,1300,l),
(958,86,l),
(1020,86,l),
(272,1300,l),
(200,1300,l)
);
}
);
width = 1242;
},
{
anchors = (
{
name = bottom;
pos = (577,0);
},
{
name = top;
pos = (577,1300);
}
);
layerId = m005;
shapes = (
{
closed = 1;
nodes = (
(65,0,l),
(333,0,l),
(333,1040,l),
(151,1040,l),
(833,0,l),
(1089,0,l),
(1089,1300,l),
(821,1300,l),
(821,236,l),
(1003,232,l),
(321,1300,l),
(65,1300,l)
);
}
);
width = 1154;
},
{
anchors = (
{
name = bottom;
pos = (580,0);
},
{
name = top;
pos = (580,1300);
}
);
layerId = "1B8EDE0E-D46F-48F9-B9C6-2CD34FEA95FD";
shapes = (
{
closed = 1;
nodes = (
(110,0,l),
(288,0,l),
(288,1122,l),
(204,1108,l),
(878,0,l),
(1048,0,l),
(1048,1300,l),
(870,1300,l),
(870,172,l),
(958,184,l),
(284,1300,l),
(110,1300,l)
);
}
);
width = 1158;
}
);
metricLeft = H;
metricRight = "=|";
unicode = 78;
},
{
glyphname = O;
lastChange = "2025-11-21 21:57:47 +0000";
layers = (
{
anchors = (
{
name = bottom;
pos = (596,12);
},
{
name = center;
pos = (596,662);
},
{
name = ogonek;
pos = (1104,32);
},
{
name = top;
pos = (596,1312);
},
{
name = topleft;
pos = (0,1312);
},
{
name = topright;
pos = (1192,1312);
}
);
layerId = m002;
shapes = (
{
closed = 1;
nodes = (
(904,510,ls),
(904,210,o),
(742,154,o),
(596,156,cs),
(450,158,o),
(288,210,o),
(288,510,cs),
(288,790,ls),
(288,1090,o),
(450,1142,o),
(596,1144,cs),
(742,1146,o),
(904,1090,o),
(904,790,cs)
);
},
{
closed = 1;
nodes = (
(80,510,ls),
(80,86,o),
(378,-24,o),
(596,-24,cs),
(816,-24,o),
(1112,86,o),
(1112,510,cs),
(1112,790,ls),
(1112,1214,o),
(816,1324,o),
(596,1324,cs),
(378,1324,o),
(80,1214,o),
(80,790,cs)
);
}
);
width = 1192;
},
{
anchors = (
{
name = bottom;
pos = (603,0);
},
{
name = center;
pos = (603,650);
},
{
name = ogonek;
pos = (1069,10);
},
{
name = top;
pos = (603,1300);
},
{
name = topleft;
pos = (40,1300);
},
{
name = topright;
pos = (1166,1300);
}
);
background = {
shapes = (
{
closed = 1;
nodes = (
(969,205,o),
(814,43,o),
(583,46,cs),
(353,49,o),
(197,213,o),
(197,450,c),
(197,870,l),
(197,1146,o),
(405,1252,o),
(583,1254,cs),
(761,1256,o),
(969,1146,o),
(969,870,c),
(969,450,l)
);
},
{
closed = 1;
nodes = (
(115,170,o),
(307,-24,o),
(583,-24,cs),
(859,-24,o),
(1051,170,o),
(1051,450,c),
(1051,870,l),
(1051,1214,o),
(777,1324,o),
(583,1324,cs),
(391,1324,o),
(115,1214,o),
(115,870,c),
(115,450,l)
);
}
);
};
layerId = m004;
shapes = (
{
closed = 1;
nodes = (
(989,450,l),
(989,205,o),
(834,43,o),
(603,46,cs),
(373,49,o),
(217,213,o),
(217,450,c),
(217,850,l),
(217,1087,o),
(373,1251,o),
(603,1254,cs),
(834,1257,o),
(989,1095,o),
(989,850,c)
);
},
{
closed = 1;
nodes = (
(135,450,l),
(135,170,o),
(327,-24,o),
(603,-24,cs),
(879,-24,o),
(1071,170,o),
(1071,450,c),
(1071,850,l),
(1071,1130,o),
(879,1324,o),
(603,1324,cs),
(327,1324,o),
(135,1130,o),
(135,850,c)
);
}
);
width = 1206;
},
{
anchors = (
{
name = bottom;
pos = (596,0);
},
{
name = center;
pos = (596,650);
},
{
name = ogonek;
pos = (1088,20);
},
{
name = top;
pos = (596,1324);
},
{
name = topleft;
pos = (20,1300);
},
{
name = topright;
pos = (1172,1300);
}
);
layerId = m005;
shapes = (
{
closed = 1;
nodes = (
(874,540,ls),
(874,272,o),
(734,220,o),
(596,222,cs),
(458,224,o),
(318,272,o),
(318,540,cs),
(318,760,ls),
(318,1028,o),
(458,1076,o),
(596,1078,cs),
(734,1080,o),
(874,1028,o),
(874,760,cs)
);
},
{
closed = 1;
nodes = (
(50,534,ls),
(50,92,o),
(368,-24,o),
(596,-24,cs),
(826,-24,o),
(1142,92,o),
(1142,534,cs),
(1142,766,ls),
(1142,1208,o),
(826,1324,o),
(596,1324,cs),
(368,1324,o),
(50,1208,o),
(50,766,cs)
);
}
);
width = 1192;
},
{
anchors = (
{
name = bottom;
pos = (584,0);
},
{
name = center;
pos = (584,650);
},
{
name = ogonek;
pos = (1062,20);
},
{
name = top;
pos = (584,1300);
},
{
name = topleft;
pos = (26,1300);
},
{
name = topright;
pos = (1142,1300);
}
);
layerId = "1B8EDE0E-D46F-48F9-B9C6-2CD34FEA95FD";
shapes = (
{
closed = 1;
nodes = (
(912,492,l),
(912,198,o),
(738,128,o),
(584,130,cs),
(430,132,o),
(258,198,o),
(258,492,c),
(258,802,l),
(258,1100,o),
(430,1166,o),
(584,1168,cs),
(738,1170,o),
(912,1100,o),
(912,802,c)
);
},
{
closed = 1;
nodes = (
(80,490,l),
(80,86,o),
(372,-24,o),
(584,-24,cs),
(798,-24,o),
(1088,86,o),
(1088,490,c),
(1088,806,l),
(1088,1214,o),
(798,1324,o),
(584,1324,cs),
(372,1324,o),
(80,1214,o),
(80,806,c)
);
}
);
width = 1168;
}
);
metricRight = "=|";
unicode = 79;
},
{
glyphname = Oslash;
lastChange = "2025-11-21 20:58:09 +0000";
layers = (
{
anchors = (
{
name = bottom;
pos = (334,0);
},
{
name = top;
pos = (334,1300);
}
);
layerId = m004;
shapes = (
{
ref = O;
},
{
closed = 1;
nodes = (
(152,0,l),
(568,650,l),
(516,649,l),
(100,0,l)
);
}
);
width = 1171;
},
{
anchors = (
{
name = bottom;
pos = (581,12);
},
{
name = top;
pos = (581,1312);
}
);
layerId = "1B8EDE0E-D46F-48F9-B9C6-2CD34FEA95FD";
shapes = (
{
ref = O;
},
{
closed = 1;
nodes = (
(263,12,l),
(1105,1312,l),
(899,1312,l),
(57,12,l)
);
}
);
width = 1162;
},
{
anchors = (
{
name = bottom;
pos = (589,12);
},
{
name = top;
pos = (589,1312);
}
);
layerId = m002;
shapes = (
{
ref = O;
},
{
closed = 1;
nodes = (
(301,12,l),
(1111,1312,l),
(877,1312,l),
(67,12,l)
);
}
);
width = 1179;
},
{
anchors = (
{
name = bottom;
pos = (601,12);
},
{
name = top;
pos = (601,1312);
}
);
layerId = m005;
shapes = (
{
ref = O;
},
{
closed = 1;
nodes = (
(329,12,l),
(1187,1312,l),
(873,1312,l),
(15,12,l)
);
}
);
width = 1202;
}
);
metricRight = "=|";
unicode = 216;
},
{
glyphname = P;
lastChange = "2025-11-21 20:58:09 +0000";
layers = (
{
anchors = (
{
name = bottom;
pos = (480,0);
},
{
name = top;
pos = (480,1300);
}
);
layerId = m002;
shapes = (
{
closed = 1;
nodes = (
(328,0,l),
(328,1300,l),
(120,1300,l),
(120,0,l)
);
},
{
closed = 1;
nodes = (
(482,530,ls),
(660,530,o),
(898,620,o),
(898,904,cs),
(898,926,ls),
(898,1210,o),
(660,1300,o),
(482,1300,cs),
(286,1300,l),
(286,1122,l),
(462,1120,ls),
(548,1118,o),
(690,1102,o),
(690,926,cs),
(690,904,ls),
(690,726,o),
(548,712,o),
(462,710,cs),
(286,708,l),
(286,530,l)
);
}
);
width = 968;
},
{
anchors = (
{
name = bottom;
pos = (509,0);
},
{
name = top;
pos = (509,1300);
}
);
layerId = m004;
shapes = (
{
closed = 1;
nodes = (
(284,0,l),
(284,1300,l),
(200,1300,l),
(200,0,l)
);
},
{
closed = 1;
nodes = (
(512,526,ls),
(734,526,o),
(878,676,o),
(878,910,c),
(878,916,l),
(878,1143,o),
(728,1300,o),
(512,1300,cs),
(246,1300,l),
(246,1228,l),
(512,1228,ls),
(680,1228,o),
(794,1098,o),
(794,918,c),
(794,908,l),
(794,692,o),
(674,598,o),
(512,598,cs),
(246,598,l),
(246,526,l)
);
}
);
width = 988;
},
{
anchors = (
{
name = bottom;
pos = (441,0);
},
{
name = top;
pos = (441,1300);
}
);
layerId = m005;
shapes = (
{
closed = 1;
nodes = (
(333,0,l),
(333,1300,l),
(65,1300,l),
(65,0,l)
);
},
{
closed = 1;
nodes = (
(477,462,ls),
(645,462,o),
(903,558,o),
(903,860,cs),
(903,898,ls),
(903,1200,o),
(645,1300,o),
(477,1300,cs),
(231,1300,l),
(231,1054,l),
(457,1054,ls),
(521,1054,o),
(635,1034,o),
(635,892,cs),
(635,870,ls),
(635,726,o),
(523,708,o),
(457,708,cs),
(231,708,l),
(231,462,l)
);
}
);
width = 963;
},
{
anchors = (
{
name = bottom;
pos = (462,0);
},
{
name = top;
pos = (462,1300);
}
);
layerId = "1B8EDE0E-D46F-48F9-B9C6-2CD34FEA95FD";
shapes = (
{
closed = 1;
nodes = (
(288,0,l),
(288,1300,l),
(110,1300,l),
(110,0,l)
);
},
{
closed = 1;
nodes = (
(460,506,ls),
(650,506,o),
(866,594,o),
(866,880,c),
(866,924,l),
(866,1212,o),
(650,1300,o),
(460,1300,cs),
(246,1300,l),
(246,1146,l),
(444,1146,ls),
(550,1146,o),
(688,1122,o),
(688,920,c),
(688,886,l),
(688,682,o),
(550,660,o),
(444,660,cs),
(246,660,l),
(246,506,l)
);
}
);
width = 916;
}
);
metricLeft = "=H";
unicode = 80;
},
{
glyphname = Q;
lastChange = "2025-11-21 20:58:09 +0000";
layers = (
{
anchors = (
{
name = bottom;
pos = (596,102);
},
{
name = top;
pos = (596,1402);
}
);
background = {
shapes = (
{
closed = 1;
nodes = (
(390,34,l),
(452,-74,l),
(547,-20,l),
(485,88,l)
);
}
);
};
layerId = m002;
shapes = (
{
closed = 1;
nodes = (
(904,510,ls),
(904,210,o),
(742,154,o),
(596,156,cs),
(450,158,o),
(288,210,o),
(288,510,cs),
(288,790,ls),
(288,1090,o),
(450,1142,o),
(596,1144,cs),
(742,1146,o),
(904,1090,o),
(904,790,cs)
);
},
{
closed = 1;
nodes = (
(80,510,ls),
(80,86,o),
(378,-24,o),
(596,-24,cs),
(816,-24,o),
(1112,86,o),
(1112,510,cs),
(1112,790,ls),
(1112,1214,o),
(816,1324,o),
(596,1324,cs),
(378,1324,o),
(80,1214,o),
(80,790,cs)
);
},
{
closed = 1;
nodes = (
(720,68,l),
(874,-204,l),
(1064,-96,l),
(910,176,l)
);
}
);
width = 1192;
},
{
anchors = (
{
name = bottom;
pos = (603,0);
},
{
name = top;
pos = (603,1300);
}
);
layerId = m004;
shapes = (
{
closed = 1;
nodes = (
(987,430,l),
(987,154,o),
(781,44,o),
(603,46,cs),
(425,48,o),
(219,154,o),
(219,430,c),
(219,850,l),
(219,1146,o),
(425,1250,o),
(603,1252,cs),
(781,1254,o),
(987,1146,o),
(987,850,c)
);
},
{
closed = 1;
nodes = (
(135,430,l),
(135,86,o),
(411,-24,o),
(603,-24,cs),
(797,-24,o),
(1071,86,o),
(1071,430,c),
(1071,850,l),
(1071,1214,o),
(797,1324,o),
(603,1324,cs),
(411,1324,o),
(135,1214,o),
(135,850,c)
);
},
{
closed = 1;
nodes = (
(821,94,l),
(955,-106,l),
(1025,-60,l),
(891,140,l)
);
}
);
width = 1206;
},
{
anchors = (
{
name = bottom;
pos = (596,0);
},
{
name = top;
pos = (596,1300);
}
);
background = {
shapes = (
{
closed = 1;
nodes = (
(385,34,l),
(447,-74,l),
(542,-20,l),
(480,88,l)
);
}
);
};
layerId = m005;
shapes = (
{
closed = 1;
nodes = (
(874,540,ls),
(874,272,o),
(734,220,o),
(596,222,cs),
(458,224,o),
(318,272,o),
(318,540,cs),
(318,760,ls),
(318,1028,o),
(458,1076,o),
(596,1078,cs),
(734,1080,o),
(874,1028,o),
(874,760,cs)
);
},
{
closed = 1;
nodes = (
(50,534,ls),
(50,92,o),
(368,-24,o),
(596,-24,cs),
(826,-24,o),
(1142,92,o),
(1142,534,cs),
(1142,766,ls),
(1142,1208,o),
(826,1324,o),
(596,1324,cs),
(368,1324,o),
(50,1208,o),
(50,766,cs)
);
},
{
closed = 1;
nodes = (
(672,148,l),
(852,-168,l),
(1092,-32,l),
(912,284,l)
);
}
);
width = 1192;
},
{
anchors = (
{
name = bottom;
pos = (584,0);
},
{
name = top;
pos = (584,1300);
}
);
layerId = "1B8EDE0E-D46F-48F9-B9C6-2CD34FEA95FD";
shapes = (
{
closed = 1;
nodes = (
(912,490,l),
(912,198,o),
(738,128,o),
(584,130,cs),
(430,132,o),
(258,198,o),
(258,490,c),
(258,806,l),
(258,1100,o),
(430,1166,o),
(584,1168,cs),
(738,1170,o),
(912,1100,o),
(912,806,c)
);
},
{
closed = 1;
nodes = (
(80,490,l),
(80,86,o),
(372,-24,o),
(584,-24,cs),
(798,-24,o),
(1088,86,o),
(1088,490,c),
(1088,806,l),
(1088,1214,o),
(798,1324,o),
(584,1324,cs),
(372,1324,o),
(80,1214,o),
(80,806,c)
);
},
{
closed = 1;
nodes = (
(736,70,l),
(876,-174,l),
(1036,-80,l),
(894,162,l)
);
}
);
width = 1168;
}
);
metricLeft = "=O";
metricRight = "=O";
unicode = 81;
},
{
glyphname = R;
lastChange = "2025-11-21 20:58:09 +0000";
layers = (
{
anchors = (
{
name = bottom;
pos = (532,0);
},
{
name = top;
pos = (532,1300);
}
);
layerId = m002;
shapes = (
{
closed = 1;
nodes = (
(324,1124,l),
(530,1124,ls),
(640,1124,o),
(724,1080,o),
(726,926,cs),
(726,876,ls),
(724,724,o),
(640,680,o),
(530,680,cs),
(324,680,l)
);
},
{
closed = 1;
nodes = (
(324,0,l),
(324,504,l),
(522,504,ls),
(722,504,o),
(948,586,o),
(948,876,cs),
(948,926,ls),
(946,1232,o),
(722,1300,o),
(520,1300,cs),
(120,1300,l),
(120,0,l)
);
},
{
closed = 1;
nodes = (
(994,0,l),
(726,588,l),
(510,588,l),
(772,0,l)
);
}
);
width = 1034;
},
{
anchors = (
{
name = bottom;
pos = (534,0);
},
{
name = top;
pos = (534,1300);
}
);
layerId = m004;
shapes = (
{
closed = 1;
nodes = (
(284,1228,l),
(522,1228,ls),
(708,1228,o),
(794,1135,o),
(794,948,cs),
(794,918,ls),
(794,727,o),
(703,638,o),
(522,638,cs),
(284,638,l)
);
},
{
closed = 1;
nodes = (
(284,0,l),
(284,566,l),
(522,566,ls),
(749,566,o),
(878,699,o),
(878,920,cs),
(878,946,ls),
(878,1172,o),
(743,1300,o),
(522,1300,cs),
(200,1300,l),
(200,0,l)
);
},
{
closed = 1;
nodes = (
(928,0,l),
(636,588,l),
(550,588,l),
(842,0,l)
);
}
);
width = 1013;
},
{
anchors = (
{
name = bottom;
pos = (497,12);
},
{
name = top;
pos = (497,1312);
}
);
layerId = m005;
shapes = (
{
closed = 1;
nodes = (
(337,1054,l),
(527,1054,ls),
(625,1054,o),
(693,1018,o),
(693,896,cs),
(693,882,ls),
(693,762,o),
(625,726,o),
(527,726,cs),
(337,726,l)
);
},
{
closed = 1;
nodes = (
(337,0,l),
(337,480,l),
(519,480,ls),
(727,480,o),
(975,554,o),
(975,876,cs),
(975,902,ls),
(975,1226,o),
(727,1300,o),
(517,1300,cs),
(65,1300,l),
(65,0,l)
);
},
{
closed = 1;
nodes = (
(1033,0,l),
(745,666,l),
(467,666,l),
(737,0,l)
);
}
);
width = 1133;
},
{
anchors = (
{
name = bottom;
pos = (504,0);
},
{
name = top;
pos = (504,1300);
}
);
layerId = "1B8EDE0E-D46F-48F9-B9C6-2CD34FEA95FD";
shapes = (
{
closed = 1;
nodes = (
(286,1146,l),
(494,1146,ls),
(624,1146,o),
(722,1102,o),
(722,932,cs),
(722,931,ls),
(722,761,o),
(630,717,o),
(494,717,cs),
(286,717,l)
);
},
{
closed = 1;
nodes = (
(286,0,l),
(286,563,l),
(488,563,ls),
(696,563,o),
(900,645,o),
(900,925,cs),
(900,936,ls),
(900,1216,o),
(686,1300,o),
(486,1300,cs),
(110,1300,l),
(110,0,l)
);
},
{
closed = 1;
nodes = (
(948,0,l),
(657,621,l),
(475,621,l),
(756,0,l)
);
}
);
width = 1013;
}
);
metricLeft = "=H";
unicode = 82;
},
{
glyphname = S;
lastChange = "2025-11-21 21:00:36 +0000";
layers = (
{
anchors = (
{
name = bottom;
pos = (474,12);
},
{
name = top;
pos = (474,1312);
}
);
layerId = m002;
shapes = (
{
closed = 1;
nodes = (
(734,-24,o),
(908,90,o),
(908,296,cs),
(908,318,ls),
(908,454,o),
(838,572,o),
(648,672,cs),
(488,756,ls),
(410,796,o),
(292,870,o),
(284,950,c),
(284,984,l),
(284,1084,o),
(346,1154,o),
(484,1154,cs),
(592,1154,o),
(690,1084,o),
(698,900,c),
(898,900,l),
(890,1208,o),
(720,1324,o),
(486,1324,cs),
(280,1324,o),
(84,1226,o),
(84,986,c),
(84,950,l),
(86,718,o),
(294,618,o),
(364,584,cs),
(524,504,ls),
(630,450,o),
(714,396,o),
(714,320,c),
(714,302,l),
(714,210,o),
(632,158,o),
(486,158,cs),
(338,158,o),
(250,254,o),
(250,426,c),
(50,426,l),
(50,58,o),
(282,-24,o),
(510,-24,cs)
);
}
);
width = 958;
},
{
anchors = (
{
name = bottom;
pos = (444,0);
},
{
name = top;
pos = (444,1300);
}
);
layerId = m004;
shapes = (
{
closed = 1;
nodes = (
(672,-24,o),
(839,96,o),
(839,290,cs),
(839,322,ls),
(839,518,o),
(670,596,o),
(516,672,cs),
(376,742,ls),
(276,792,o),
(185,848,o),
(185,964,cs),
(185,1004,ls),
(185,1168,o),
(302,1251,o),
(444,1251,cs),
(580,1251,o),
(743,1180,o),
(743,920,c),
(826,920,l),
(826,1198,o),
(638,1324,o),
(446,1324,cs),
(256,1324,o),
(102,1208,o),
(102,1004,cs),
(102,968,ls),
(108,790,o),
(216,726,o),
(336,666,cs),
(476,596,ls),
(604,532,o),
(757,480,o),
(757,320,cs),
(757,296,ls),
(757,166,o),
(638,51,o),
(468,51,cs),
(340,51,o),
(131,92,o),
(131,366,c),
(50,366,l),
(50,78,o),
(238,-24,o),
(468,-24,cs)
);
}
);
width = 889;
},
{
anchors = (
{
name = bottom;
pos = (508,12);
},
{
name = top;
pos = (508,1312);
}
);
layerId = m005;
shapes = (
{
closed = 1;
nodes = (
(760,-12,o),
(964,106,o),
(964,332,cs),
(964,354,ls),
(964,486,o),
(894,600,o),
(692,706,cs),
(532,790,ls),
(486,814,o),
(344,870,o),
(344,944,cs),
(344,960,ls),
(344,1038,o),
(414,1096,o),
(514,1096,cs),
(610,1096,o),
(700,1062,o),
(700,910,c),
(960,910,l),
(960,1238,o),
(772,1336,o),
(516,1336,cs),
(298,1336,o),
(84,1238,o),
(84,980,cs),
(84,938,ls),
(84,704,o),
(306,610,o),
(380,574,cs),
(540,494,ls),
(624,452,o),
(704,406,o),
(704,344,cs),
(704,338,ls),
(704,260,o),
(628,218,o),
(516,218,cs),
(374,218,o),
(288,308,o),
(296,462,c),
(50,462,l),
(44,80,o),
(298,-12,o),
(540,-12,cs)
);
}
);
width = 1014;
},
{
anchors = (
{
name = bottom;
pos = (476,12);
},
{
name = top;
pos = (476,1312);
}
);
layerId = "1B8EDE0E-D46F-48F9-B9C6-2CD34FEA95FD";
shapes = (
{
closed = 1;
nodes = (
(720,-24,o),
(910,86,o),
(910,302,cs),
(910,318,ls),
(910,486,o),
(780,576,o),
(624,664,cs),
(469,752,ls),
(396,793,o),
(260,871,o),
(256,970,c),
(256,1002,l),
(256,1120,o),
(342,1178,o),
(478,1178,cs),
(592,1178,o),
(702,1110,o),
(708,900,c),
(880,900,l),
(874,1208,o),
(700,1324,o),
(480,1324,cs),
(278,1324,o),
(84,1242,o),
(84,1008,c),
(84,977,l),
(84,750,o),
(274,659,o),
(363,609,cs),
(516,523,ls),
(625,462,o),
(738,410,o),
(738,310,c),
(738,298,l),
(738,198,o),
(634,132,o),
(486,132,cs),
(348,132,o),
(224,204,o),
(218,392,c),
(50,392,l),
(52,70,o),
(272,-24,o),
(496,-24,cs)
);
}
);
width = 960;
}
);
metricLeft = "=+50";
metricRight = "=|";
unicode = 83;
},
{
glyphname = T;
lastChange = "2025-11-21 20:58:09 +0000";
layers = (
{
anchors = (
{
name = bottom;
pos = (504,-2);
},
{
name = center;
pos = (504,648);
},
{
name = top;
pos = (504,1298);
}
);
layerId = m002;
shapes = (
{
closed = 1;
nodes = (
(30,1298,l),
(30,1118,l),
(400,1118,l),
(400,2,l),
(608,2,l),
(608,1118,l),
(978,1118,l),
(978,1298,l)
);
}
);
width = 1008;
},
{
anchors = (
{
name = bottom;
pos = (478,0);
},
{
name = center;
pos = (478,650);
},
{
name = top;
pos = (478,1300);
}
);
layerId = m004;
shapes = (
{
closed = 1;
nodes = (
(40,1298,l),
(40,1228,l),
(436,1228,l),
(436,2,l),
(520,2,l),
(520,1228,l),
(916,1228,l),
(916,1298,l)
);
}
);
width = 956;
},
{
anchors = (
{
name = bottom;
pos = (509,0);
},
{
name = center;
pos = (509,650);
},
{
name = top;
pos = (509,1300);
}
);
layerId = m005;
shapes = (
{
closed = 1;
nodes = (
(5,1300,l),
(5,1054,l),
(375,1054,l),
(375,0,l),
(643,0,l),
(643,1054,l),
(1013,1054,l),
(1013,1300,l)
);
}
);
width = 1018;
},
{
anchors = (
{
name = bottom;
pos = (506,-2);
},
{
name = center;
pos = (506,648);
},
{
name = top;
pos = (506,1298);
}
);
layerId = "1B8EDE0E-D46F-48F9-B9C6-2CD34FEA95FD";
shapes = (
{
closed = 1;
nodes = (
(40,1298,l),
(40,1146,l),
(418,1146,l),
(418,2,l),
(594,2,l),
(594,1146,l),
(970,1146,l),
(970,1298,l)
);
}
);
width = 1010;
}
);
metricRight = "=|";
unicode = 84;
},
{
glyphname = U;
lastChange = "2025-11-23 20:43:47 +0000";
layers = (
{
anchors = (
{
name = bottom;
pos = (576,12);
},
{
name = ogonek;
pos = (1060,32);
},
{
name = top;
pos = (576,1312);
},
{
name = topright;
pos = (1142,1312);
}
);
layerId = m002;
shapes = (
{
closed = 1;
nodes = (
(786,-24,o),
(1062,66,o),
(1062,470,cs),
(1062,1300,l),
(854,1300,l),
(854,490,ls),
(854,210,o),
(712,154,o),
(576,156,cs),
(440,158,o),
(298,210,o),
(298,490,cs),
(298,1300,l),
(90,1300,l),
(90,470,ls),
(90,66,o),
(368,-24,o),
(576,-24,cs)
);
}
);
width = 1152;
},
{
anchors = (
{
name = bottom;
pos = (638,0);
},
{
name = ogonek;
pos = (1116,10);
},
{
name = top;
pos = (638,1300);
},
{
name = topright;
pos = (1216,1300);
}
);
layerId = m004;
shapes = (
{
closed = 1;
nodes = (
(912,-24,o),
(1106,164,o),
(1106,430,c),
(1106,1300,l),
(1022,1300,l),
(1022,430,l),
(1022,200,o),
(866,43,o),
(638,46,cs),
(411,49,o),
(254,207,o),
(254,430,c),
(254,1300,l),
(170,1300,l),
(170,430,l),
(170,165,o),
(365,-24,o),
(638,-24,cs)
);
}
);
width = 1276;
},
{
anchors = (
{
name = bottom;
pos = (551,0);
},
{
name = ogonek;
pos = (1051,20);
},
{
name = top;
pos = (551,1300);
},
{
name = topright;
pos = (1137,1300);
}
);
layerId = m005;
shapes = (
{
closed = 1;
nodes = (
(769,-24,o),
(1067,70,o),
(1067,454,cs),
(1067,1300,l),
(799,1300,l),
(799,522,ls),
(799,272,o),
(679,222,o),
(551,224,cs),
(423,226,o),
(303,274,o),
(303,522,cs),
(303,1300,l),
(35,1300,l),
(35,454,ls),
(35,70,o),
(335,-24,o),
(551,-24,cs)
);
}
);
width = 1102;
},
{
anchors = (
{
name = bottom;
pos = (624,0);
},
{
name = ogonek;
pos = (1094,20);
},
{
name = top;
pos = (624,1300);
},
{
name = topright;
pos = (1172,1300);
}
);
layerId = "1B8EDE0E-D46F-48F9-B9C6-2CD34FEA95FD";
shapes = (
{
closed = 1;
nodes = (
(822,-24,o),
(1098,72,o),
(1098,476,c),
(1098,1300,l),
(922,1300,l),
(922,490,l),
(922,198,o),
(760,130,o),
(624,130,cs),
(484,132,o),
(328,198,o),
(328,490,c),
(328,1300,l),
(150,1300,l),
(150,476,l),
(150,72,o),
(428,-24,o),
(624,-24,cs)
);
}
);
width = 1248;
}
);
metricRight = "=|";
unicode = 85;
},
{
glyphname = V;
lastChange = "2025-11-21 20:58:09 +0000";
layers = (
{
anchors = (
{
name = bottom;
pos = (567,0);
},
{
name = top;
pos = (567,1300);
}
);
layerId = m002;
shapes = (
{
closed = 1;
nodes = (
(661,0,l),
(1109,1300,l),
(891,1300,l),
(533,202,l),
(613,202,l),
(249,1300,l),
(25,1300,l),
(473,0,l)
);
}
);
width = 1134;
},
{
anchors = (
{
name = bottom;
pos = (546,0);
},
{
name = top;
pos = (546,1300);
}
);
layerId = m004;
shapes = (
{
closed = 1;
nodes = (
(593,0,l),
(1027,1300,l),
(947,1302,l),
(527,36,l),
(565,36,l),
(147,1300,l),
(65,1300,l),
(499,0,l)
);
}
);
width = 1092;
},
{
anchors = (
{
name = bottom;
pos = (577,0);
},
{
name = top;
pos = (577,1300);
}
);
layerId = m005;
shapes = (
{
closed = 1;
nodes = (
(693,0,l),
(1159,1300,l),
(877,1300,l),
(505,178,l),
(655,178,l),
(277,1300,l),
(-5,1300,l),
(461,0,l)
);
}
);
width = 1154;
},
{
anchors = (
{
name = bottom;
pos = (563,0);
},
{
name = top;
pos = (563,1300);
}
);
layerId = "1B8EDE0E-D46F-48F9-B9C6-2CD34FEA95FD";
shapes = (
{
closed = 1;
nodes = (
(645,0,l),
(1089,1300,l),
(909,1300,l),
(533,160,l),
(599,160,l),
(219,1300,l),
(35,1300,l),
(479,0,l)
);
}
);
width = 1124;
}
);
metricRight = "=|";
unicode = 86;
},
{
glyphname = W;
lastChange = "2025-11-21 20:58:09 +0000";
layers = (
{
anchors = (
{
name = bottom;
pos = (837,0);
},
{
name = top;
pos = (837,1300);
}
);
layerId = m002;
shapes = (
{
closed = 1;
nodes = (
(391,0,l),
(569,0,l),
(867,1076,l),
(795,1074,l),
(1087,0,l),
(1277,0,l),
(1647,1300,l),
(1435,1300,l),
(1139,190,l),
(1253,190,l),
(949,1300,l),
(723,1300,l),
(431,190,l),
(543,190,l),
(247,1300,l),
(25,1300,l)
);
}
);
width = 1672;
},
{
anchors = (
{
name = bottom;
pos = (857,0);
},
{
name = top;
pos = (857,1300);
}
);
layerId = m004;
shapes = (
{
closed = 1;
nodes = (
(461,0,l),
(555,0,l),
(873,1260,l),
(827,1258,l),
(1171,0,l),
(1263,0,l),
(1649,1300,l),
(1567,1300,l),
(1187,8,l),
(1247,8,l),
(895,1300,l),
(807,1300,l),
(479,16,l),
(529,18,l),
(147,1300,l),
(65,1300,l)
);
}
);
width = 1714;
},
{
anchors = (
{
name = bottom;
pos = (845,0);
},
{
name = top;
pos = (845,1300);
}
);
layerId = m005;
shapes = (
{
closed = 1;
nodes = (
(375,0,l),
(601,0,l),
(913,1102,l),
(767,1096,l),
(1071,0,l),
(1309,0,l),
(1693,1300,l),
(1405,1300,l),
(1095,166,l),
(1299,166,l),
(981,1300,l),
(707,1300,l),
(403,166,l),
(589,166,l),
(279,1300,l),
(-5,1300,l)
);
}
);
width = 1688;
},
{
anchors = (
{
name = bottom;
pos = (841,0);
},
{
name = top;
pos = (841,1300);
}
);
layerId = "1B8EDE0E-D46F-48F9-B9C6-2CD34FEA95FD";
shapes = (
{
closed = 1;
nodes = (
(401,0,l),
(551,0,l),
(873,1120,l),
(801,1118,l),
(1123,0,l),
(1277,0,l),
(1645,1300,l),
(1467,1300,l),
(1158,146,l),
(1254,146,l),
(937,1300,l),
(745,1300,l),
(434,146,l),
(528,146,l),
(219,1300,l),
(35,1300,l)
);
}
);
width = 1680;
}
);
metricLeft = "=V";
metricRight = "=|";
unicode = 87;
},
{
glyphname = X;
lastChange = "2025-11-21 20:58:09 +0000";
layers = (
{
anchors = (
{
name = bottom;
pos = (535,-1);
},
{
name = top;
pos = (535,1299);
}
);
layerId = m002;
shapes = (
{
closed = 1;
nodes = (
(1045,1,l),
(265,1299,l),
(25,1299,l),
(807,1,l)
);
},
{
closed = 1;
nodes = (
(607,553,l),
(1045,1299,l),
(805,1299,l),
(483,747,l)
);
},
{
closed = 1;
nodes = (
(263,1,l),
(587,553,l),
(463,747,l),
(25,1,l)
);
}
);
width = 1070;
},
{
anchors = (
{
name = bottom;
pos = (506,0);
},
{
name = top;
pos = (506,1300);
}
);
layerId = m004;
shapes = (
{
closed = 1;
nodes = (
(947,1,l),
(157,1299,l),
(65,1299,l),
(857,1,l)
);
},
{
closed = 1;
nodes = (
(545,621,l),
(947,1299,l),
(861,1299,l),
(501,693,l)
);
},
{
closed = 1;
nodes = (
(161,1,l),
(529,621,l),
(487,693,l),
(75,1,l)
);
}
);
width = 1012;
},
{
anchors = (
{
name = bottom;
pos = (568,0);
},
{
name = top;
pos = (568,1300);
}
);
layerId = m005;
shapes = (
{
closed = 1;
nodes = (
(1126,0,l),
(326,1300,l),
(10,1300,l),
(812,0,l)
);
},
{
closed = 1;
nodes = (
(632,506,l),
(1116,1306,l),
(818,1306,l),
(480,754,l)
);
},
{
closed = 1;
nodes = (
(306,0,l),
(646,554,l),
(494,802,l),
(10,0,l)
);
}
);
width = 1136;
},
{
anchors = (
{
name = bottom;
pos = (557,-1);
},
{
name = top;
pos = (557,1299);
}
);
layerId = "1B8EDE0E-D46F-48F9-B9C6-2CD34FEA95FD";
shapes = (
{
closed = 1;
nodes = (
(1071,1,l),
(265,1299,l),
(63,1299,l),
(869,1,l)
);
},
{
closed = 1;
nodes = (
(627,597,l),
(1059,1299,l),
(857,1299,l),
(519,747,l)
);
},
{
closed = 1;
nodes = (
(241,1,l),
(607,597,l),
(499,747,l),
(41,1,l)
);
}
);
width = 1112;
}
);
metricRight = "=|";
unicode = 88;
},
{
glyphname = Y;
lastChange = "2025-11-21 20:58:09 +0000";
layers = (
{
anchors = (
{
name = bottom;
pos = (527,0);
},
{
name = top;
pos = (527,1300);
},
{
name = topleft;
pos = (35,1300);
}
);
layerId = m002;
shapes = (
{
closed = 1;
nodes = (
(423,532,l),
(423,0,l),
(631,0,l),
(631,532,l),
(1029,1300,l),
(823,1300,l),
(483,634,l),
(569,634,l),
(241,1300,l),
(25,1300,l)
);
}
);
width = 1054;
},
{
anchors = (
{
name = bottom;
pos = (496,0);
},
{
name = top;
pos = (496,1300);
},
{
name = topleft;
pos = (70,1300);
}
);
layerId = m004;
shapes = (
{
closed = 1;
nodes = (
(453,538,l),
(453,0,l),
(537,0,l),
(537,538,l),
(927,1300,l),
(839,1300,l),
(463,568,l),
(527,568,l),
(153,1300,l),
(65,1300,l)
);
}
);
width = 992;
},
{
anchors = (
{
name = bottom;
pos = (541,0);
},
{
name = top;
pos = (541,1300);
},
{
name = topleft;
pos = (45,1300);
}
);
layerId = m005;
shapes = (
{
closed = 1;
nodes = (
(407,528,l),
(407,0,l),
(675,0,l),
(675,528,l),
(1087,1300,l),
(809,1300,l),
(445,610,l),
(627,610,l),
(275,1300,l),
(-5,1300,l)
);
}
);
width = 1082;
},
{
anchors = (
{
name = bottom;
pos = (519,0);
},
{
name = top;
pos = (519,1300);
},
{
name = topleft;
pos = (45,1300);
}
);
layerId = "1B8EDE0E-D46F-48F9-B9C6-2CD34FEA95FD";
shapes = (
{
closed = 1;
nodes = (
(431,524,l),
(431,0,l),
(607,0,l),
(607,524,l),
(1003,1300,l),
(827,1300,l),
(477,608,l),
(561,608,l),
(219,1300,l),
(35,1300,l)
);
}
);
width = 1038;
}
);
metricLeft = V;
metricRight = "=|";
unicode = 89;
},
{
glyphname = Z;
lastChange = "2025-11-21 21:00:36 +0000";
layers = (
{
anchors = (
{
name = bottom;
pos = (499,0);
},
{
name = center;
pos = (499,650);
},
{
name = top;
pos = (499,1300);
}
);
layerId = m002;
shapes = (
{
closed = 1;
nodes = (
(55,170,l),
(55,0,l),
(943,0,l),
(943,180,l),
(315,180,l),
(943,1130,l),
(943,1300,l),
(55,1300,l),
(55,1120,l),
(685,1120,l)
);
}
);
width = 998;
},
{
anchors = (
{
name = bottom;
pos = (469,0);
},
{
name = center;
pos = (469,650);
},
{
name = top;
pos = (469,1300);
}
);
layerId = m004;
shapes = (
{
closed = 1;
nodes = (
(55,68,l),
(55,0,l),
(883,0,l),
(883,72,l),
(159,72,l),
(883,1232,l),
(883,1300,l),
(55,1300,l),
(55,1228,l),
(783,1228,l)
);
}
);
width = 938;
},
{
anchors = (
{
name = bottom;
pos = (529,0);
},
{
name = center;
pos = (529,650);
},
{
name = top;
pos = (529,1300);
}
);
layerId = m005;
shapes = (
{
closed = 1;
nodes = (
(55,180,l),
(55,0,l),
(1003,0,l),
(1003,246,l),
(409,246,l),
(1003,1120,l),
(1003,1300,l),
(55,1300,l),
(55,1054,l),
(651,1054,l)
);
}
);
width = 1058;
},
{
anchors = (
{
name = bottom;
pos = (481,0);
},
{
name = center;
pos = (481,650);
},
{
name = top;
pos = (481,1300);
}
);
layerId = "1B8EDE0E-D46F-48F9-B9C6-2CD34FEA95FD";
shapes = (
{
closed = 1;
nodes = (
(55,136,l),
(55,0,l),
(907,0,l),
(907,154,l),
(269,154,l),
(907,1164,l),
(907,1300,l),
(55,1300,l),
(55,1146,l),
(693,1146,l)
);
}
);
width = 962;
}
);
metricLeft = "=55";
metricRight = "=|";
unicode = 90;
},
{
glyphname = a;
lastChange = "2025-11-23 10:45:56 +0000";
layers = (
{
anchors = (
{
name = bottom;
pos = (468,0);
},
{
name = ogonek;
pos = (866,20);
},
{
name = top;
pos = (468,900);
}
);
background = {
shapes = (
{
closed = 0;
nodes = (
(376,-24,ls),
(522,-24,o),
(584,2,o),
(654,84,c)
);
}
);
};
layerId = m002;
shapes = (
{
closed = 1;
nodes = (
(372,566,ls),
(126,566,o),
(50,414,o),
(50,263,cs),
(50,123,o),
(140,-24,o),
(376,-24,cs),
(522,-24,o),
(570,-2,o),
(640,80,c),
(630,368,l),
(630,190,o),
(504,144,o),
(420,144,cs),
(322,144,o),
(240,189,o),
(240,269,cs),
(240,346,o),
(302,402,o),
(438,402,c),
(630,402,l),
(630,566,l)
);
},
{
closed = 1;
nodes = (
(836,0,l),
(837,650,ls),
(837,878,o),
(616,954,o),
(460,954,cs),
(263,954,o),
(111,831,o),
(96,658,c),
(288,658,l),
(310,758,o),
(378,780,o),
(460,780,cs),
(514,780,o),
(630,768,o),
(630,646,cs),
(628,80,l),
(640,80,l),
(660,80,l),
(680,0,l)
);
}
);
width = 920;
},
{
anchors = (
{
name = bottom;
pos = (422,0);
},
{
name = ogonek;
pos = (757,10);
},
{
name = top;
pos = (422,900);
}
);
layerId = m004;
shapes = (
{
closed = 1;
nodes = (
(421,564,ls),
(203,564,o),
(75,483,o),
(75,277,cs),
(75,76,o),
(195,-24,o),
(383,-24,cs),
(545,-24,o),
(625,48,o),
(677,128,c),
(677,314,l),
(677,200,o),
(583,44,o),
(383,44,cs),
(249,44,o),
(155,116,o),
(155,279,cs),
(155,454,o),
(273,492,o),
(433,492,c),
(677,492,l),
(677,564,l)
);
},
{
closed = 1;
nodes = (
(756,0,l),
(758,658,l),
(758,832,o),
(628,954,o),
(441,954,cs),
(262,954,o),
(123,841,o),
(123,696,c),
(203,696,l),
(203,802,o),
(305,882,o),
(441,882,cs),
(584,882,o),
(677,793,o),
(677,656,cs),
(677,138,l),
(657,100,l),
(677,100,l),
(697,0,l)
);
}
);
width = 873;
},
{
anchors = (
{
name = bottom;
pos = (463,12);
},
{
name = ogonek;
pos = (861,32);
},
{
name = top;
pos = (463,912);
}
);
layerId = m005;
shapes = (
{
closed = 1;
nodes = (
(447,567,ls),
(140,567,o),
(35,413,o),
(35,259,cs),
(35,88,o),
(165,-23,o),
(371,-23,cs),
(517,-23,o),
(579,42,o),
(649,124,c),
(603,369,l),
(603,181,o),
(499,169,o),
(415,169,cs),
(347,169,o),
(295,211,o),
(295,271,cs),
(295,353,o),
(347,379,o),
(453,379,cs),
(625,379,l),
(625,567,l)
);
},
{
closed = 1;
nodes = (
(861,0,l),
(863,627,ls),
(864,855,o),
(666,955,o),
(465,955,cs),
(263,955,o),
(95,855,o),
(59,611,c),
(309,611,l),
(311,711,o),
(397,733,o),
(459,733,cs),
(507,733,o),
(603,725,o),
(603,623,cs),
(603,181,l),
(628,100,l),
(648,100,l),
(678,0,l)
);
}
);
width = 963;
},
{
anchors = (
{
name = bottom;
pos = (484,12);
},
{
name = ogonek;
pos = (870,32);
},
{
name = top;
pos = (484,912);
}
);
layerId = "1B8EDE0E-D46F-48F9-B9C6-2CD34FEA95FD";
shapes = (
{
closed = 1;
nodes = (
(408,560,ls),
(160,560,o),
(80,416,o),
(80,275,cs),
(80,96,o),
(210,-24,o),
(406,-24,cs),
(515,-24,o),
(618,18,o),
(664,80,c),
(666,336,l),
(666,172,o),
(544,120,o),
(436,120,cs),
(332,120,o),
(244,169,o),
(244,279,cs),
(244,348,o),
(306,420,o),
(456,420,c),
(666,420,l),
(666,560,l)
);
},
{
closed = 1;
nodes = (
(834,0,l),
(836,632,ls),
(837,830,o),
(669,954,o),
(480,954,cs),
(298,954,o),
(140,838,o),
(122,668,c),
(292,668,l),
(303,744,o),
(375,794,o),
(480,794,cs),
(598,794,o),
(666,729,o),
(666,614,cs),
(664,106,l),
(664,80,l),
(684,80,l),
(704,0,l)
);
}
);
width = 938;
}
);
metricRight = "=n";
unicode = 97;
},
{
glyphname = b;
lastChange = "2025-11-24 21:37:33 +0000";
layers = (
{
anchors = (
{
name = bottom;
pos = (459,-650);
},
{
name = center;
pos = (207,438);
},
{
name = top;
pos = (459,250);
}
);
layerId = m002;
shapes = (
{
closed = 1;
nodes = (
(239,0,l),
(259,80,l),
(279,80,l),
(291,80,l),
(291,1360,l),
(83,1360,l),
(83,0,l)
);
},
{
closed = 1;
nodes = (
(679,-24,o),
(883,70,o),
(883,390,cs),
(883,540,ls),
(883,858,o),
(675,954,o),
(519,954,cs),
(345,954,o),
(213,858,o),
(205,600,c),
(291,600,l),
(299,732,o),
(391,778,o),
(477,778,cs),
(563,778,o),
(683,732,o),
(683,540,cs),
(683,390,ls),
(683,200,o),
(563,152,o),
(477,152,cs),
(391,152,o),
(299,200,o),
(291,330,c),
(191,330,l),
(224,78,o),
(335,-24,o),
(505,-24,cs)
);
}
);
width = 933;
},
{
anchors = (
{
name = bottom;
pos = (466,0);
},
{
name = center;
pos = (249,1088);
},
{
name = top;
pos = (466,900);
}
);
layerId = m004;
shapes = (
{
closed = 1;
nodes = (
(175,0,l),
(195,100,l),
(215,100,l),
(195,168,l),
(195,1360,l),
(115,1360,l),
(115,0,l)
);
},
{
closed = 1;
nodes = (
(633,-24,o),
(841,80,o),
(839,362,cs),
(838,568,ls),
(836,796,o),
(703,954,o),
(499,954,cs),
(296,954,o),
(148,792,o),
(143,548,c),
(195,546,l),
(200,748,o),
(322,882,o),
(499,882,cs),
(653,882,o),
(757,756,o),
(758,566,cs),
(759,364,ls),
(760,110,o),
(593,48,o),
(479,48,cs),
(299,48,o),
(201,150,o),
(195,404,c),
(141,402,l),
(147,116,o),
(255,-24,o),
(479,-24,cs)
);
}
);
width = 927;
},
{
anchors = (
{
name = bottom;
pos = (512,-662);
},
{
name = center;
pos = (256,426);
},
{
name = top;
pos = (512,238);
}
);
background = {
shapes = (
{
closed = 1;
nodes = (
(759,-24,o),
(960,76,o),
(960,414,cs),
(960,486,ls),
(960,822,o),
(767,924,o),
(588,924,cs),
(371,924,o),
(300,774,o),
(268,486,c),
(368,486,l),
(366,658,o),
(465,700,o),
(543,700,cs),
(619,700,o),
(700,650,o),
(700,486,cs),
(700,414,ls),
(700,252,o),
(619,200,o),
(543,200,cs),
(465,200,o),
(366,244,o),
(368,414,c),
(288,414,l),
(288,132,o),
(366,-24,o),
(583,-24,cs)
);
}
);
};
layerId = m005;
shapes = (
{
closed = 1;
nodes = (
(304,0,l),
(334,100,l),
(354,100,l),
(368,100,l),
(368,1360,l),
(100,1360,l),
(100,0,l)
);
},
{
closed = 1;
nodes = (
(767,-24,o),
(960,78,o),
(960,414,cs),
(960,516,ls),
(960,854,o),
(759,954,o),
(583,954,cs),
(366,954,o),
(288,798,o),
(288,536,c),
(368,536,l),
(366,686,o),
(465,730,o),
(543,730,cs),
(619,730,o),
(700,678,o),
(700,536,cs),
(700,394,ls),
(700,250,o),
(619,200,o),
(543,200,cs),
(465,200,o),
(366,242,o),
(368,394,c),
(273,394,l),
(305,126,o),
(371,-24,o),
(588,-24,cs)
);
}
);
width = 1030;
},
{
anchors = (
{
name = bottom;
pos = (466,0);
},
{
name = center;
pos = (222,1088);
},
{
name = top;
pos = (466,900);
}
);
layerId = "1B8EDE0E-D46F-48F9-B9C6-2CD34FEA95FD";
shapes = (
{
closed = 1;
nodes = (
(228,0,l),
(248,80,l),
(268,80,l),
(278,80,l),
(278,1360,l),
(102,1360,l),
(102,0,l)
);
},
{
closed = 1;
nodes = (
(736,-24,o),
(882,136,o),
(882,384,cs),
(882,542,ls),
(882,787,o),
(735,954,o),
(520,954,cs),
(318,954,o),
(207,827,o),
(200,586,c),
(278,586,l),
(278,722,o),
(361,804,o),
(488,804,cs),
(622,804,o),
(712,711,o),
(712,572,cs),
(712,364,ls),
(712,211,o),
(632,126,o),
(488,126,cs),
(362,126,o),
(285,204,o),
(278,338,c),
(190,338,l),
(194,108,o),
(311,-24,o),
(510,-24,cs)
);
}
);
width = 962;
}
);
metricLeft = n;
metricRight = o;
unicode = 98;
},
{
glyphname = c;
lastChange = "2025-11-24 21:37:33 +0000";
layers = (
{
anchors = (
{
name = bottom;
pos = (446,0);
},
{
name = top;
pos = (446,900);
}
);
layerId = m002;
shapes = (
{
closed = 1;
nodes = (
(638,-24,o),
(834,72,o),
(842,330,c),
(642,330,l),
(634,198,o),
(542,152,o),
(456,152,cs),
(370,152,o),
(250,198,o),
(250,390,cs),
(250,540,ls),
(250,730,o),
(370,778,o),
(456,778,cs),
(542,778,o),
(634,730,o),
(642,600,c),
(842,600,l),
(834,856,o),
(618,954,o),
(456,954,cs),
(274,954,o),
(50,860,o),
(50,540,cs),
(50,390,ls),
(50,72,o),
(274,-24,o),
(456,-24,cs)
);
}
);
width = 892;
},
{
anchors = (
{
name = bottom;
pos = (448,0);
},
{
name = top;
pos = (448,900);
}
);
layerId = m004;
shapes = (
{
closed = 1;
nodes = (
(618,-24,o),
(802,72,o),
(808,282,c),
(728,282,l),
(722,100,o),
(578,46,o),
(458,46,cs),
(328,46,o),
(174,110,o),
(168,364,cs),
(170,546,ls),
(174,820,o),
(328,884,o),
(458,884,cs),
(578,884,o),
(722,822,o),
(728,628,c),
(808,628,l),
(802,850,o),
(618,954,o),
(458,954,cs),
(288,954,o),
(94,854,o),
(90,548,cs),
(88,362,ls),
(94,76,o),
(288,-24,o),
(458,-24,cs)
);
}
);
width = 896;
},
{
anchors = (
{
name = bottom;
pos = (496,12);
},
{
name = top;
pos = (496,912);
}
);
layerId = m005;
shapes = (
{
closed = 1;
nodes = (
(758,-24,o),
(925,131,o),
(922,360,c),
(662,360,l),
(664,278,o),
(600,222,o),
(506,222,cs),
(398,222,o),
(330,297,o),
(330,414,cs),
(330,516,ls),
(330,632,o),
(399,708,o),
(506,708,cs),
(601,708,o),
(664,647,o),
(662,556,c),
(922,556,l),
(927,788,o),
(754,954,o),
(506,954,cs),
(247,954,o),
(70,776,o),
(70,516,cs),
(70,414,ls),
(70,150,o),
(243,-24,o),
(506,-24,cs)
);
}
);
width = 992;
},
{
anchors = (
{
name = bottom;
pos = (468,0);
},
{
name = top;
pos = (468,900);
}
);
background = {
shapes = (
{
closed = 1;
nodes = (
(250,566,ls),
(250,692,o),
(339,794,o),
(478,794,cs),
(617,794,o),
(704,692,o),
(706,612,c),
(872,612,l),
(874,790,o),
(717,954,o),
(478,954,cs),
(238,954,o),
(80,789,o),
(80,566,cs),
(80,483,l),
(250,490,l)
);
}
);
};
layerId = "1B8EDE0E-D46F-48F9-B9C6-2CD34FEA95FD";
shapes = (
{
closed = 1;
nodes = (
(717,-24,o),
(867,134,o),
(864,318,c),
(696,318,l),
(694,238,o),
(627,136,o),
(478,136,cs),
(339,136,o),
(250,238,o),
(250,364,cs),
(250,562,ls),
(250,693,o),
(339,795,o),
(478,795,cs),
(616,795,o),
(694,692,o),
(696,612,c),
(863,612,l),
(864,790,o),
(714,954,o),
(478,954,cs),
(240,954,o),
(80,788,o),
(80,562,cs),
(80,364,ls),
(80,141,o),
(238,-24,o),
(478,-24,cs)
);
}
);
width = 944;
}
);
metricLeft = o;
metricRight = "=|";
unicode = 99;
},
{
glyphname = d;
lastChange = "2025-11-24 21:37:33 +0000";
layers = (
{
anchors = (
{
name = bottom;
pos = (467,0);
},
{
name = center;
pos = (700,1088);
},
{
name = top;
pos = (467,930);
},
{
name = topright;
pos = (850,1360);
}
);
layerId = m002;
shapes = (
{
closed = 1;
nodes = (
(850,0,l),
(850,1360,l),
(642,1360,l),
(642,80,l),
(654,80,l),
(674,80,l),
(694,0,l)
);
},
{
closed = 1;
nodes = (
(598,-24,o),
(709,78,o),
(742,330,c),
(642,330,l),
(634,200,o),
(542,152,o),
(456,152,cs),
(370,152,o),
(250,200,o),
(250,390,cs),
(250,540,ls),
(250,732,o),
(370,778,o),
(456,778,cs),
(542,778,o),
(634,732,o),
(642,600,c),
(728,600,l),
(720,858,o),
(588,954,o),
(414,954,cs),
(258,954,o),
(50,858,o),
(50,540,cs),
(50,390,ls),
(50,70,o),
(254,-24,o),
(428,-24,cs)
);
}
);
width = 933;
},
{
anchors = (
{
name = bottom;
pos = (465,0);
},
{
name = center;
pos = (686,1088);
},
{
name = top;
pos = (465,930);
},
{
name = topright;
pos = (812,1360);
}
);
background = {
shapes = (
{
closed = 0;
nodes = (
(69,362,ls),
(71,134,o),
(204,-24,o),
(408,-24,cs),
(611,-24,o),
(759,138,o),
(764,382,c),
(712,384,l),
(707,182,o),
(585,48,o),
(408,48,cs),
(254,48,o),
(150,174,o),
(149,364,cs)
);
}
);
};
layerId = m004;
shapes = (
{
closed = 1;
nodes = (
(812,0,l),
(812,1360,l),
(732,1360,l),
(732,168,l),
(712,100,l),
(732,100,l),
(752,0,l)
);
},
{
closed = 1;
nodes = (
(672,-24,o),
(780,116,o),
(786,402,c),
(732,404,l),
(726,150,o),
(628,48,o),
(448,48,cs),
(334,48,o),
(167,110,o),
(168,364,cs),
(169,566,ls),
(170,756,o),
(274,882,o),
(428,882,cs),
(605,882,o),
(727,748,o),
(732,546,c),
(784,548,l),
(779,792,o),
(631,954,o),
(428,954,cs),
(224,954,o),
(91,796,o),
(89,568,cs),
(88,362,ls),
(86,80,o),
(294,-24,o),
(448,-24,cs)
);
}
);
width = 927;
},
{
anchors = (
{
name = bottom;
pos = (536,0);
},
{
name = center;
pos = (783,1088);
},
{
name = top;
pos = (536,930);
},
{
name = topright;
pos = (930,1360);
}
);
layerId = m005;
shapes = (
{
closed = 1;
nodes = (
(930,0,l),
(930,1360,l),
(662,1360,l),
(662,100,l),
(676,100,l),
(696,100,l),
(726,0,l)
);
},
{
closed = 1;
nodes = (
(659,-24,o),
(725,126,o),
(757,394,c),
(662,394,l),
(664,242,o),
(565,200,o),
(487,200,cs),
(411,200,o),
(330,250,o),
(330,394,cs),
(330,536,ls),
(330,678,o),
(411,730,o),
(487,730,cs),
(565,730,o),
(664,686,o),
(662,536,c),
(742,536,l),
(742,798,o),
(664,954,o),
(447,954,cs),
(271,954,o),
(70,854,o),
(70,516,cs),
(70,414,ls),
(70,78,o),
(263,-24,o),
(442,-24,cs)
);
}
);
width = 1030;
},
{
anchors = (
{
name = bottom;
pos = (458,0);
},
{
name = center;
pos = (698,1088);
},
{
name = top;
pos = (458,930);
},
{
name = topright;
pos = (860,1360);
}
);
background = {
shapes = (
{
closed = 0;
nodes = (
(796,1360,l),
(620,1360,l)
);
}
);
};
layerId = "1B8EDE0E-D46F-48F9-B9C6-2CD34FEA95FD";
shapes = (
{
closed = 1;
nodes = (
(860,0,l),
(860,1360,l),
(684,1360,l),
(684,80,l),
(694,80,l),
(714,80,l),
(734,0,l)
);
},
{
closed = 1;
nodes = (
(651,-24,o),
(768,108,o),
(772,338,c),
(684,338,l),
(677,204,o),
(600,126,o),
(474,126,cs),
(330,126,o),
(250,211,o),
(250,364,cs),
(250,572,ls),
(250,711,o),
(340,804,o),
(474,804,cs),
(601,804,o),
(684,722,o),
(684,586,c),
(762,586,l),
(755,827,o),
(644,954,o),
(442,954,cs),
(227,954,o),
(80,787,o),
(80,542,cs),
(80,384,ls),
(80,136,o),
(226,-24,o),
(452,-24,cs)
);
}
);
width = 962;
}
);
metricLeft = "=|b";
metricRight = "=|b";
unicode = 100;
},
{
glyphname = e;
lastChange = "2025-11-24 21:37:33 +0000";
layers = (
{
anchors = (
{
name = bottom;
pos = (456,0);
},
{
name = ogonek;
pos = (821,10);
},
{
name = top;
pos = (456,930);
}
);
background = {
anchors = (
{
name = bottom;
pos = (212,0);
},
{
name = top;
pos = (212,450);
}
);
shapes = (
{
closed = 1;
nodes = (
(336,165,l),
(332,99,o),
(286,76,o),
(243,76,cs),
(200,76,o),
(140,99,o),
(140,195,cs),
(140,255,ls),
(140,350,o),
(200,374,o),
(243,374,cs),
(286,374,o),
(332,350,o),
(336,285,c),
(436,285,l),
(432,413,o),
(324,462,o),
(243,462,cs),
(152,462,o),
(40,415,o),
(40,255,cs),
(40,195,ls),
(40,36,o),
(152,-12,o),
(243,-12,cs),
(334,-12,o),
(432,36,o),
(436,165,c)
);
}
);
};
layerId = m002;
shapes = (
{
closed = 1;
nodes = (
(862,414,l),
(862,540,l),
(796,572,l),
(110,572,l),
(110,414,l)
);
},
{
closed = 1;
nodes = (
(692,-24,o),
(850,110,o),
(856,290,c),
(656,290,l),
(644,204,o),
(562,152,o),
(476,152,cs),
(370,152,o),
(250,236,o),
(250,420,cs),
(250,540,ls),
(250,730,o),
(370,778,o),
(456,778,cs),
(542,778,o),
(664,730,o),
(662,540,c),
(702,540,l),
(786,540,l),
(862,540,l),
(862,856,o),
(618,954,o),
(456,954,cs),
(274,954,o),
(50,860,o),
(50,540,cs),
(50,390,ls),
(50,72,o),
(274,-24,o),
(476,-24,cs)
);
}
);
width = 912;
},
{
anchors = (
{
name = bottom;
pos = (448,0);
},
{
name = ogonek;
pos = (806,10);
},
{
name = top;
pos = (448,930);
}
);
layerId = m004;
shapes = (
{
closed = 1;
nodes = (
(808,429,l),
(808,501,l),
(728,501,l),
(102,501,l),
(102,429,l)
);
},
{
closed = 1;
nodes = (
(657,-24,o),
(803,103,o),
(808,282,c),
(728,282,l),
(723,138,o),
(619,48,o),
(458,48,cs),
(274,48,o),
(166,166,o),
(168,364,cs),
(170,536,ls),
(172,769,o),
(267,882,o),
(458,882,cs),
(644,882,o),
(728,774,o),
(728,536,cs),
(728,491,l),
(808,491,l),
(808,536,ls),
(808,806,o),
(684,954,o),
(458,954,cs),
(228,954,o),
(92,800,o),
(90,538,cs),
(88,362,ls),
(86,133,o),
(236,-24,o),
(458,-24,cs)
);
}
);
width = 896;
},
{
anchors = (
{
name = bottom;
pos = (496,0);
},
{
name = ogonek;
pos = (859,10);
},
{
name = top;
pos = (496,930);
}
);
layerId = m005;
shapes = (
{
closed = 1;
nodes = (
(922,408,l),
(922,492,l),
(834,586,l),
(130,586,l),
(130,408,l)
);
},
{
closed = 1;
nodes = (
(739,-24,o),
(910,124,o),
(916,316,c),
(656,316,l),
(644,252,o),
(596,203,o),
(495,203,cs),
(401,203,o),
(328,286,o),
(328,408,cs),
(328,587,ls),
(328,676,o),
(392,730,o),
(495,730,cs),
(596,730,o),
(662,673,o),
(662,587,c),
(662,439,l),
(922,439,l),
(922,492,l),
(931,769,o),
(754,954,o),
(495,954,cs),
(238,954,o),
(70,775,o),
(70,516,cs),
(70,414,ls),
(70,78,o),
(315,-24,o),
(495,-24,cs)
);
}
);
width = 992;
},
{
anchors = (
{
name = bottom;
pos = (475,0);
},
{
name = ogonek;
pos = (855,10);
},
{
name = top;
pos = (475,930);
}
);
background = {
shapes = (
{
closed = 0;
nodes = (
(700,493,l)
);
}
);
};
layerId = "1B8EDE0E-D46F-48F9-B9C6-2CD34FEA95FD";
shapes = (
{
closed = 1;
nodes = (
(870,382,l),
(870,534,l),
(800,538,l),
(222,538,l),
(222,382,l)
);
},
{
closed = 1;
nodes = (
(681,-24,o),
(840,100,o),
(850,268,c),
(684,268,l),
(665,169,o),
(574,126,o),
(488,126,cs),
(380,126,o),
(240,172,o),
(240,384,cs),
(240,542,ls),
(240,752,o),
(380,804,o),
(478,804,cs),
(584,804,o),
(700,742,o),
(700,534,c),
(700,493,l),
(870,493,l),
(870,534,l),
(868,790,o),
(715,954,o),
(478,954,cs),
(241,954,o),
(80,788,o),
(80,542,cs),
(80,384,ls),
(80,74,o),
(298,-24,o),
(492,-24,cs)
);
}
);
width = 950;
}
);
metricLeft = o;
metricRight = "=o";
unicode = 101;
},
{
glyphname = f;
lastChange = "2025-11-21 20:58:09 +0000";
layers = (
{
anchors = (
{
name = bottom;
pos = (313,0);
},
{
name = top;
pos = (313,1360);
}
);
layerId = m002;
shapes = (
{
closed = 1;
nodes = (
(389,0,l),
(389,758,l),
(621,758,l),
(621,930,l),
(389,930,l),
(389,1092,ls),
(389,1144,o),
(409,1174,o),
(475,1174,cs),
(621,1174,l),
(621,1360,l),
(415,1360,ls),
(269,1360,o),
(177,1296,o),
(177,1122,cs),
(177,930,l),
(45,930,l),
(45,758,l),
(177,758,l),
(177,0,l)
);
}
);
width = 671;
},
{
anchors = (
{
name = bottom;
pos = (274,0);
},
{
name = top;
pos = (274,1360);
}
);
layerId = m004;
shapes = (
{
closed = 1;
nodes = (
(275,0,l),
(275,858,l),
(493,858,l),
(493,930,l),
(275,930,l),
(275,1172,ls),
(275,1276,o),
(313,1288,o),
(373,1288,cs),
(493,1288,l),
(493,1359,l),
(373,1359,ls),
(259,1359,o),
(195,1319,o),
(195,1193,cs),
(195,930,l),
(65,930,l),
(65,858,l),
(195,858,l),
(195,0,l)
);
}
);
width = 518;
},
{
anchors = (
{
name = bottom;
pos = (318,0);
},
{
name = top;
pos = (318,1360);
}
);
layerId = m005;
shapes = (
{
closed = 1;
nodes = (
(424,0,l),
(424,710,l),
(626,710,l),
(626,930,l),
(424,930,l),
(424,1031,ls),
(424,1095,o),
(450,1123,o),
(505,1123,cs),
(626,1123,l),
(626,1364,l),
(409,1364,ls),
(271,1364,o),
(160,1276,o),
(160,1100,cs),
(160,930,l),
(20,930,l),
(20,710,l),
(160,710,l),
(160,0,l)
);
}
);
width = 636;
},
{
anchors = (
{
name = bottom;
pos = (332,2);
},
{
name = top;
pos = (332,1362);
}
);
layerId = "1B8EDE0E-D46F-48F9-B9C6-2CD34FEA95FD";
shapes = (
{
closed = 1;
nodes = (
(384,-2,l),
(384,786,l),
(616,786,l),
(616,932,l),
(382,932,l),
(382,1108,ls),
(382,1168,o),
(410,1212,o),
(474,1212,cs),
(616,1212,l),
(616,1362,l),
(442,1362,ls),
(306,1362,o),
(204,1264,o),
(204,1110,cs),
(204,932,l),
(72,932,l),
(72,786,l),
(206,786,l),
(206,-2,l)
);
}
);
width = 686;
}
);
unicode = 102;
},
{
glyphname = g;
lastChange = "2025-11-24 21:35:31 +0000";
layers = (
{
anchors = (
{
name = bottom;
pos = (484,-400);
},
{
name = top;
pos = (484,900);
}
);
layerId = m004;
shapes = (
{
closed = 1;
nodes = (
(676,303,o),
(842,395,o),
(843,627,cs),
(844,841,o),
(676,953,o),
(490,953,cs),
(306,953,o),
(140,843,o),
(140,627,cs),
(140,395,o),
(306,303,o),
(490,303,cs)
);
},
{
closed = 1;
nodes = (
(310,373,o),
(218,465,o),
(218,627,cs),
(218,767,o),
(310,883,o),
(490,883,cs),
(670,883,o),
(764,767,o),
(764,627,cs),
(764,465,o),
(670,373,o),
(490,373,cs)
);
},
{
closed = 1;
nodes = (
(562,24,l),
(562,72,l),
(372,72,ls),
(244,72,o),
(170,129,o),
(170,215,cs),
(170,318,o),
(212,346,o),
(292,424,c),
(240,472,l),
(174,394,o),
(92,334,o),
(92,209,cs),
(92,101,o),
(158,24,o),
(358,24,cs)
);
},
{
closed = 1;
nodes = (
(584,-400,ls),
(790,-400,o),
(862,-288,o),
(862,-164,cs),
(862,-40,o),
(790,72,o),
(584,72,cs),
(308,72,ls),
(102,72,o),
(30,-40,o),
(30,-164,cs),
(30,-288,o),
(102,-400,o),
(308,-400,cs)
);
},
{
closed = 1;
nodes = (
(180,-328,o),
(110,-280,o),
(110,-162,cs),
(110,-48,o),
(180,0,o),
(306,0,cs),
(586,0,ls),
(718,0,o),
(782,-52,o),
(782,-162,cs),
(782,-276,o),
(718,-328,o),
(586,-328,cs),
(306,-328,ls)
);
},
{
closed = 1;
nodes = (
(762,839,l),
(762,919,o),
(758,937,o),
(826,937,c),
(876,937,l),
(876,1009,l),
(794,1009,l),
(714,1009,o),
(676,969,o),
(676,839,c)
);
}
);
width = 964;
},
{
anchors = (
{
name = bottom;
pos = (500,-200);
},
{
name = top;
pos = (500,1100);
}
);
layerId = m002;
shapes = (
{
closed = 1;
nodes = (
(660,301,o),
(826,373,o),
(826,625,cs),
(826,877,o),
(646,951,o),
(474,951,cs),
(304,951,o),
(124,861,o),
(124,625,cs),
(124,373,o),
(290,301,o),
(474,301,cs)
);
},
{
closed = 1;
nodes = (
(372,459,o),
(308,507,o),
(308,627,cs),
(308,727,o),
(372,793,o),
(474,793,cs),
(576,793,o),
(642,727,o),
(642,627,cs),
(642,505,o),
(576,459,o),
(474,459,cs)
);
},
{
closed = 1;
nodes = (
(554,9,l),
(554,153,l),
(426,153,ls),
(291,153,o),
(250,181,o),
(250,249,cs),
(250,321,o),
(290,351,o),
(354,401,c),
(248,519,l),
(170,445,o),
(76,383,o),
(76,263,cs),
(76,141,o),
(125,66,o),
(327,39,cs)
);
},
{
closed = 1;
nodes = (
(554,-411,ls),
(816,-411,o),
(906,-269,o),
(906,-129,cs),
(906,31,o),
(816,153,o),
(554,153,cs),
(406,153,ls),
(164,153,o),
(54,31,o),
(54,-129,cs),
(54,-269,o),
(144,-411,o),
(406,-411,cs)
);
},
{
closed = 1;
nodes = (
(296,-257,o),
(228,-221,o),
(228,-129,cs),
(228,-17,o),
(296,-1,o),
(392,-1,cs),
(568,-1,ls),
(664,-1,o),
(732,-37,o),
(732,-129,cs),
(732,-201,o),
(664,-257,o),
(568,-257,cs),
(392,-257,ls)
);
},
{
closed = 1;
nodes = (
(760,773,l),
(760,821,o),
(794,861,o),
(894,861,c),
(894,905,l),
(894,1009,l),
(894,1033,l),
(698,1033,o),
(604,889,o),
(604,773,c)
);
}
);
width = 956;
},
{
anchors = (
{
name = bottom;
pos = (486,-198);
},
{
name = top;
pos = (486,1102);
}
);
layerId = m005;
shapes = (
{
closed = 1;
nodes = (
(688,285,o),
(884,359,o),
(884,617,cs),
(884,875,o),
(674,951,o),
(500,951,cs),
(326,951,o),
(118,857,o),
(118,617,cs),
(118,359,o),
(314,285,o),
(500,285,cs)
);
},
{
closed = 1;
nodes = (
(422,483,o),
(364,525,o),
(364,619,cs),
(364,695,o),
(424,753,o),
(500,753,cs),
(576,753,o),
(638,695,o),
(638,619,cs),
(638,523,o),
(580,483,o),
(500,483,cs)
);
},
{
closed = 1;
nodes = (
(620,34,l),
(620,218,l),
(422,218,ls),
(342,218,o),
(246,232,o),
(246,307,cs),
(246,343,o),
(312,383,o),
(362,431,c),
(232,587,l),
(167,541,o),
(52,465,o),
(52,328,cs),
(52,185,o),
(144,94,o),
(362,66,cs)
);
},
{
closed = 1;
nodes = (
(560,-382,ls),
(844,-382,o),
(942,-224,o),
(942,-76,cs),
(942,94,o),
(842,220,o),
(560,220,cs),
(412,220,ls),
(152,220,o),
(30,96,o),
(30,-76,cs),
(30,-224,o),
(128,-382,o),
(412,-382,cs)
);
},
{
closed = 1;
nodes = (
(288,-152,o),
(264,-124,o),
(264,-76,cs),
(264,-28,o),
(288,0,o),
(344,0,cs),
(628,0,ls),
(676,0,o),
(708,-28,o),
(708,-76,cs),
(708,-124,o),
(676,-152,o),
(628,-152,cs),
(344,-152,ls)
);
},
{
closed = 1;
nodes = (
(798,757,l),
(788,809,o),
(804,853,o),
(930,843,c),
(930,913,l),
(930,1017,l),
(930,1065,l),
(678,1081,o),
(566,891,o),
(582,757,c)
);
}
);
width = 972;
},
{
anchors = (
{
name = bottom;
pos = (335,-471);
},
{
name = top;
pos = (335,829);
}
);
layerId = "1B8EDE0E-D46F-48F9-B9C6-2CD34FEA95FD";
shapes = (
{
closed = 1;
nodes = (
(653,304,o),
(821,382,o),
(821,628,cs),
(821,870,o),
(641,954,o),
(467,954,cs),
(293,954,o),
(113,860,o),
(113,628,cs),
(113,382,o),
(283,304,o),
(467,304,cs)
);
},
{
closed = 1;
nodes = (
(345,440,o),
(275,498,o),
(275,630,cs),
(275,740,o),
(345,818,o),
(467,818,cs),
(589,818,o),
(659,740,o),
(659,630,cs),
(659,498,o),
(589,440,o),
(467,440,cs)
);
},
{
closed = 1;
nodes = (
(587,20,l),
(587,138,l),
(403,138,ls),
(297,138,o),
(219,218,o),
(219,278,cs),
(219,344,o),
(283,380,o),
(329,408,c),
(235,508,l),
(162,459,o),
(63,376,o),
(63,278,cs),
(63,184,o),
(137,42,o),
(347,30,cs)
);
},
{
closed = 1;
nodes = (
(581,-404,ls),
(809,-404,o),
(901,-270,o),
(901,-136,cs),
(901,14,o),
(809,140,o),
(581,140,cs),
(361,140,ls),
(147,140,o),
(41,14,o),
(41,-136,cs),
(41,-270,o),
(133,-404,o),
(361,-404,cs)
);
},
{
closed = 1;
nodes = (
(275,-258,o),
(210,-214,o),
(210,-132,cs),
(210,-37,o),
(275,-6,o),
(355,-6,cs),
(585,-6,ls),
(667,-6,o),
(732,-52,o),
(732,-132,cs),
(732,-199,o),
(667,-258,o),
(585,-258,cs),
(355,-258,ls)
);
},
{
closed = 1;
nodes = (
(705,842,l),
(705,900,o),
(721,936,o),
(837,936,c),
(837,968,l),
(837,1062,l),
(837,1094,l),
(647,1094,o),
(571,962,o),
(571,842,c)
);
}
);
width = 981;
}
);
unicode = 103;
},
{
glyphname = h;
lastChange = "2025-11-21 20:58:09 +0000";
layers = (
{
anchors = (
{
name = bottom;
pos = (473,-650);
},
{
name = center;
pos = (215,438);
},
{
name = top;
pos = (473,710);
}
);
layerId = m002;
shapes = (
{
closed = 1;
nodes = (
(291,0,l),
(291,1360,l),
(83,1360,l),
(83,0,l)
);
},
{
closed = 1;
nodes = (
(291,600,l),
(299,730,o),
(391,778,o),
(477,778,cs),
(563,778,o),
(683,730,o),
(683,540,cs),
(683,0,l),
(883,0,l),
(883,540,ls),
(883,860,o),
(679,954,o),
(505,954,cs),
(365,954,o),
(221,856,o),
(213,600,c)
);
}
);
width = 956;
},
{
anchors = (
{
name = bottom;
pos = (458,0);
},
{
name = center;
pos = (245,1088);
},
{
name = top;
pos = (458,1360);
}
);
layerId = m004;
shapes = (
{
closed = 1;
nodes = (
(195,0,l),
(195,1360,l),
(115,1360,l),
(115,0,l)
);
},
{
closed = 1;
nodes = (
(195,536,l),
(195,758,o),
(303,882,o),
(485,882,cs),
(637,882,o),
(731,776,o),
(731,600,cs),
(731,0,l),
(811,0,l),
(811,614,ls),
(811,846,o),
(675,954,o),
(485,954,cs),
(251,954,o),
(159,802,o),
(159,536,c)
);
}
);
width = 916;
},
{
anchors = (
{
name = bottom;
pos = (520,-662);
},
{
name = center;
pos = (262,426);
},
{
name = top;
pos = (520,698);
}
);
layerId = m005;
shapes = (
{
closed = 1;
nodes = (
(368,0,l),
(368,1360,l),
(100,1360,l),
(100,0,l)
);
},
{
closed = 1;
nodes = (
(368,552,l),
(364,682,o),
(464,730,o),
(544,730,cs),
(618,730,o),
(700,688,o),
(700,516,cs),
(700,0,l),
(960,0,l),
(960,516,ls),
(960,854,o),
(759,954,o),
(580,954,cs),
(356,954,o),
(310,796,o),
(308,552,c)
);
}
);
width = 1050;
},
{
anchors = (
{
name = bottom;
pos = (480,-263);
},
{
name = center;
pos = (228,825);
},
{
name = top;
pos = (480,1097);
}
);
layerId = "1B8EDE0E-D46F-48F9-B9C6-2CD34FEA95FD";
shapes = (
{
closed = 1;
nodes = (
(278,0,l),
(278,1360,l),
(102,1360,l),
(102,0,l)
);
},
{
closed = 1;
nodes = (
(278,554,l),
(284,713,o),
(362,804,o),
(492,804,cs),
(625,804,o),
(706,709,o),
(706,554,cs),
(706,0,l),
(876,0,l),
(876,558,ls),
(876,800,o),
(735,954,o),
(512,954,cs),
(305,954,o),
(202,821,o),
(202,554,c)
);
}
);
width = 968;
}
);
metricLeft = n;
metricRight = "=n-10";
unicode = 104;
},
{
glyphname = i;
lastChange = "2025-11-21 21:11:33 +0000";
layers = (
{
anchors = (
{
name = bottom;
pos = (225,-532);
}
);
background = {
shapes = (
{
closed = 0;
nodes = (
(225,92,ls),
(185,92,o),
(172,109,o),
(172,138,cs)
);
}
);
};
layerId = m002;
shapes = (
{
closed = 1;
nodes = (
(441,0,l),
(441,180,l),
(397,180,ls),
(331,180,o),
(295,212,o),
(295,288,c),
(297,930,l),
(89,930,l),
(87,308,l),
(87,90,o),
(217,0,o),
(375,0,cs)
);
},
{
closed = 1;
nodes = (
(271,1057,o),
(313,1103,o),
(313,1181,cs),
(313,1257,o),
(271,1301,o),
(191,1301,cs),
(111,1301,o),
(69,1257,o),
(69,1181,cs),
(69,1103,o),
(111,1057,o),
(191,1057,cs)
);
}
);
width = 469;
},
{
anchors = (
{
name = bottom;
pos = (176,0);
}
);
layerId = m004;
shapes = (
{
closed = 1;
nodes = (
(332,-24,l),
(332,48,l),
(306,48,ls),
(246,48,o),
(208,60,o),
(208,164,c),
(208,930,l),
(128,930,l),
(128,142,l),
(128,16,o),
(192,-24,o),
(306,-24,cs)
);
},
{
closed = 1;
nodes = (
(207,1059,o),
(232,1084,o),
(232,1125,cs),
(232,1166,o),
(207,1191,o),
(166,1191,cs),
(125,1191,o),
(100,1166,o),
(100,1125,cs),
(100,1084,o),
(125,1059,o),
(166,1059,cs)
);
}
);
width = 360;
},
{
anchors = (
{
name = bottom;
pos = (272,0);
}
);
background = {
shapes = (
{
closed = 0;
nodes = (
(267,92,ls),
(227,92,o),
(214,109,o),
(214,138,cs)
);
}
);
};
layerId = m005;
shapes = (
{
closed = 1;
nodes = (
(468,0,l),
(468,246,l),
(434,246,ls),
(390,246,o),
(372,264,o),
(372,316,cs),
(374,930,l),
(106,930,l),
(104,260,ls),
(103,78,o),
(218,0,o),
(354,0,cs)
);
},
{
closed = 1;
nodes = (
(338,1008,o),
(390,1066,o),
(390,1156,cs),
(390,1244,o),
(336,1300,o),
(238,1300,cs),
(140,1300,o),
(86,1244,o),
(86,1156,cs),
(86,1066,o),
(138,1008,o),
(238,1008,cs)
);
}
);
width = 568;
},
{
anchors = (
{
name = bottom;
pos = (222,-533);
}
);
layerId = "1B8EDE0E-D46F-48F9-B9C6-2CD34FEA95FD";
shapes = (
{
closed = 1;
nodes = (
(412,0,l),
(412,158,l),
(384,158,ls),
(324,158,o),
(288,192,o),
(288,258,c),
(290,930,l),
(116,930,l),
(114,272,l),
(114,76,o),
(226,0,o),
(374,0,cs)
);
},
{
closed = 1;
nodes = (
(272,1080,o),
(312,1120,o),
(312,1190,cs),
(312,1260,o),
(272,1300,o),
(200,1300,cs),
(128,1300,o),
(90,1260,o),
(90,1190,cs),
(90,1120,o),
(128,1080,o),
(200,1080,cs)
);
}
);
width = 477;
}
);
unicode = 105;
},
{
glyphname = idotless;
lastChange = "2025-11-21 21:37:28 +0000";
layers = (
{
anchors = (
{
name = bottom;
pos = (138,0);
},
{
name = ogonek;
pos = (322,0);
},
{
name = top;
pos = (138,900);
}
);
layerId = m004;
shapes = (
{
closed = 1;
nodes = (
(322,-10,l),
(322,62,l),
(296,62,ls),
(236,62,o),
(198,74,o),
(198,178,c),
(198,910,l),
(118,910,l),
(118,156,l),
(118,30,o),
(182,-10,o),
(296,-10,cs)
);
}
);
width = 350;
},
{
anchors = (
{
name = bottom;
pos = (190,0);
},
{
name = ogonek;
pos = (398,0);
},
{
name = top;
pos = (190,900);
}
);
layerId = "1B8EDE0E-D46F-48F9-B9C6-2CD34FEA95FD";
shapes = (
{
closed = 1;
nodes = (
(398,0,l),
(398,158,l),
(370,158,ls),
(310,158,o),
(274,192,o),
(274,258,c),
(276,900,l),
(102,900,l),
(100,272,l),
(100,76,o),
(212,0,o),
(360,0,cs)
);
}
);
width = 463;
},
{
anchors = (
{
name = bottom;
pos = (207,0);
},
{
name = ogonek;
pos = (453,0);
},
{
name = top;
pos = (207,900);
}
);
layerId = m002;
shapes = (
{
closed = 1;
nodes = (
(453,0,l),
(453,180,l),
(379,180,ls),
(313,180,o),
(277,212,o),
(277,288,c),
(279,900,l),
(71,900,l),
(69,308,l),
(69,90,o),
(199,0,o),
(357,0,cs)
);
}
);
width = 481;
},
{
anchors = (
{
name = bottom;
pos = (212,0);
},
{
name = ogonek;
pos = (488,0);
},
{
name = top;
pos = (212,900);
}
);
layerId = m005;
shapes = (
{
closed = 1;
nodes = (
(488,0,l),
(488,228,l),
(374,228,ls),
(330,228,o),
(312,246,o),
(312,298,cs),
(314,900,l),
(46,900,l),
(44,332,ls),
(44,100,o),
(190,0,o),
(362,0,cs)
);
}
);
width = 588;
}
);
metricRight = i;
unicode = 305;
},
{
glyphname = j;
lastChange = "2025-11-21 20:58:09 +0000";
layers = (
{
layerId = m002;
shapes = (
{
closed = 1;
nodes = (
(211,-400,o),
(299,-364,o),
(299,-106,c),
(297,930,l),
(89,930,l),
(91,-106,l),
(91,-172,o),
(65,-210,o),
(-15,-210,cs),
(-85,-210,l),
(-85,-400,l),
(7,-400,ls)
);
},
{
closed = 1;
nodes = (
(275,1064,o),
(317,1110,o),
(317,1188,cs),
(317,1264,o),
(275,1308,o),
(195,1308,cs),
(115,1308,o),
(73,1264,o),
(73,1188,cs),
(73,1110,o),
(115,1064,o),
(195,1064,cs)
);
}
);
width = 386;
},
{
layerId = m004;
shapes = (
{
closed = 1;
nodes = (
(172,-400,o),
(236,-360,o),
(236,-234,c),
(236,930,l),
(156,930,l),
(156,-212,l),
(156,-316,o),
(118,-328,o),
(58,-328,cs),
(-54,-328,l),
(-54,-400,l),
(58,-400,ls)
);
},
{
closed = 1;
nodes = (
(234,1059,o),
(259,1084,o),
(259,1125,cs),
(259,1166,o),
(234,1191,o),
(193,1191,cs),
(152,1191,o),
(127,1166,o),
(127,1125,cs),
(127,1084,o),
(152,1059,o),
(193,1059,cs)
);
}
);
width = 359;
},
{
background = {
shapes = (
{
closed = 0;
nodes = (
(159,-70,ls),
(159,-161,o),
(102,-200,o),
(34,-200,cs)
);
}
);
};
layerId = m005;
shapes = (
{
closed = 1;
nodes = (
(270,-400,o),
(382,-322,o),
(382,-140,cs),
(380,930,l),
(110,930,l),
(112,-74,ls),
(112,-130,o),
(94,-154,o),
(36,-154,cs),
(-64,-154,l),
(-64,-400,l),
(132,-400,ls)
);
},
{
closed = 1;
nodes = (
(346,1009,o),
(398,1067,o),
(398,1157,cs),
(398,1245,o),
(344,1301,o),
(246,1301,cs),
(148,1301,o),
(94,1245,o),
(94,1157,cs),
(94,1067,o),
(146,1009,o),
(246,1009,cs)
);
}
);
width = 484;
},
{
background = {
shapes = (
{
closed = 1;
nodes = (
(171,-390,o),
(283,-314,o),
(283,-118,c),
(281,540,l),
(107,540,l),
(109,-132,l),
(109,-198,o),
(73,-232,o),
(13,-232,cs),
(-15,-232,l),
(-15,-390,l),
(23,-390,ls)
);
}
);
};
layerId = "1B8EDE0E-D46F-48F9-B9C6-2CD34FEA95FD";
shapes = (
{
closed = 1;
nodes = (
(171,-390,o),
(283,-314,o),
(284,-118,c),
(282,932,l),
(106,932,l),
(108,-132,l),
(108,-190,o),
(76,-228,o),
(23,-228,cs),
(-72,-228,l),
(-72,-390,l),
(23,-390,ls)
);
},
{
closed = 1;
nodes = (
(266,1076,o),
(306,1116,o),
(306,1186,cs),
(306,1256,o),
(266,1296,o),
(194,1296,cs),
(122,1296,o),
(84,1256,o),
(84,1186,cs),
(84,1116,o),
(122,1076,o),
(194,1076,cs)
);
}
);
width = 396;
}
);
metricRight = "=|i";
unicode = 106;
},
{
glyphname = k;
lastChange = "2025-11-21 20:58:09 +0000";
layers = (
{
anchors = (
{
name = bottom;
pos = (433,0);
},
{
name = top;
pos = (433,1360);
}
);
layerId = m002;
shapes = (
{
closed = 1;
nodes = (
(83,0,l),
(291,0,l),
(291,1360,l),
(83,1360,l)
);
},
{
closed = 1;
nodes = (
(491,598,l),
(255,598,l),
(639,0,l),
(869,0,l)
);
},
{
closed = 1;
nodes = (
(269,362,l),
(819,930,l),
(571,930,l),
(135,454,l)
);
}
);
width = 876;
},
{
anchors = (
{
name = bottom;
pos = (422,0);
},
{
name = top;
pos = (422,1360);
}
);
layerId = m004;
shapes = (
{
closed = 1;
nodes = (
(115,0,l),
(195,0,l),
(195,1360,l),
(115,1360,l)
);
},
{
closed = 1;
nodes = (
(408,670,l),
(343,615,l),
(689,0,l),
(775,0,l)
);
},
{
closed = 1;
nodes = (
(171,389,l),
(707,930,l),
(599,930,l),
(123,449,l)
);
}
);
width = 843;
},
{
anchors = (
{
name = bottom;
pos = (480,0);
},
{
name = top;
pos = (480,1360);
}
);
layerId = m005;
shapes = (
{
closed = 1;
nodes = (
(100,0,l),
(368,0,l),
(368,1360,l),
(100,1360,l)
);
},
{
closed = 1;
nodes = (
(556,617,l),
(252,617,l),
(668,0,l),
(966,0,l)
);
},
{
closed = 1;
nodes = (
(320,323,l),
(928,930,l),
(604,930,l),
(142,445,l)
);
}
);
width = 1066;
},
{
anchors = (
{
name = bottom;
pos = (424,0);
},
{
name = top;
pos = (424,1360);
}
);
layerId = "1B8EDE0E-D46F-48F9-B9C6-2CD34FEA95FD";
shapes = (
{
closed = 1;
nodes = (
(102,0,l),
(278,0,l),
(278,1360,l),
(102,1360,l)
);
},
{
closed = 1;
nodes = (
(494,620,l),
(314,608,l),
(672,0,l),
(858,0,l)
);
},
{
closed = 1;
nodes = (
(256,348,l),
(814,930,l),
(598,930,l),
(136,432,l)
);
}
);
width = 905;
}
);
metricLeft = n;
unicode = 107;
},
{
glyphname = l;
lastChange = "2025-11-21 21:37:19 +0000";
layers = (
{
anchors = (
{
name = bottom;
pos = (221,0);
},
{
name = center;
pos = (221,450);
},
{
name = top;
pos = (221,1360);
},
{
name = topright;
pos = (467,1360);
}
);
layerId = m002;
shapes = (
{
closed = 1;
nodes = (
(467,0,l),
(467,180,l),
(383,180,ls),
(323,180,o),
(291,208,o),
(291,274,c),
(293,1360,l),
(85,1360,l),
(83,308,l),
(83,90,o),
(213,0,o),
(371,0,cs)
);
}
);
width = 495;
},
{
anchors = (
{
name = bottom;
pos = (174,0);
},
{
name = center;
pos = (174,450);
},
{
name = top;
pos = (174,1360);
},
{
name = topright;
pos = (319,1360);
}
);
background = {
shapes = (
{
closed = 1;
nodes = (
(187,-10,l),
(187,20,l),
(168,20,ls),
(138,20,o),
(119,26,o),
(119,83,cs),
(119,680,l),
(85,680,l),
(85,73,ls),
(85,10,o),
(111,-10,o),
(168,-10,cs)
);
}
);
};
layerId = m004;
shapes = (
{
closed = 1;
nodes = (
(319,-24,l),
(319,48,l),
(293,48,ls),
(233,48,o),
(195,60,o),
(195,164,c),
(195,1359,l),
(115,1359,l),
(115,142,l),
(115,16,o),
(179,-24,o),
(293,-24,cs)
);
}
);
width = 347;
},
{
anchors = (
{
name = bottom;
pos = (264,0);
},
{
name = center;
pos = (264,450);
},
{
name = top;
pos = (264,1360);
},
{
name = topright;
pos = (464,1360);
}
);
background = {
shapes = (
{
closed = 0;
nodes = (
(105,130,ls),
(105,39,o),
(162,0,o),
(230,0,cs)
);
}
);
};
layerId = m005;
shapes = (
{
closed = 1;
nodes = (
(464,0,l),
(464,246,l),
(430,246,ls),
(386,246,o),
(368,264,o),
(368,316,cs),
(370,1300,l),
(102,1300,l),
(100,260,ls),
(100,78,o),
(214,0,o),
(350,0,cs)
);
}
);
width = 564;
},
{
anchors = (
{
name = bottom;
pos = (208,-667);
},
{
name = center;
pos = (208,-217);
},
{
name = top;
pos = (208,693);
},
{
name = topright;
pos = (402,693);
}
);
layerId = "1B8EDE0E-D46F-48F9-B9C6-2CD34FEA95FD";
shapes = (
{
closed = 1;
nodes = (
(402,0,l),
(402,158,l),
(372,158,ls),
(312,158,o),
(278,192,o),
(278,258,c),
(280,1346,l),
(104,1346,l),
(102,274,l),
(102,78,o),
(214,0,o),
(362,0,cs)
);
}
);
width = 467;
}
);
metricLeft = "=n";
metricRight = i;
unicode = 108;
},
{
glyphname = lslash;
lastChange = "2025-11-21 20:58:09 +0000";
layers = (
{
layerId = m004;
shapes = (
{
ref = l;
},
{
closed = 1;
nodes = (
(74,598,l),
(398,712,l),
(398,788,l),
(74,674,l)
);
}
);
width = 277;
},
{
layerId = "1B8EDE0E-D46F-48F9-B9C6-2CD34FEA95FD";
shapes = (
{
ref = l;
},
{
closed = 1;
nodes = (
(57,1247,l),
(461,1381,l),
(461,1561,l),
(57,1427,l)
);
}
);
width = 310;
},
{
layerId = m002;
shapes = (
{
ref = l;
},
{
closed = 1;
nodes = (
(27,548,l),
(451,682,l),
(451,882,l),
(27,748,l)
);
}
);
width = 285;
},
{
layerId = m005;
shapes = (
{
ref = l;
},
{
closed = 1;
nodes = (
(12,528,l),
(456,662,l),
(456,902,l),
(12,768,l)
);
}
);
width = 261;
}
);
unicode = 322;
},
{
glyphname = m;
lastChange = "2025-11-21 20:58:09 +0000";
layers = (
{
anchors = (
{
name = bottom;
pos = (739,0);
},
{
name = top;
pos = (739,930);
}
);
layerId = m002;
shapes = (
{
closed = 1;
nodes = (
(291,0,l),
(291,810,l),
(291,850,l),
(271,850,l),
(251,930,l),
(83,930,l),
(83,0,l)
);
},
{
closed = 1;
nodes = (
(843,0,l),
(843,600,l),
(839,788,o),
(711,954,o),
(525,954,cs),
(355,954,o),
(226,856,o),
(217,600,c),
(291,600,l),
(289,730,o),
(405,778,o),
(497,778,cs),
(569,778,o),
(643,730,o),
(643,552,cs),
(643,0,l)
);
},
{
closed = 1;
nodes = (
(1395,0,l),
(1395,552,ls),
(1395,860,o),
(1211,954,o),
(1057,954,cs),
(907,954,o),
(751,856,o),
(743,600,c),
(843,600,l),
(851,730,o),
(957,778,o),
(1029,778,cs),
(1101,778,o),
(1195,730,o),
(1195,552,cs),
(1195,0,l)
);
}
);
width = 1478;
},
{
anchors = (
{
name = bottom;
pos = (730,0);
},
{
name = top;
pos = (730,930);
}
);
background = {
shapes = (
{
closed = 0;
nodes = (
(135,450,l),
(148,404,l),
(171,404,l)
);
}
);
};
layerId = m004;
shapes = (
{
closed = 1;
nodes = (
(195,0,l),
(195,762,l),
(215,830,l),
(195,830,l),
(175,930,l),
(115,930,l),
(115,0,l)
);
},
{
closed = 1;
nodes = (
(770,0,l),
(770,614,ls),
(770,846,o),
(634,954,o),
(464,954,cs),
(250,954,o),
(141,802,o),
(158,536,c),
(194,536,l),
(194,758,o),
(302,882,o),
(464,882,cs),
(596,882,o),
(690,776,o),
(690,600,cs),
(690,0,l)
);
},
{
closed = 1;
nodes = (
(1346,0,l),
(1346,614,ls),
(1346,846,o),
(1210,954,o),
(1040,954,cs),
(826,954,o),
(734,802,o),
(734,536,c),
(770,536,l),
(770,758,o),
(878,882,o),
(1040,882,cs),
(1172,882,o),
(1266,776,o),
(1266,600,cs),
(1266,0,l)
);
}
);
width = 1461;
},
{
anchors = (
{
name = bottom;
pos = (801,0);
},
{
name = top;
pos = (801,930);
}
);
background = {
shapes = (
{
closed = 1;
nodes = (
(938,0,l),
(938,486,ls),
(938,824,o),
(758,924,o),
(566,924,cs),
(336,924,o),
(270,766,o),
(268,522,c),
(368,522,l),
(366,658,o),
(439,700,o),
(519,700,cs),
(599,700,o),
(672,654,o),
(672,522,cs),
(672,0,l)
);
}
);
};
layerId = m005;
shapes = (
{
closed = 1;
nodes = (
(368,0,l),
(368,828,l),
(354,828,l),
(334,828,l),
(304,928,l),
(100,928,l),
(100,0,l)
);
},
{
closed = 1;
nodes = (
(952,0,l),
(952,554,ls),
(952,804,o),
(808,952,o),
(600,952,cs),
(386,952,o),
(286,794,o),
(268,550,c),
(368,550,l),
(366,686,o),
(449,728,o),
(529,728,cs),
(609,728,o),
(692,682,o),
(692,551,cs),
(692,0,l)
);
},
{
closed = 1;
nodes = (
(1522,0,l),
(1522,514,ls),
(1522,852,o),
(1352,952,o),
(1160,952,cs),
(930,952,o),
(854,794,o),
(852,550,c),
(952,550,l),
(950,686,o),
(1023,728,o),
(1103,728,cs),
(1183,728,o),
(1256,682,o),
(1256,550,cs),
(1256,0,l)
);
}
);
width = 1622;
},
{
anchors = (
{
name = bottom;
pos = (748,0);
},
{
name = top;
pos = (748,930);
}
);
layerId = "1B8EDE0E-D46F-48F9-B9C6-2CD34FEA95FD";
shapes = (
{
closed = 1;
nodes = (
(278,0,l),
(278,850,l),
(268,850,l),
(248,850,l),
(228,930,l),
(102,930,l),
(102,0,l)
);
},
{
closed = 1;
nodes = (
(836,0,l),
(836,584,ls),
(836,802,o),
(704,954,o),
(514,954,cs),
(317,954,o),
(183,794,o),
(206,584,c),
(278,564,l),
(278,742,o),
(384,804,o),
(472,804,cs),
(560,804,o),
(666,742,o),
(666,564,cs),
(666,0,l)
);
},
{
closed = 1;
nodes = (
(1394,0,l),
(1394,568,ls),
(1394,856,o),
(1216,954,o),
(1058,954,cs),
(892,954,o),
(758,844,o),
(752,584,c),
(836,584,l),
(842,742,o),
(942,804,o),
(1030,804,cs),
(1118,804,o),
(1224,742,o),
(1224,564,cs),
(1224,0,l)
);
}
);
width = 1496;
}
);
metricLeft = "=n";
metricRight = "=n";
unicode = 109;
},
{
glyphname = n;
lastChange = "2025-11-23 15:14:25 +0000";
layers = (
{
anchors = (
{
name = bottom;
pos = (174,0);
},
{
name = top;
pos = (174,900);
}
);
background = {
shapes = (
{
closed = 0;
nodes = (
(460,306,ls),
(460,432,o),
(400,466,o),
(295,466,cs)
);
}
);
};
layerId = m002;
shapes = (
{
closed = 1;
nodes = (
(291,600,l),
(299,730,o),
(411,778,o),
(497,778,cs),
(583,778,o),
(683,730,o),
(683,540,cs),
(683,0,l),
(883,0,l),
(883,540,ls),
(883,860,o),
(699,954,o),
(525,954,cs),
(315,954,o),
(259,856,o),
(211,600,c)
);
},
{
closed = 1;
nodes = (
(291,0,l),
(291,810,l),
(291,850,l),
(271,850,l),
(251,930,l),
(83,930,l),
(83,0,l)
);
}
);
width = 966;
},
{
anchors = (
{
name = bottom;
pos = (462,0);
},
{
name = top;
pos = (462,900);
}
);
background = {
shapes = (
{
closed = 0;
nodes = (
(282,466,ls),
(142,466,o),
(92,323,o),
(86,213,c)
);
}
);
};
layerId = m004;
shapes = (
{
closed = 1;
nodes = (
(194,576,l),
(194,770,o),
(278,882,o),
(462,882,cs),
(632,882,o),
(730,787,o),
(730,576,cs),
(730,0,l),
(810,0,l),
(810,572,ls),
(810,841,o),
(651,954,o),
(462,954,cs),
(271,954,o),
(155,831,o),
(158,576,c)
);
},
{
closed = 1;
nodes = (
(195,0,l),
(195,762,l),
(215,830,l),
(195,830,l),
(175,930,l),
(115,930,l),
(115,0,l)
);
}
);
width = 925;
},
{
anchors = (
{
name = bottom;
pos = (532,0);
},
{
name = top;
pos = (580,954);
}
);
background = {
shapes = (
{
closed = 0;
nodes = (
(811,306,ls),
(811,432,o),
(751,466,o),
(646,466,cs)
);
}
);
};
layerId = m005;
shapes = (
{
closed = 1;
nodes = (
(368,541,l),
(368,686,o),
(452,732,o),
(532,732,cs),
(612,732,o),
(700,686,o),
(700,541,cs),
(700,0,l),
(964,0,l),
(964,516,ls),
(964,795,o),
(845,954,o),
(600,954,cs),
(408,954,o),
(323,854,o),
(308,541,c)
);
},
{
closed = 1;
nodes = (
(368,0,l),
(368,830,l),
(354,830,l),
(334,830,l),
(304,930,l),
(100,930,l),
(100,0,l)
);
}
);
width = 1064;
},
{
anchors = (
{
name = bottom;
pos = (490,0);
},
{
name = top;
pos = (490,900);
}
);
layerId = "1B8EDE0E-D46F-48F9-B9C6-2CD34FEA95FD";
shapes = (
{
closed = 1;
nodes = (
(278,554,l),
(284,708,o),
(372,804,o),
(492,804,cs),
(612,804,o),
(706,742,o),
(706,554,cs),
(706,0,l),
(876,0,l),
(876,558,ls),
(876,856,o),
(698,954,o),
(520,954,cs),
(316,954,o),
(162,814,o),
(202,554,c)
);
},
{
closed = 1;
nodes = (
(278,0,l),
(278,850,l),
(268,850,l),
(248,850,l),
(228,930,l),
(102,930,l),
(102,0,l)
);
}
);
width = 978;
}
);
metricRight = "=|";
unicode = 110;
},
{
glyphname = o;
lastChange = "2025-11-24 21:37:20 +0000";
layers = (
{
anchors = (
{
name = bottom;
pos = (456,0);
},
{
name = center;
pos = (456,450);
},
{
name = ogonek;
pos = (844,20);
},
{
name = top;
pos = (456,900);
},
{
name = topright;
pos = (902,900);
}
);
layerId = m002;
shapes = (
{
closed = 1;
nodes = (
(370,152,o),
(250,198,o),
(250,390,cs),
(250,540,ls),
(250,730,o),
(370,778,o),
(456,778,cs),
(542,778,o),
(662,730,o),
(662,540,cs),
(662,390,ls),
(662,198,o),
(542,152,o),
(456,152,cs)
);
},
{
closed = 1;
nodes = (
(638,-24,o),
(862,72,o),
(862,390,cs),
(862,540,ls),
(862,856,o),
(618,954,o),
(456,954,cs),
(274,954,o),
(50,860,o),
(50,540,cs),
(50,390,ls),
(50,72,o),
(274,-24,o),
(456,-24,cs)
);
}
);
width = 912;
},
{
anchors = (
{
name = bottom;
pos = (455,0);
},
{
name = center;
pos = (455,450);
},
{
name = ogonek;
pos = (801,10);
},
{
name = top;
pos = (455,900);
},
{
name = topright;
pos = (867,900);
}
);
layerId = m004;
shapes = (
{
closed = 1;
nodes = (
(325,48,o),
(171,110,o),
(169,344,cs),
(168,566,ls),
(171,820,o),
(325,882,o),
(455,882,cs),
(575,882,o),
(739,820,o),
(742,566,cs),
(741,344,ls),
(739,110,o),
(575,48,o),
(455,48,cs)
);
},
{
closed = 1;
nodes = (
(615,-24,o),
(819,80,o),
(821,342,cs),
(822,568,ls),
(819,850,o),
(615,954,o),
(455,954,cs),
(285,954,o),
(91,854,o),
(88,568,cs),
(89,342,ls),
(91,76,o),
(285,-24,o),
(455,-24,cs)
);
}
);
width = 910;
},
{
anchors = (
{
name = bottom;
pos = (510,12);
},
{
name = center;
pos = (510,462);
},
{
name = ogonek;
pos = (906,32);
},
{
name = top;
pos = (510,912);
},
{
name = topright;
pos = (966,912);
}
);
layerId = m005;
shapes = (
{
closed = 1;
nodes = (
(434,215,o),
(332,255,o),
(332,393,cs),
(332,537,ls),
(332,673,o),
(434,715,o),
(510,715,cs),
(586,715,o),
(688,673,o),
(688,537,cs),
(688,393,ls),
(688,255,o),
(586,215,o),
(510,215,cs)
);
},
{
closed = 1;
nodes = (
(702,-24,o),
(950,72,o),
(950,394,cs),
(950,536,ls),
(950,858,o),
(682,954,o),
(510,954,cs),
(318,954,o),
(70,862,o),
(70,536,cs),
(70,394,ls),
(70,72,o),
(318,-24,o),
(510,-24,cs)
);
}
);
width = 1020;
},
{
anchors = (
{
name = bottom;
pos = (478,12);
},
{
name = center;
pos = (478,462);
},
{
name = ogonek;
pos = (858,32);
},
{
name = top;
pos = (478,912);
},
{
name = topright;
pos = (914,912);
}
);
layerId = "1B8EDE0E-D46F-48F9-B9C6-2CD34FEA95FD";
shapes = (
{
closed = 1;
nodes = (
(339,138,o),
(250,238,o),
(250,366,cs),
(250,564,ls),
(250,693,o),
(339,796,o),
(478,796,cs),
(616,796,o),
(704,694,o),
(704,564,cs),
(704,366,ls),
(704,238,o),
(617,138,o),
(478,138,cs)
);
},
{
closed = 1;
nodes = (
(717,-22,o),
(874,140,o),
(874,366,cs),
(874,564,ls),
(874,789,o),
(713,956,o),
(478,956,cs),
(241,956,o),
(80,790,o),
(80,564,cs),
(80,366,ls),
(80,141,o),
(239,-22,o),
(478,-22,cs)
);
}
);
width = 954;
}
);
metricRight = "=|";
unicode = 111;
},
{
glyphname = oslash;
lastChange = "2025-11-21 20:58:09 +0000";
layers = (
{
anchors = (
{
name = top;
pos = (277,900);
}
);
layerId = m004;
shapes = (
{
ref = o;
},
{
closed = 1;
nodes = (
(196,12,l),
(832,912,l),
(728,910,l),
(92,12,l)
);
}
);
width = 920;
},
{
anchors = (
{
name = top;
pos = (478,912);
}
);
layerId = "1B8EDE0E-D46F-48F9-B9C6-2CD34FEA95FD";
shapes = (
{
ref = o;
},
{
closed = 1;
nodes = (
(286,12,l),
(874,912,l),
(668,912,l),
(80,12,l)
);
}
);
width = 954;
},
{
anchors = (
{
name = top;
pos = (456,912);
}
);
layerId = m002;
shapes = (
{
ref = o;
},
{
closed = 1;
nodes = (
(264,12,l),
(854,912,l),
(640,912,l),
(50,12,l)
);
}
);
width = 912;
},
{
anchors = (
{
name = top;
pos = (478,912);
}
);
layerId = m005;
shapes = (
{
ref = o;
},
{
closed = 1;
nodes = (
(272,12,l),
(958,912,l),
(704,912,l),
(18,12,l)
);
}
);
width = 976;
}
);
metricRight = "=|";
unicode = 248;
},
{
glyphname = p;
lastChange = "2025-11-24 21:37:33 +0000";
layers = (
{
anchors = (
{
name = bottom;
pos = (467,0);
},
{
name = top;
pos = (467,930);
}
);
layerId = m002;
shapes = (
{
closed = 1;
nodes = (
(291,-400,l),
(291,850,l),
(279,850,l),
(259,850,l),
(239,930,l),
(83,930,l),
(83,-400,l)
);
},
{
closed = 1;
nodes = (
(675,-24,o),
(883,72,o),
(883,390,cs),
(883,540,ls),
(883,860,o),
(679,954,o),
(505,954,cs),
(315,954,o),
(236,856,o),
(211,600,c),
(291,600,l),
(299,730,o),
(391,778,o),
(477,778,cs),
(563,778,o),
(683,730,o),
(683,540,cs),
(683,390,ls),
(683,198,o),
(563,152,o),
(477,152,cs),
(391,152,o),
(299,198,o),
(291,330,c),
(205,330,l),
(213,72,o),
(345,-24,o),
(519,-24,cs)
);
}
);
width = 933;
},
{
anchors = (
{
name = bottom;
pos = (462,0);
},
{
name = top;
pos = (462,930);
}
);
background = {
shapes = (
{
closed = 1;
nodes = (
(124,304,l),
(124,379,l),
(124,386,l),
(114,450,l),
(85,450,l),
(85,304,l)
);
}
);
};
layerId = m004;
shapes = (
{
closed = 1;
nodes = (
(195,-400,l),
(195,762,l),
(215,830,l),
(195,830,l),
(175,930,l),
(115,930,l),
(115,-400,l)
);
},
{
closed = 1;
nodes = (
(256,954,o),
(148,814,o),
(142,528,c),
(196,526,l),
(202,780,o),
(300,882,o),
(480,882,cs),
(594,882,o),
(761,820,o),
(760,566,cs),
(759,364,ls),
(758,174,o),
(654,48,o),
(500,48,cs),
(323,48,o),
(201,182,o),
(196,384,c),
(144,382,l),
(149,138,o),
(297,-24,o),
(500,-24,cs),
(704,-24,o),
(837,134,o),
(839,362,cs),
(840,568,ls),
(842,850,o),
(634,954,o),
(480,954,cs)
);
}
);
width = 928;
},
{
anchors = (
{
name = bottom;
pos = (494,0);
},
{
name = top;
pos = (494,930);
}
);
background = {
shapes = (
{
closed = 1;
nodes = (
(431,-12,o),
(530,38,o),
(530,207,cs),
(530,243,ls),
(530,411,o),
(429,462,o),
(333,462,cs),
(229,462,o),
(184,387,o),
(184,261,c),
(234,261,l),
(233,329,o),
(273,350,o),
(312,350,cs),
(350,350,o),
(400,330,o),
(400,243,cs),
(400,207,ls),
(400,121,o),
(350,100,o),
(312,100,cs),
(273,100,o),
(233,122,o),
(234,189,c),
(194,189,l),
(194,66,o),
(244,-12,o),
(333,-12,cs)
);
}
);
};
layerId = m005;
shapes = (
{
closed = 1;
nodes = (
(368,-424,l),
(368,830,l),
(354,830,l),
(334,830,l),
(304,930,l),
(100,930,l),
(100,-424,l)
);
},
{
closed = 1;
nodes = (
(371,954,o),
(305,804,o),
(273,536,c),
(368,536,l),
(366,688,o),
(465,730,o),
(543,730,cs),
(619,730,o),
(700,680,o),
(700,536,cs),
(700,394,ls),
(700,252,o),
(619,200,o),
(543,200,cs),
(465,200,o),
(366,244,o),
(368,394,c),
(288,394,l),
(288,132,o),
(366,-24,o),
(583,-24,cs),
(759,-24,o),
(960,76,o),
(960,414,cs),
(960,516,ls),
(960,852,o),
(767,954,o),
(588,954,cs)
);
}
);
width = 1030;
},
{
anchors = (
{
name = bottom;
pos = (481,0);
},
{
name = top;
pos = (481,930);
}
);
layerId = "1B8EDE0E-D46F-48F9-B9C6-2CD34FEA95FD";
shapes = (
{
closed = 1;
nodes = (
(278,-400,l),
(278,850,l),
(268,850,l),
(248,850,l),
(228,930,l),
(102,930,l),
(102,-400,l)
);
},
{
closed = 1;
nodes = (
(736,-24,o),
(882,136,o),
(882,384,cs),
(882,542,ls),
(882,787,o),
(735,954,o),
(520,954,cs),
(318,954,o),
(207,827,o),
(200,586,c),
(278,586,l),
(278,722,o),
(361,804,o),
(488,804,cs),
(622,804,o),
(712,711,o),
(712,572,cs),
(712,364,ls),
(712,211,o),
(632,126,o),
(488,126,cs),
(362,126,o),
(285,204,o),
(278,338,c),
(190,338,l),
(194,108,o),
(311,-24,o),
(510,-24,cs)
);
}
);
width = 962;
}
);
metricLeft = "=n";
metricRight = o;
unicode = 112;
},
{
glyphname = q;
lastChange = "2025-11-24 21:37:33 +0000";
layers = (
{
anchors = (
{
name = bottom;
pos = (434,0);
},
{
name = top;
pos = (434,930);
}
);
background = {
shapes = (
{
closed = 1;
nodes = (
(267,-12,o),
(359,27,o),
(359,187,c),
(354,237,l),
(354,404,o),
(287,462,o),
(188,462,cs),
(56,462,o),
(-9,414,o),
(-9,227,cs),
(-9,30,o),
(56,-12,o),
(188,-12,cs)
);
},
{
closed = 1;
nodes = (
(143,74,o),
(86,91,o),
(86,227,cs),
(86,354,o),
(143,376,o),
(197,376,cs),
(255,376,o),
(302,334,o),
(303,227,c),
(302,110,o),
(255,74,o),
(197,74,cs)
);
}
);
};
layerId = m002;
shapes = (
{
closed = 1;
nodes = (
(850,-400,l),
(850,930,l),
(694,930,l),
(674,850,l),
(654,850,l),
(642,850,l),
(642,-400,l)
);
},
{
closed = 1;
nodes = (
(579,-24,o),
(720,72,o),
(728,330,c),
(642,330,l),
(634,198,o),
(542,152,o),
(456,152,cs),
(370,152,o),
(250,198,o),
(250,390,cs),
(250,540,ls),
(250,730,o),
(370,778,o),
(456,778,cs),
(542,778,o),
(634,730,o),
(642,600,c),
(722,600,l),
(697,855,o),
(615,954,o),
(428,954,cs),
(193,954,o),
(50,797,o),
(50,540,cs),
(50,390,ls),
(50,72,o),
(249,-24,o),
(414,-24,cs)
);
}
);
width = 933;
},
{
anchors = (
{
name = bottom;
pos = (465,0);
},
{
name = top;
pos = (465,930);
}
);
layerId = m004;
shapes = (
{
closed = 1;
nodes = (
(812,-400,l),
(812,930,l),
(752,930,l),
(732,830,l),
(712,830,l),
(732,762,l),
(732,-400,l)
);
},
{
closed = 1;
nodes = (
(294,954,o),
(86,850,o),
(88,568,cs),
(89,362,ls),
(91,134,o),
(224,-24,o),
(428,-24,cs),
(631,-24,o),
(779,138,o),
(784,382,c),
(732,384,l),
(727,182,o),
(605,48,o),
(428,48,cs),
(274,48,o),
(170,174,o),
(169,364,cs),
(168,566,ls),
(167,820,o),
(334,882,o),
(448,882,cs),
(628,882,o),
(726,780,o),
(732,526,c),
(786,528,l),
(780,814,o),
(672,954,o),
(448,954,cs)
);
}
);
width = 927;
},
{
anchors = (
{
name = bottom;
pos = (536,0);
},
{
name = top;
pos = (536,930);
}
);
layerId = m005;
shapes = (
{
closed = 1;
nodes = (
(930,-400,l),
(930,930,l),
(726,930,l),
(696,830,l),
(676,830,l),
(662,830,l),
(662,-400,l)
);
},
{
closed = 1;
nodes = (
(263,954,o),
(70,852,o),
(70,516,cs),
(70,414,ls),
(70,76,o),
(271,-24,o),
(447,-24,cs),
(664,-24,o),
(742,132,o),
(742,394,c),
(662,394,l),
(664,244,o),
(565,200,o),
(487,200,cs),
(411,200,o),
(330,252,o),
(330,394,cs),
(330,536,ls),
(330,680,o),
(411,730,o),
(487,730,cs),
(565,730,o),
(664,688,o),
(662,536,c),
(757,536,l),
(725,804,o),
(659,954,o),
(442,954,cs)
);
}
);
width = 1030;
},
{
anchors = (
{
name = bottom;
pos = (482,0);
},
{
name = top;
pos = (482,930);
}
);
layerId = "1B8EDE0E-D46F-48F9-B9C6-2CD34FEA95FD";
shapes = (
{
closed = 1;
nodes = (
(862,-400,l),
(862,930,l),
(736,930,l),
(716,850,l),
(696,850,l),
(686,850,l),
(686,-400,l)
);
},
{
closed = 1;
nodes = (
(651,-24,o),
(768,108,o),
(772,338,c),
(684,338,l),
(677,204,o),
(600,126,o),
(474,126,cs),
(330,126,o),
(250,211,o),
(250,364,cs),
(250,572,ls),
(250,711,o),
(340,804,o),
(474,804,cs),
(601,804,o),
(684,722,o),
(684,586,c),
(762,586,l),
(755,827,o),
(644,954,o),
(442,954,cs),
(227,954,o),
(80,787,o),
(80,542,cs),
(80,384,ls),
(80,136,o),
(226,-24,o),
(452,-24,cs)
);
}
);
width = 964;
}
);
metricLeft = "=o";
metricRight = "=n";
unicode = 113;
},
{
glyphname = r;
lastChange = "2025-11-21 20:58:09 +0000";
layers = (
{
anchors = (
{
name = bottom;
pos = (301,0);
},
{
name = top;
pos = (301,900);
}
);
background = {
shapes = (
{
closed = 1;
nodes = (
(473,0,l),
(473,255,ls),
(473,415,o),
(371,462,o),
(284,462,cs),
(199,462,o),
(131,413,o),
(127,285,c),
(177,285,l),
(181,350,o),
(227,374,o),
(270,374,cs),
(313,374,o),
(373,350,o),
(373,255,cs),
(373,0,l)
);
}
);
};
layerId = m002;
shapes = (
{
closed = 1;
nodes = (
(291,486,l),
(291,710,o),
(379,738,o),
(529,738,c),
(565,738,l),
(565,930,l),
(529,930,l),
(285,930,o),
(126,764,o),
(167,488,c)
);
},
{
closed = 1;
nodes = (
(291,0,l),
(291,850,l),
(279,850,l),
(259,850,l),
(239,930,l),
(83,930,l),
(83,0,l)
);
}
);
width = 617;
},
{
anchors = (
{
name = bottom;
pos = (249,0);
},
{
name = top;
pos = (249,900);
}
);
layerId = m004;
shapes = (
{
closed = 1;
nodes = (
(193,548,l),
(193,764,o),
(287,862,o),
(421,862,c),
(455,862,l),
(455,930,l),
(421,930,l),
(225,930,o),
(149,775,o),
(147,548,c)
);
},
{
closed = 1;
nodes = (
(195,0,l),
(195,762,l),
(215,830,l),
(195,830,l),
(175,930,l),
(115,930,l),
(115,0,l)
);
}
);
width = 497;
},
{
anchors = (
{
name = bottom;
pos = (348,0);
},
{
name = top;
pos = (348,900);
}
);
background = {
shapes = (
{
closed = 1;
nodes = (
(515,0,l),
(515,255,ls),
(515,415,o),
(413,462,o),
(326,462,cs),
(241,462,o),
(173,413,o),
(169,285,c),
(219,285,l),
(223,350,o),
(269,374,o),
(312,374,cs),
(355,374,o),
(415,350,o),
(415,255,cs),
(415,0,l)
);
}
);
};
layerId = m005;
shapes = (
{
closed = 1;
nodes = (
(369,438,l),
(369,666,o),
(432,690,o),
(578,690,cs),
(644,690,l),
(644,930,l),
(578,930,ls),
(306,930,o),
(293,722,o),
(286,440,c)
);
},
{
closed = 1;
nodes = (
(368,0,l),
(368,830,l),
(354,830,l),
(334,830,l),
(304,930,l),
(100,930,l),
(100,0,l)
);
}
);
width = 744;
},
{
anchors = (
{
name = bottom;
pos = (294,0);
},
{
name = top;
pos = (294,900);
}
);
layerId = "1B8EDE0E-D46F-48F9-B9C6-2CD34FEA95FD";
shapes = (
{
closed = 1;
nodes = (
(278,502,l),
(278,730,o),
(368,768,o),
(512,768,c),
(558,768,l),
(558,930,l),
(502,930,l),
(270,930,o),
(130,762,o),
(190,504,c)
);
},
{
closed = 1;
nodes = (
(278,0,l),
(278,850,l),
(268,850,l),
(248,850,l),
(228,930,l),
(102,930,l),
(102,0,l)
);
}
);
width = 616;
}
);
metricLeft = "=n";
unicode = 114;
},
{
glyphname = s;
lastChange = "2025-11-23 10:33:12 +0000";
layers = (
{
anchors = (
{
name = bottom;
pos = (374,12);
},
{
name = top;
pos = (374,912);
}
);
layerId = m002;
shapes = (
{
closed = 1;
nodes = (
(634,-24,o),
(716,90,o),
(716,242,cs),
(716,383,o),
(597,465,o),
(431,537,cs),
(336,578,o),
(248,621,o),
(248,708,cs),
(248,764,o),
(300,792,o),
(382,792,cs),
(472,792,o),
(524,740,o),
(524,654,c),
(718,654,l),
(718,904,o),
(518,954,o),
(382,954,cs),
(246,954,o),
(60,916,o),
(60,694,cs),
(60,561,o),
(117,459,o),
(342,366,cs),
(432,329,o),
(512,298,o),
(512,246,cs),
(512,198,o),
(486,142,o),
(388,142,cs),
(282,142,o),
(224,184,o),
(224,298,c),
(30,298,l),
(30,92,o),
(152,-24,o),
(394,-24,cs)
);
}
);
width = 748;
},
{
anchors = (
{
name = bottom;
pos = (333,0);
},
{
name = top;
pos = (333,900);
}
);
layerId = m004;
shapes = (
{
closed = 1;
nodes = (
(536,-24,o),
(656,52,o),
(656,216,cs),
(656,379,o),
(511,462,o),
(348,524,cs),
(213,575,o),
(150,625,o),
(150,734,cs),
(150,832,o),
(214,882,o),
(334,882,cs),
(454,882,o),
(548,838,o),
(548,704,c),
(628,704,l),
(628,894,o),
(476,954,o),
(334,954,cs),
(182,954,o),
(70,868,o),
(70,726,cs),
(70,591,o),
(135,518,o),
(315,454,cs),
(463,401,o),
(576,328,o),
(576,212,cs),
(576,62,o),
(442,48,o),
(354,48,cs),
(233,48,o),
(118,116,o),
(110,272,c),
(30,272,l),
(36,76,o),
(195,-24,o),
(354,-24,cs)
);
}
);
width = 686;
},
{
anchors = (
{
name = bottom;
pos = (394,12);
},
{
name = top;
pos = (394,912);
}
);
layerId = m005;
shapes = (
{
closed = 1;
nodes = (
(638,-24,o),
(756,104,o),
(756,232,cs),
(756,402,o),
(684,452,o),
(502,537,cs),
(375,596,o),
(308,617,o),
(308,688,cs),
(308,748,o),
(344,768,o),
(402,768,cs),
(472,768,o),
(512,720,o),
(502,630,c),
(758,630,l),
(772,898,o),
(538,954,o),
(402,954,cs),
(270,954,o),
(60,900,o),
(60,694,cs),
(60,554,o),
(125,465,o),
(304,389,cs),
(433,334,o),
(492,306,o),
(492,260,cs),
(492,228,o),
(472,190,o),
(408,190,cs),
(320,190,o),
(278,230,o),
(284,346,c),
(30,346,l),
(22,116,o),
(128,-24,o),
(414,-24,cs)
);
}
);
width = 789;
},
{
anchors = (
{
name = bottom;
pos = (372,0);
},
{
name = top;
pos = (372,890);
}
);
layerId = "1B8EDE0E-D46F-48F9-B9C6-2CD34FEA95FD";
shapes = (
{
closed = 1;
nodes = (
(586,-24,o),
(714,74,o),
(714,243,cs),
(714,406,o),
(525,479,o),
(416,518,cs),
(287,564,o),
(223,605,o),
(223,676,cs),
(223,751,o),
(285,799,o),
(377,799,cs),
(475,799,o),
(531,749,o),
(531,666,c),
(701,666,l),
(701,828,o),
(573,954,o),
(373,954,cs),
(172,954,o),
(53,823,o),
(53,678,cs),
(53,476,o),
(247,412,o),
(343,375,cs),
(423,344,o),
(546,313,o),
(546,226,cs),
(546,146,o),
(470,118,o),
(374,118,cs),
(264,118,o),
(198,168,o),
(196,292,c),
(30,292,l),
(32,88,o),
(142,-24,o),
(378,-24,cs)
);
}
);
width = 744;
}
);
metricLeft = "=30";
metricRight = "=|";
unicode = 115;
},
{
glyphname = t;
lastChange = "2025-11-21 20:58:09 +0000";
layers = (
{
anchors = (
{
name = bottom;
pos = (361,0);
},
{
name = center;
pos = (361,450);
},
{
name = top;
pos = (361,1120);
},
{
name = topright;
pos = (707,1360);
}
);
layerId = m002;
shapes = (
{
closed = 1;
nodes = (
(619,0,l),
(619,180,l),
(493,180,l),
(433,180,o),
(401,208,o),
(401,274,c),
(403,1150,l),
(195,1150,l),
(193,308,l),
(193,90,o),
(323,0,o),
(481,0,c)
);
},
{
closed = 1;
nodes = (
(619,756,l),
(619,930,l),
(45,930,l),
(45,754,l)
);
}
);
width = 702;
},
{
anchors = (
{
name = bottom;
pos = (284,0);
},
{
name = center;
pos = (284,450);
},
{
name = top;
pos = (284,1094);
},
{
name = topright;
pos = (517,1360);
}
);
layerId = m004;
shapes = (
{
closed = 1;
nodes = (
(453,0,l),
(453,72,l),
(353,72,ls),
(293,72,o),
(255,84,o),
(255,188,c),
(255,1124,l),
(175,1124,l),
(175,166,l),
(175,40,o),
(239,0,o),
(353,0,cs)
);
},
{
closed = 1;
nodes = (
(453,858,l),
(453,930,l),
(65,930,l),
(65,858,l)
);
}
);
width = 513;
},
{
anchors = (
{
name = bottom;
pos = (366,0);
},
{
name = center;
pos = (366,450);
},
{
name = top;
pos = (366,1124);
},
{
name = topright;
pos = (712,1360);
}
);
layerId = m005;
shapes = (
{
closed = 1;
nodes = (
(654,0,l),
(654,246,l),
(498,246,ls),
(454,246,o),
(436,264,o),
(436,316,cs),
(438,1154,l),
(170,1154,l),
(168,264,ls),
(168,78,o),
(282,0,o),
(418,0,cs)
);
},
{
closed = 1;
nodes = (
(654,710,l),
(654,930,l),
(20,930,l),
(20,708,l)
);
}
);
width = 754;
},
{
anchors = (
{
name = bottom;
pos = (366,0);
},
{
name = center;
pos = (366,450);
},
{
name = top;
pos = (366,1114);
},
{
name = topright;
pos = (684,1360);
}
);
layerId = "1B8EDE0E-D46F-48F9-B9C6-2CD34FEA95FD";
shapes = (
{
closed = 1;
nodes = (
(600,0,l),
(600,158,l),
(480,158,ls),
(420,158,o),
(386,192,o),
(386,258,c),
(388,1144,l),
(212,1144,l),
(210,272,l),
(210,76,o),
(324,0,o),
(470,0,cs)
);
},
{
closed = 1;
nodes = (
(600,784,l),
(600,930,l),
(72,930,l),
(72,782,l)
);
}
);
width = 680;
}
);
metricLeft = "=f";
unicode = 116;
},
{
glyphname = u;
lastChange = "2025-11-21 20:58:09 +0000";
layers = (
{
anchors = (
{
name = bottom;
pos = (483,0);
},
{
name = ogonek;
pos = (869,10);
},
{
name = top;
pos = (483,930);
},
{
name = topright;
pos = (946,930);
}
);
layerId = m002;
shapes = (
{
closed = 1;
nodes = (
(675,330,l),
(675,200,o),
(555,152,o),
(469,152,cs),
(383,152,o),
(283,200,o),
(283,390,cs),
(283,930,l),
(83,930,l),
(83,390,ls),
(83,70,o),
(267,-24,o),
(441,-24,cs),
(651,-24,o),
(707,74,o),
(755,330,c)
);
},
{
closed = 1;
nodes = (
(883,0,l),
(883,930,l),
(675,930,l),
(675,120,l),
(675,80,l),
(695,80,l),
(715,0,l)
);
}
);
width = 966;
},
{
anchors = (
{
name = bottom;
pos = (463,0);
},
{
name = ogonek;
pos = (817,10);
},
{
name = top;
pos = (463,930);
},
{
name = topright;
pos = (885,930);
}
);
layerId = m004;
shapes = (
{
closed = 1;
nodes = (
(731,354,l),
(731,132,o),
(623,48,o),
(441,48,cs),
(257,48,o),
(195,188,o),
(195,350,cs),
(195,930,l),
(115,930,l),
(115,358,ls),
(115,168,o),
(187,-24,o),
(441,-24,cs),
(675,-24,o),
(767,88,o),
(767,354,c)
);
},
{
closed = 1;
nodes = (
(810,0,l),
(810,930,l),
(730,930,l),
(730,168,l),
(710,100,l),
(730,100,l),
(750,0,l)
);
}
);
width = 925;
},
{
anchors = (
{
name = bottom;
pos = (532,0);
},
{
name = ogonek;
pos = (958,10);
},
{
name = top;
pos = (532,930);
},
{
name = topright;
pos = (1044,930);
}
);
layerId = m005;
shapes = (
{
closed = 1;
nodes = (
(696,389,l),
(696,244,o),
(612,198,o),
(532,198,cs),
(452,198,o),
(364,244,o),
(364,389,cs),
(364,930,l),
(100,930,l),
(100,414,ls),
(100,76,o),
(298,-24,o),
(484,-24,cs),
(719,-24,o),
(744,135,o),
(756,389,c)
);
},
{
closed = 1;
nodes = (
(964,0,l),
(964,930,l),
(696,930,l),
(696,100,l),
(710,100,l),
(730,100,l),
(760,0,l)
);
}
);
width = 1064;
},
{
anchors = (
{
name = bottom;
pos = (489,0);
},
{
name = ogonek;
pos = (880,10);
},
{
name = top;
pos = (489,930);
},
{
name = topright;
pos = (958,930);
}
);
layerId = "1B8EDE0E-D46F-48F9-B9C6-2CD34FEA95FD";
shapes = (
{
closed = 1;
nodes = (
(700,376,l),
(694,222,o),
(606,126,o),
(486,126,cs),
(366,126,o),
(272,188,o),
(272,376,cs),
(272,930,l),
(102,930,l),
(102,372,ls),
(102,74,o),
(280,-24,o),
(458,-24,cs),
(662,-24,o),
(816,116,o),
(776,376,c)
);
},
{
closed = 1;
nodes = (
(876,0,l),
(876,930,l),
(700,930,l),
(700,80,l),
(710,80,l),
(730,80,l),
(750,0,l)
);
}
);
width = 978;
}
);
metricLeft = "=|n";
metricRight = "=|n";
unicode = 117;
},
{
glyphname = v;
lastChange = "2025-11-21 20:58:09 +0000";
layers = (
{
anchors = (
{
name = bottom;
pos = (457,-1);
},
{
name = top;
pos = (457,899);
}
);
layerId = m002;
shapes = (
{
closed = 1;
nodes = (
(365,1,l),
(549,1,l),
(899,929,l),
(697,929,l),
(413,139,l),
(501,139,l),
(237,929,l),
(15,929,l)
);
}
);
width = 914;
},
{
anchors = (
{
name = bottom;
pos = (406,0);
},
{
name = top;
pos = (406,900);
}
);
layerId = m004;
shapes = (
{
closed = 1;
nodes = (
(372,0,l),
(440,0,l),
(752,930,l),
(670,930,l),
(386,66,l),
(428,66,l),
(140,930,l),
(60,930,l)
);
}
);
width = 812;
},
{
anchors = (
{
name = bottom;
pos = (487,0);
},
{
name = top;
pos = (487,900);
}
);
layerId = m005;
shapes = (
{
closed = 1;
nodes = (
(373,0,l),
(601,0,l),
(969,930,l),
(701,930,l),
(399,116,l),
(571,116,l),
(289,930,l),
(5,930,l)
);
}
);
width = 974;
},
{
anchors = (
{
name = bottom;
pos = (468,-1);
},
{
name = top;
pos = (468,899);
}
);
layerId = "1B8EDE0E-D46F-48F9-B9C6-2CD34FEA95FD";
shapes = (
{
closed = 1;
nodes = (
(390,1,l),
(546,1,l),
(886,929,l),
(716,929,l),
(432,121,l),
(502,121,l),
(226,929,l),
(50,929,l)
);
}
);
width = 936;
}
);
metricRight = "=|";
unicode = 118;
},
{
glyphname = w;
lastChange = "2025-11-21 20:58:09 +0000";
layers = (
{
anchors = (
{
name = bottom;
pos = (681,-1);
},
{
name = top;
pos = (681,899);
}
);
layerId = m002;
shapes = (
{
closed = 1;
nodes = (
(493,1,l),
(707,729,l),
(653,729,l),
(889,1,l),
(1091,1,l),
(1347,929,l),
(1151,929,l),
(969,197,l),
(1001,197,l),
(779,929,l),
(583,929,l),
(379,197,l),
(413,197,l),
(211,929,l),
(15,929,l),
(291,1,l)
);
}
);
width = 1362;
},
{
anchors = (
{
name = bottom;
pos = (676,0);
},
{
name = top;
pos = (676,900);
}
);
layerId = m004;
shapes = (
{
closed = 1;
nodes = (
(420,0,l),
(688,864,l),
(664,864,l),
(932,0,l),
(1000,0,l),
(1292,930,l),
(1212,930,l),
(942,62,l),
(990,60,l),
(724,930,l),
(628,930,l),
(364,66,l),
(410,66,l),
(140,930,l),
(60,930,l),
(352,0,l)
);
}
);
width = 1352;
},
{
anchors = (
{
name = bottom;
pos = (709,0);
},
{
name = top;
pos = (709,900);
}
);
layerId = m005;
shapes = (
{
closed = 1;
nodes = (
(545,0,l),
(773,754,l),
(641,754,l),
(895,0,l),
(1143,0,l),
(1413,930,l),
(1155,930,l),
(961,174,l),
(1067,174,l),
(831,930,l),
(587,930,l),
(369,174,l),
(483,174,l),
(267,930,l),
(5,930,l),
(295,0,l)
);
}
);
width = 1418;
},
{
anchors = (
{
name = bottom;
pos = (704,-1);
},
{
name = top;
pos = (704,899);
}
);
layerId = "1B8EDE0E-D46F-48F9-B9C6-2CD34FEA95FD";
shapes = (
{
closed = 1;
nodes = (
(498,1,l),
(726,763,l),
(680,763,l),
(924,1,l),
(1092,1,l),
(1358,929,l),
(1188,929,l),
(986,163,l),
(1028,163,l),
(790,929,l),
(618,929,l),
(394,163,l),
(436,163,l),
(220,929,l),
(50,929,l),
(330,1,l)
);
}
);
width = 1408;
}
);
metricLeft = "=v";
metricRight = "=|";
unicode = 119;
},
{
glyphname = x;
lastChange = "2025-11-21 20:58:09 +0000";
layers = (
{
anchors = (
{
name = bottom;
pos = (471,-1);
},
{
name = top;
pos = (471,899);
}
);
layerId = m002;
shapes = (
{
closed = 1;
nodes = (
(917,1,l),
(271,929,l),
(25,929,l),
(671,1,l)
);
},
{
closed = 1;
nodes = (
(561,418,l),
(907,929,l),
(671,929,l),
(433,566,l)
);
},
{
closed = 1;
nodes = (
(261,1,l),
(549,418,l),
(421,566,l),
(25,1,l)
);
}
);
width = 942;
},
{
anchors = (
{
name = bottom;
pos = (419,0);
},
{
name = top;
pos = (419,900);
}
);
layerId = m004;
shapes = (
{
closed = 1;
nodes = (
(787,1,l),
(153,929,l),
(61,929,l),
(695,1,l)
);
},
{
closed = 1;
nodes = (
(445,436,l),
(765,929,l),
(673,929,l),
(397,500,l)
);
},
{
closed = 1;
nodes = (
(143,1,l),
(437,436,l),
(389,500,l),
(51,1,l)
);
}
);
width = 838;
},
{
anchors = (
{
name = bottom;
pos = (508,-1);
},
{
name = top;
pos = (508,899);
}
);
layerId = m005;
shapes = (
{
closed = 1;
nodes = (
(1006,1,l),
(326,929,l),
(10,929,l),
(690,1,l)
);
},
{
closed = 1;
nodes = (
(590,357,l),
(994,929,l),
(690,929,l),
(424,549,l)
);
},
{
closed = 1;
nodes = (
(316,1,l),
(612,405,l),
(446,595,l),
(10,1,l)
);
}
);
width = 1016;
},
{
anchors = (
{
name = bottom;
pos = (481,-1);
},
{
name = top;
pos = (481,899);
}
);
layerId = "1B8EDE0E-D46F-48F9-B9C6-2CD34FEA95FD";
shapes = (
{
closed = 1;
nodes = (
(903,1,l),
(259,929,l),
(59,929,l),
(701,1,l)
);
},
{
closed = 1;
nodes = (
(546,409,l),
(905,929,l),
(705,929,l),
(442,551,l)
);
},
{
closed = 1;
nodes = (
(256,1,l),
(539,409,l),
(435,551,l),
(54,1,l)
);
}
);
width = 959;
}
);
metricRight = "=|";
unicode = 120;
},
{
glyphname = y;
lastChange = "2025-11-21 20:58:09 +0000";
layers = (
{
anchors = (
{
name = bottom;
pos = (457,-2);
},
{
name = top;
pos = (457,898);
}
);
background = {
shapes = (
{
closed = 1;
nodes = (
(154,2,l),
(246,2,l),
(421,451,l),
(323,451,l),
(178,71,l),
(222,71,l),
(77,451,l),
(-21,451,l)
);
}
);
};
layerId = m002;
shapes = (
{
closed = 1;
nodes = (
(191,-400,l),
(333,-400,o),
(415,-322,o),
(457,-210,cs),
(887,930,l),
(673,930,l),
(405,140,l),
(489,140,l),
(227,930,l),
(5,930,l),
(363,-42,l),
(365,44,l),
(315,-82,ls),
(285,-158,o),
(241,-214,o),
(169,-214,c),
(15,-214,l),
(15,-398,l)
);
}
);
width = 902;
},
{
anchors = (
{
name = bottom;
pos = (376,0);
},
{
name = top;
pos = (376,900);
}
);
layerId = m004;
shapes = (
{
closed = 1;
nodes = (
(60,-400,l),
(222,-400,o),
(282,-352,o),
(330,-210,cs),
(692,930,l),
(612,932,l),
(342,66,l),
(384,66,l),
(116,930,l),
(36,930,l),
(328,0,l),
(330,36,l),
(256,-186,ls),
(230,-268,o),
(190,-326,o),
(90,-326,c),
(-10,-326,l),
(-10,-400,l)
);
}
);
width = 752;
},
{
anchors = (
{
name = bottom;
pos = (487,200);
},
{
name = top;
pos = (487,1100);
}
);
layerId = m005;
shapes = (
{
closed = 1;
nodes = (
(201,-400,l),
(359,-400,o),
(449,-312,o),
(495,-194,cs),
(937,930,l),
(657,930,l),
(375,118,l),
(539,118,l),
(259,930,l),
(-25,930,l),
(399,-170,l),
(409,210,l),
(297,-50,ls),
(267,-120,o),
(233,-166,o),
(179,-166,cs),
(-5,-166,l),
(-5,-398,l)
);
}
);
width = 942;
},
{
anchors = (
{
name = bottom;
pos = (467,199);
},
{
name = top;
pos = (467,1099);
}
);
layerId = "1B8EDE0E-D46F-48F9-B9C6-2CD34FEA95FD";
shapes = (
{
closed = 1;
nodes = (
(183,-400,l),
(321,-400,o),
(395,-332,o),
(441,-210,cs),
(867,930,l),
(683,930,l),
(399,122,l),
(493,122,l),
(225,930,l),
(39,930,l),
(381,-44,l),
(353,42,l),
(297,-108,ls),
(267,-188,o),
(223,-240,o),
(143,-240,c),
(35,-240,l),
(35,-400,l)
);
}
);
width = 917;
}
);
metricRight = "=v";
unicode = 121;
},
{
glyphname = z;
lastChange = "2025-11-21 20:58:09 +0000";
layers = (
{
anchors = (
{
name = bottom;
pos = (415,0);
},
{
name = center;
pos = (415,450);
},
{
name = top;
pos = (415,900);
}
);
layerId = m002;
shapes = (
{
closed = 1;
nodes = (
(73,180,l),
(73,0,l),
(755,0,l),
(755,160,l),
(297,160,l),
(755,750,l),
(755,930,l),
(73,930,l),
(73,770,l),
(531,770,l)
);
}
);
width = 828;
},
{
anchors = (
{
name = bottom;
pos = (449,0);
},
{
name = center;
pos = (449,450);
},
{
name = top;
pos = (449,900);
}
);
layerId = m004;
shapes = (
{
closed = 1;
nodes = (
(105,60,l),
(105,0,l),
(763,0,l),
(763,72,l),
(211,72,l),
(763,870,l),
(763,930,l),
(105,930,l),
(105,858,l),
(659,858,l)
);
}
);
width = 868;
},
{
anchors = (
{
name = bottom;
pos = (462,0);
},
{
name = center;
pos = (462,450);
},
{
name = top;
pos = (462,900);
}
);
layerId = m005;
shapes = (
{
closed = 1;
nodes = (
(90,190,l),
(90,0,l),
(832,0,l),
(832,240,l),
(460,240,l),
(832,740,l),
(832,930,l),
(90,930,l),
(90,690,l),
(462,690,l)
);
}
);
width = 922;
},
{
anchors = (
{
name = bottom;
pos = (434,0);
},
{
name = center;
pos = (434,450);
},
{
name = top;
pos = (434,900);
}
);
layerId = "1B8EDE0E-D46F-48F9-B9C6-2CD34FEA95FD";
shapes = (
{
closed = 1;
nodes = (
(92,110,l),
(92,0,l),
(774,0,l),
(774,144,l),
(316,144,l),
(774,820,l),
(774,930,l),
(92,930,l),
(92,786,l),
(552,786,l)
);
}
);
width = 866;
}
);
metricLeft = "=n-10";
metricRight = "=|";
unicode = 122;
},
{
glyphname = zero;
lastChange = "2025-11-23 10:52:22 +0000";
layers = (
{
background = {
shapes = (
{
closed = 1;
nodes = (
(176,526,o),
(228,570,o),
(304,570,cs),
(370,570,o),
(422,526,o),
(422,325,cs),
(422,124,o),
(370,80,o),
(304,80,cs),
(228,80,o),
(176,124,o),
(176,325,cs)
);
},
{
closed = 1;
nodes = (
(65,53,o),
(175,-16,o),
(304,-16,cs),
(424,-16,o),
(533,53,o),
(533,325,cs),
(533,597,o),
(424,666,o),
(304,666,cs),
(175,666,o),
(65,597,o),
(65,325,cs)
);
}
);
};
layerId = m002;
shapes = (
{
closed = 1;
nodes = (
(696,-12,o),
(992,98,o),
(992,462,cs),
(992,842,ls),
(992,1226,o),
(696,1336,o),
(536,1336,cs),
(338,1336,o),
(80,1226,o),
(80,842,cs),
(80,462,ls),
(80,98,o),
(338,-12,o),
(536,-12,cs)
);
},
{
closed = 1;
nodes = (
(410,170,o),
(288,222,o),
(288,462,cs),
(288,842,ls),
(288,1102,o),
(410,1154,o),
(536,1156,cs),
(622,1158,o),
(784,1102,o),
(784,842,cs),
(784,462,ls),
(784,222,o),
(622,166,o),
(536,168,cs)
);
}
);
width = 1072;
},
{
layerId = m004;
shapes = (
{
closed = 1;
nodes = (
(601,-12,o),
(775,86,o),
(775,332,cs),
(775,992,ls),
(775,1238,o),
(601,1336,o),
(455,1336,cs),
(291,1336,o),
(135,1238,o),
(135,992,cs),
(135,332,ls),
(135,86,o),
(291,-12,o),
(455,-12,cs)
);
},
{
closed = 1;
nodes = (
(303,60,o),
(219,164,o),
(219,340,cs),
(219,984,ls),
(219,1160,o),
(303,1264,o),
(455,1264,cs),
(587,1264,o),
(691,1160,o),
(691,984,cs),
(691,340,ls),
(691,164,o),
(587,60,o),
(455,60,cs)
);
}
);
width = 910;
},
{
layerId = m005;
shapes = (
{
closed = 1;
nodes = (
(736,-12,o),
(1052,104,o),
(1052,486,cs),
(1052,794,ls),
(1052,1196,o),
(736,1312,o),
(566,1312,cs),
(358,1312,o),
(80,1196,o),
(80,794,cs),
(80,486,ls),
(80,104,o),
(358,-12,o),
(566,-12,cs)
);
},
{
closed = 1;
nodes = (
(450,228,o),
(348,276,o),
(348,478,cs),
(348,802,ls),
(348,1024,o),
(450,1072,o),
(566,1072,cs),
(682,1072,o),
(784,1024,o),
(784,802,cs),
(784,478,ls),
(784,268,o),
(682,228,o),
(566,228,cs)
);
}
);
width = 1132;
},
{
layerId = "1B8EDE0E-D46F-48F9-B9C6-2CD34FEA95FD";
shapes = (
{
closed = 1;
nodes = (
(648,-24,o),
(876,80,o),
(876,434,cs),
(876,858,ls),
(876,1220,o),
(648,1324,o),
(468,1324,cs),
(288,1324,o),
(60,1220,o),
(60,858,cs),
(60,434,ls),
(60,80,o),
(288,-24,o),
(468,-24,cs)
);
},
{
closed = 1;
nodes = (
(344,126,o),
(236,196,o),
(236,422,cs),
(236,870,ls),
(236,1104,o),
(344,1174,o),
(468,1172,cs),
(592,1170,o),
(700,1104,o),
(700,870,cs),
(700,422,ls),
(700,196,o),
(592,130,o),
(468,128,cs)
);
}
);
width = 936;
}
);
unicode = 48;
},
{
glyphname = one;
lastChange = "2025-11-24 21:37:33 +0000";
layers = (
{
layerId = m002;
shapes = (
{
closed = 1;
nodes = (
(622,1300,l),
(414,1300,l),
(414,1276,ls),
(414,1138,o),
(330,1112,o),
(208,1112,cs),
(82,1112,l),
(82,926,l),
(414,926,l),
(414,0,l),
(622,0,l)
);
}
);
width = 742;
},
{
background = {
shapes = (
{
closed = 0;
nodes = (
(145,670,l),
(145,618,o),
(126,612,o),
(96,612,cs),
(40,612,l),
(40,576,l),
(96,576,ls),
(153,576,o),
(185,596,o),
(185,659,c)
);
}
);
};
layerId = m004;
shapes = (
{
closed = 1;
nodes = (
(409,1300,l),
(325,1300,l),
(325,1276,ls),
(325,1164,o),
(261,1152,o),
(149,1152,cs),
(53,1152,l),
(53,1080,l),
(325,1080,l),
(325,0,l),
(409,0,l)
);
}
);
width = 579;
},
{
layerId = m005;
shapes = (
{
closed = 1;
nodes = (
(640,1300,l),
(372,1300,l),
(372,1276,l),
(372,1150,o),
(288,1124,o),
(206,1124,c),
(80,1124,l),
(80,884,l),
(372,884,l),
(372,0,l),
(640,0,l)
);
}
);
width = 705;
},
{
layerId = "1B8EDE0E-D46F-48F9-B9C6-2CD34FEA95FD";
shapes = (
{
closed = 1;
nodes = (
(482,1300,l),
(304,1300,l),
(304,1276,l),
(304,1148,o),
(226,1122,o),
(112,1122,c),
(50,1122,l),
(50,976,l),
(304,976,l),
(304,0,l),
(482,0,l)
);
}
);
width = 592;
}
);
metricRight = "=H";
unicode = 49;
},
{
glyphname = two;
lastChange = "2025-11-23 10:50:50 +0000";
layers = (
{
background = {
shapes = (
{
closed = 1;
nodes = (
(485,0,l),
(485,95,l),
(236,95,l),
(279,136,o),
(337,193,o),
(394,254,cs),
(446,309,o),
(482,358,o),
(482,450,cs),
(482,609,o),
(385,662,o),
(276,662,cs),
(164,662,o),
(76,609,o),
(76,450,c),
(179,450,l),
(179,526,o),
(217,566,o),
(276,567,cs),
(342,568,o),
(371,526,o),
(371,446,cs),
(371,400,o),
(350,358,o),
(302,309,cs),
(211,216,o),
(120,127,o),
(58,66,c),
(58,0,l)
);
}
);
};
layerId = m002;
shapes = (
{
closed = 1;
nodes = (
(922,0,l),
(922,190,l),
(330,190,l),
(358,124,l),
(702,470,ls),
(864,632,o),
(916,748,o),
(916,920,cs),
(916,1218,o),
(712,1324,o),
(494,1324,cs),
(270,1324,o),
(102,1200,o),
(102,920,c),
(310,920,l),
(310,1082,o),
(410,1132,o),
(504,1134,cs),
(606,1136,o),
(708,1062,o),
(708,912,cs),
(708,804,o),
(666,728,o),
(556,618,cs),
(68,132,l),
(68,0,l)
);
}
);
width = 550;
},
{
background = {
shapes = (
{
closed = 0;
nodes = (
(59,450,l)
);
}
);
};
layerId = m004;
shapes = (
{
closed = 1;
nodes = (
(737,0,l),
(737,72,l),
(163,72,l),
(181,16,l),
(531,466,ls),
(685,664,o),
(751,760,o),
(751,960,cs),
(751,1178,o),
(599,1324,o),
(411,1324,cs),
(217,1324,o),
(59,1178,o),
(59,900,c),
(143,900,l),
(143,1178,o),
(287,1252,o),
(411,1252,cs),
(523,1252,o),
(669,1178,o),
(669,960,cs),
(669,782,o),
(603,688,o),
(435,478,cs),
(83,34,l),
(83,0,l)
);
}
);
width = 831;
},
{
layerId = m005;
shapes = (
{
closed = 1;
nodes = (
(984,0,l),
(984,240,l),
(330,240,l),
(410,98,l),
(752,430,ls),
(924,598,o),
(978,722,o),
(978,916,cs),
(978,1210,o),
(756,1324,o),
(536,1324,cs),
(302,1324,o),
(128,1182,o),
(126,892,c),
(394,892,l),
(394,1034,o),
(470,1084,o),
(546,1086,cs),
(624,1088,o),
(710,1024,o),
(710,908,cs),
(710,790,o),
(676,710,o),
(566,610,cs),
(80,164,l),
(80,0,l)
);
}
);
width = 1064;
},
{
layerId = "1B8EDE0E-D46F-48F9-B9C6-2CD34FEA95FD";
shapes = (
{
closed = 1;
nodes = (
(888,0,l),
(888,152,l),
(250,152,l),
(280,82,l),
(686,526,ls),
(810,662,o),
(884,774,o),
(884,938,cs),
(884,1208,o),
(700,1324,o),
(482,1324,cs),
(278,1324,o),
(92,1200,o),
(92,900,c),
(264,900,l),
(264,1116,o),
(372,1170,o),
(488,1172,cs),
(606,1174,o),
(716,1108,o),
(716,932,cs),
(716,830,o),
(660,754,o),
(570,654,cs),
(80,110,l),
(80,0,l)
);
}
);
width = 968;
}
);
unicode = 50;
},
{
glyphname = three;
lastChange = "2025-11-23 10:52:16 +0000";
layers = (
{
layerId = m002;
shapes = (
{
closed = 1;
nodes = (
(678,-12,o),
(908,86,o),
(908,368,c),
(908,394,l),
(908,656,o),
(658,786,o),
(482,786,c),
(482,598,l),
(586,598,o),
(700,536,o),
(700,394,cs),
(700,368,ls),
(700,238,o),
(586,178,o),
(482,178,cs),
(376,178,o),
(268,232,o),
(268,368,c),
(268,382,l),
(60,382,l),
(60,366,l),
(60,86,o),
(284,-12,o),
(482,-12,cs)
);
},
{
closed = 1;
nodes = (
(482,598,l),
(618,598,o),
(866,702,o),
(866,964,cs),
(866,992,l),
(866,1238,o),
(638,1336,o),
(482,1336,cs),
(304,1336,o),
(94,1238,o),
(94,992,c),
(94,974,l),
(302,974,l),
(302,990,ls),
(302,1080,o),
(370,1146,o),
(482,1146,cs),
(586,1146,o),
(658,1080,o),
(658,990,cs),
(658,964,ls),
(658,848,o),
(566,786,o),
(482,786,c)
);
},
{
closed = 1;
nodes = (
(430,598,l),
(482,598,l),
(482,786,l),
(430,786,l)
);
}
);
width = 988;
},
{
background = {
shapes = (
{
closed = 0;
nodes = (
(168,16,ls),
(96,16,o),
(20,57,o),
(20,196,c),
(-18,196,l),
(-18,57,o),
(56,-16,o),
(168,-16,cs)
);
}
);
};
layerId = m004;
shapes = (
{
closed = 1;
nodes = (
(569,-12,o),
(743,86,o),
(743,332,cs),
(743,392,ls),
(743,660,o),
(549,736,o),
(423,736,c),
(423,664,l),
(535,664,o),
(659,580,o),
(659,384,cs),
(659,340,ls),
(659,164,o),
(555,60,o),
(403,60,cs),
(233,60,o),
(149,162,o),
(147,332,c),
(147,340,l),
(63,340,l),
(63,332,l),
(63,86,o),
(219,-12,o),
(403,-12,cs)
);
},
{
closed = 1;
nodes = (
(423,664,l),
(549,664,o),
(723,742,o),
(723,962,cs),
(723,1014,ls),
(723,1214,o),
(549,1312,o),
(403,1312,cs),
(239,1312,o),
(83,1214,o),
(83,1014,cs),
(83,1006,l),
(167,1006,l),
(167,1014,l),
(167,1160,o),
(251,1240,o),
(403,1240,cs),
(535,1240,o),
(639,1156,o),
(639,1006,cs),
(639,970,ls),
(639,820,o),
(535,736,o),
(423,736,c)
);
},
{
closed = 1;
nodes = (
(397,664,l),
(423,664,l),
(423,736,l),
(397,736,l)
);
}
);
width = 878;
},
{
background = {
shapes = (
{
closed = 0;
nodes = (
(249,83,ls),
(190,84,o),
(152,114,o),
(152,200,c),
(49,200,l),
(49,31,o),
(147,-12,o),
(249,-12,cs)
);
}
);
};
layerId = m005;
shapes = (
{
closed = 1;
nodes = (
(738,-12,o),
(988,92,o),
(988,392,c),
(988,420,ls),
(988,712,o),
(694,808,o),
(522,808,c),
(522,576,l),
(620,576,o),
(720,510,o),
(720,418,cs),
(720,392,ls),
(720,278,o),
(624,226,o),
(532,226,cs),
(438,226,o),
(348,272,o),
(348,392,cs),
(348,430,l),
(80,430,l),
(80,390,l),
(80,92,o),
(324,-12,o),
(532,-12,cs)
);
},
{
closed = 1;
nodes = (
(522,576,l),
(640,578,o),
(946,640,o),
(946,938,cs),
(946,966,l),
(946,1232,o),
(698,1336,o),
(532,1336,cs),
(342,1336,o),
(114,1230,o),
(114,966,c),
(114,926,l),
(382,926,l),
(382,966,ls),
(382,1044,o),
(448,1098,o),
(532,1098,cs),
(616,1098,o),
(678,1044,o),
(678,966,cs),
(678,940,ls),
(678,860,o),
(604,808,o),
(522,808,c)
);
},
{
closed = 1;
nodes = (
(434,576,l),
(522,576,l),
(522,808,l),
(434,808,l)
);
}
);
width = 1068;
},
{
layerId = "1B8EDE0E-D46F-48F9-B9C6-2CD34FEA95FD";
shapes = (
{
closed = 1;
nodes = (
(662,-24,o),
(890,74,o),
(890,356,c),
(890,382,l),
(890,664,o),
(662,764,o),
(486,764,c),
(486,612,l),
(590,612,o),
(714,568,o),
(714,382,cs),
(714,356,ls),
(714,170,o),
(590,128,o),
(486,128,cs),
(360,128,o),
(256,170,o),
(256,356,cs),
(256,370,l),
(80,370,l),
(80,354,l),
(80,74,o),
(288,-24,o),
(486,-24,cs)
);
},
{
closed = 1;
nodes = (
(486,612,l),
(622,612,o),
(850,710,o),
(850,950,c),
(850,980,l),
(850,1226,o),
(642,1324,o),
(486,1324,cs),
(308,1324,o),
(120,1226,o),
(120,978,c),
(120,962,l),
(296,962,l),
(296,978,ls),
(296,1130,o),
(380,1172,o),
(486,1172,cs),
(570,1172,o),
(674,1130,o),
(674,978,cs),
(674,952,ls),
(674,826,o),
(570,764,o),
(486,764,c)
);
},
{
closed = 1;
nodes = (
(408,612,l),
(486,612,l),
(486,764,l),
(408,764,l)
);
}
);
width = 970;
}
);
unicode = 51;
},
{
glyphname = four;
lastChange = "2025-11-21 20:58:09 +0000";
layers = (
{
layerId = m002;
shapes = (
{
closed = 1;
nodes = (
(577,700,l),
(577,0,l),
(785,0,l),
(785,700,l)
);
},
{
closed = 1;
nodes = (
(65,272,l),
(939,272,l),
(939,462,l),
(367,462,l),
(811,1300,l),
(577,1300,l),
(65,386,l)
);
}
);
width = 550;
},
{
layerId = m004;
shapes = (
{
closed = 1;
nodes = (
(525,620,l),
(525,0,l),
(609,0,l),
(609,620,l)
);
},
{
closed = 1;
nodes = (
(45,274,l),
(759,274,l),
(759,346,l),
(133,346,l),
(615,1300,l),
(529,1300,l),
(45,346,l)
);
}
);
width = 810;
},
{
layerId = m005;
shapes = (
{
closed = 1;
nodes = (
(596,680,l),
(596,0,l),
(864,0,l),
(864,680,l)
);
},
{
closed = 1;
nodes = (
(80,226,l),
(994,226,l),
(994,466,l),
(422,466,l),
(876,1300,l),
(576,1300,l),
(80,418,l)
);
}
);
width = 1074;
},
{
layerId = "1B8EDE0E-D46F-48F9-B9C6-2CD34FEA95FD";
shapes = (
{
closed = 1;
nodes = (
(556,654,l),
(556,0,l),
(734,0,l),
(734,654,l)
);
},
{
closed = 1;
nodes = (
(60,226,l),
(882,226,l),
(882,378,l),
(272,378,l),
(726,1300,l),
(546,1300,l),
(60,340,l)
);
}
);
width = 942;
}
);
unicode = 52;
},
{
glyphname = five;
lastChange = "2025-11-23 10:52:41 +0000";
layers = (
{
background = {
shapes = (
{
closed = 0;
nodes = (
(281,461,ls),
(188,461,o),
(125,393,o),
(125,303,c)
);
}
);
};
layerId = m002;
shapes = (
{
closed = 1;
nodes = (
(658,-12,o),
(912,86,o),
(912,366,cs),
(912,574,l),
(912,856,o),
(676,934,o),
(498,934,cs),
(214,934,o),
(246,714,o),
(86,592,c),
(294,592,l),
(316,714,o),
(384,744,o),
(498,744,cs),
(612,744,o),
(704,694,o),
(704,550,cs),
(704,390,ls),
(704,242,o),
(612,178,o),
(498,178,cs),
(384,178,o),
(292,242,o),
(292,390,cs),
(292,404,l),
(84,404,l),
(84,388,l),
(84,88,o),
(304,-12,o),
(498,-12,cs)
);
},
{
closed = 1;
nodes = (
(296,622,l),
(296,1122,l),
(858,1122,l),
(858,1312,l),
(90,1312,l),
(86,592,l)
);
}
);
width = 992;
},
{
background = {
shapes = (
{
closed = 1;
nodes = (
(304,-12,o),
(391,37,o),
(391,160,cs),
(391,290,ls),
(391,413,o),
(304,462,o),
(231,462,cs),
(149,462,o),
(71,413,o),
(71,290,cs),
(71,160,ls),
(71,37,o),
(149,-12,o),
(231,-12,cs)
);
},
{
closed = 1;
nodes = (
(155,24,o),
(113,76,o),
(113,164,cs),
(113,286,ls),
(113,374,o),
(155,426,o),
(231,426,cs),
(297,426,o),
(349,374,o),
(349,286,cs),
(349,164,ls),
(349,76,o),
(297,24,o),
(231,24,cs)
);
}
);
};
layerId = m004;
shapes = (
{
closed = 1;
nodes = (
(568,-12,o),
(742,86,o),
(742,332,cs),
(742,612,l),
(742,858,o),
(568,956,o),
(422,956,cs),
(258,956,o),
(102,858,o),
(102,612,c),
(186,612,l),
(186,780,o),
(270,884,o),
(422,884,cs),
(554,884,o),
(658,780,o),
(658,604,cs),
(658,340,ls),
(658,164,o),
(554,60,o),
(422,60,cs),
(270,60,o),
(186,164,o),
(186,340,cs),
(186,404,l),
(102,404,l),
(102,332,l),
(102,86,o),
(258,-12,o),
(422,-12,cs)
);
},
{
closed = 1;
nodes = (
(186,612,l),
(186,1240,l),
(684,1240,l),
(684,1312,l),
(100,1312,l),
(102,612,l)
);
}
);
width = 877;
},
{
background = {
shapes = (
{
closed = 0;
nodes = (
(294,342,ls),
(249,342,o),
(209,312,o),
(209,247,cs)
);
}
);
};
layerId = m005;
shapes = (
{
closed = 1;
nodes = (
(678,-12,o),
(946,72,o),
(946,370,cs),
(946,534,ls),
(946,852,o),
(682,936,o),
(508,936,cs),
(302,936,o),
(122,670,o),
(80,566,c),
(344,566,l),
(370,662,o),
(440,696,o),
(508,696,cs),
(598,696,o),
(678,636,o),
(678,506,cs),
(678,374,ls),
(678,244,o),
(598,188,o),
(508,188,cs),
(418,188,o),
(344,226,o),
(344,374,cs),
(344,392,l),
(80,392,l),
(80,372,l),
(80,72,o),
(338,-12,o),
(508,-12,cs)
);
},
{
closed = 1;
nodes = (
(352,634,l),
(352,1072,l),
(874,1072,l),
(874,1312,l),
(86,1312,l),
(80,566,l)
);
}
);
width = 1026;
},
{
layerId = "1B8EDE0E-D46F-48F9-B9C6-2CD34FEA95FD";
shapes = (
{
closed = 1;
nodes = (
(598,-24,o),
(822,94,o),
(822,354,cs),
(822,564,ls),
(822,824,o),
(604,922,o),
(438,922,cs),
(170,922,o),
(92,698,o),
(62,620,c),
(230,620,l),
(230,726,o),
(322,770,o),
(438,770,cs),
(532,770,o),
(650,704,o),
(650,538,cs),
(650,378,ls),
(650,192,o),
(526,128,o),
(438,128,cs),
(316,128,o),
(228,172,o),
(228,378,cs),
(228,392,l),
(60,392,l),
(60,376,l),
(60,96,o),
(244,-24,o),
(438,-24,cs)
);
},
{
closed = 1;
nodes = (
(240,678,l),
(240,1148,l),
(774,1148,l),
(774,1300,l),
(66,1300,l),
(62,620,l)
);
}
);
width = 882;
}
);
unicode = 53;
},
{
glyphname = six;
lastChange = "2025-11-23 10:53:54 +0000";
layers = (
{
layerId = m002;
shapes = (
{
closed = 1;
nodes = (
(715,267,o),
(617,177,o),
(491,177,cs),
(363,177,o),
(265,267,o),
(265,387,c),
(265,415,l),
(265,585,o),
(377,645,o),
(491,645,cs),
(611,645,o),
(713,565,o),
(715,417,c),
(715,387,l)
);
},
{
closed = 1;
nodes = (
(667,-13,o),
(923,89,o),
(923,385,c),
(923,413,l),
(923,743,o),
(651,833,o),
(491,833,cs),
(361,833,o),
(279,735,o),
(191,625,c),
(375,685,l),
(789,1313,l),
(547,1313,l),
(247,887,ls),
(171,779,o),
(57,603,o),
(57,413,cs),
(57,413,o),
(57,385,o),
(57,385,cs),
(57,65,o),
(297,-13,o),
(491,-13,cs)
);
}
);
width = 550;
},
{
background = {
shapes = (
{
closed = 1;
nodes = (
(360,207,ls),
(360,330,o),
(273,379,o),
(198,379,cs),
(118,379,o),
(40,330,o),
(40,207,cs),
(40,207,o),
(40,196,o),
(40,185,c),
(82,185,l),
(82,203,ls),
(82,291,o),
(124,343,o),
(198,343,cs),
(266,343,o),
(318,291,o),
(318,203,cs),
(318,185,l),
(360,185,l)
);
}
);
};
layerId = m004;
shapes = (
{
closed = 1;
nodes = (
(626,164,o),
(522,60,o),
(386,60,cs),
(238,60,o),
(154,164,o),
(154,340,cs),
(154,418,ls),
(154,594,o),
(238,698,o),
(386,698,cs),
(522,698,o),
(626,594,o),
(626,426,cs),
(626,340,ls)
);
},
{
closed = 1;
nodes = (
(536,-12,o),
(710,86,o),
(710,332,cs),
(710,422,ls),
(710,672,o),
(536,770,o),
(386,770,cs),
(226,770,o),
(184,660,o),
(108,628,c),
(152,622,l),
(634,1312,l),
(538,1312,l),
(310,990,ls),
(112,712,o),
(70,590,o),
(70,426,c),
(70,426,o),
(70,332,o),
(70,332,cs),
(70,86,o),
(226,-12,o),
(386,-12,cs)
);
}
);
width = 750;
},
{
layerId = m005;
shapes = (
{
closed = 1;
nodes = (
(738,304,o),
(652,226,o),
(544,226,cs),
(434,226,o),
(348,304,o),
(348,412,cs),
(348,440,ls),
(348,594,o),
(442,646,o),
(544,646,cs),
(648,646,o),
(736,578,o),
(738,442,cs),
(738,412,ls)
);
},
{
closed = 1;
nodes = (
(730,-12,o),
(1006,96,o),
(1006,410,cs),
(1006,438,ls),
(1006,786,o),
(712,882,o),
(544,882,cs),
(368,882,o),
(272,724,o),
(168,600,c),
(450,692,l),
(872,1312,l),
(562,1312,l),
(276,926,ls),
(196,818,o),
(80,634,o),
(80,438,c),
(80,438,o),
(80,410,o),
(80,410,cs),
(80,72,o),
(342,-12,o),
(544,-12,cs)
);
}
);
width = 1086;
},
{
layerId = "1B8EDE0E-D46F-48F9-B9C6-2CD34FEA95FD";
shapes = (
{
closed = 1;
nodes = (
(714,222,o),
(590,140,o),
(476,140,cs),
(340,140,o),
(236,222,o),
(236,368,c),
(236,416,l),
(236,566,o),
(354,642,o),
(476,642,cs),
(584,642,o),
(712,566,o),
(714,418,c),
(714,368,l)
);
},
{
closed = 1;
nodes = (
(662,-12,o),
(890,106,o),
(890,366,c),
(890,414,l),
(890,684,o),
(650,794,o),
(476,794,cs),
(332,794,o),
(264,736,o),
(176,626,c),
(336,706,l),
(730,1314,l),
(532,1314,l),
(244,868,ls),
(114,662,o),
(60,524,o),
(60,402,cs),
(60,402,o),
(60,366,o),
(60,366,cs),
(60,86,o),
(268,-12,o),
(476,-12,cs)
);
}
);
width = 950;
}
);
unicode = 54;
},
{
glyphname = seven;
lastChange = "2025-11-21 20:58:09 +0000";
layers = (
{
layerId = m002;
shapes = (
{
closed = 1;
nodes = (
(397,0,l),
(885,1168,l),
(885,1300,l),
(25,1300,l),
(25,1110,l),
(757,1110,l),
(677,1210,l),
(175,0,l)
);
}
);
width = 500;
},
{
layerId = m004;
shapes = (
{
closed = 1;
nodes = (
(284,0,l),
(712,1268,l),
(712,1300,l),
(40,1300,l),
(40,1228,l),
(656,1228,l),
(626,1260,l),
(202,0,l)
);
}
);
width = 752;
},
{
layerId = m005;
shapes = (
{
closed = 1;
nodes = (
(452,0,l),
(900,1168,l),
(900,1300,l),
(80,1300,l),
(80,1060,l),
(772,1060,l),
(622,1210,l),
(160,0,l)
);
}
);
width = 1060;
},
{
layerId = "1B8EDE0E-D46F-48F9-B9C6-2CD34FEA95FD";
shapes = (
{
closed = 1;
nodes = (
(408,0,l),
(868,1194,l),
(868,1300,l),
(60,1300,l),
(60,1148,l),
(770,1148,l),
(704,1238,l),
(226,0,l)
);
}
);
width = 928;
}
);
unicode = 55;
},
{
glyphname = eight;
lastChange = "2025-11-21 20:58:09 +0000";
layers = (
{
layerId = m002;
shapes = (
{
closed = 1;
nodes = (
(672,-12,o),
(900,76,o),
(900,366,cs),
(900,396,ls),
(900,656,o),
(672,770,o),
(486,770,cs),
(278,770,o),
(70,656,o),
(70,396,c),
(70,366,l),
(70,76,o),
(278,-12,o),
(486,-12,cs)
);
},
{
closed = 1;
nodes = (
(350,178,o),
(278,254,o),
(278,368,cs),
(278,394,ls),
(278,506,o),
(350,590,o),
(486,590,cs),
(600,590,o),
(692,506,o),
(692,394,cs),
(692,368,ls),
(692,254,o),
(600,178,o),
(486,178,cs)
);
},
{
closed = 1;
nodes = (
(632,590,o),
(860,702,o),
(860,962,cs),
(860,992,ls),
(860,1238,o),
(652,1336,o),
(486,1336,cs),
(298,1336,o),
(110,1238,o),
(110,992,c),
(110,962,l),
(110,702,o),
(318,590,o),
(486,590,cs)
);
},
{
closed = 1;
nodes = (
(390,770,o),
(318,834,o),
(318,940,cs),
(318,982,ls),
(318,1080,o),
(390,1146,o),
(486,1146,cs),
(580,1146,o),
(652,1080,o),
(652,982,cs),
(652,940,ls),
(652,834,o),
(580,770,o),
(486,770,cs)
);
}
);
width = 970;
},
{
layerId = m004;
shapes = (
{
closed = 1;
nodes = (
(546,-12,o),
(720,86,o),
(720,292,cs),
(720,412,ls),
(720,658,o),
(526,736,o),
(400,736,cs),
(256,736,o),
(80,658,o),
(80,412,c),
(80,292,l),
(80,86,o),
(236,-12,o),
(400,-12,cs)
);
},
{
closed = 1;
nodes = (
(248,60,o),
(164,164,o),
(164,300,cs),
(164,404,ls),
(164,580,o),
(268,664,o),
(400,664,cs),
(512,664,o),
(636,580,o),
(636,404,cs),
(636,300,ls),
(636,164,o),
(532,60,o),
(400,60,cs)
);
},
{
closed = 1;
nodes = (
(526,664,o),
(700,762,o),
(700,962,cs),
(700,1014,ls),
(700,1214,o),
(526,1312,o),
(400,1312,cs),
(256,1312,o),
(100,1214,o),
(100,1014,cs),
(100,962,ls),
(100,762,o),
(256,664,o),
(400,664,cs)
);
},
{
closed = 1;
nodes = (
(268,736,o),
(184,820,o),
(184,970,cs),
(184,1006,ls),
(184,1156,o),
(268,1240,o),
(400,1240,cs),
(512,1240,o),
(616,1156,o),
(616,1006,cs),
(616,970,ls),
(616,820,o),
(512,736,o),
(400,736,cs)
);
}
);
width = 800;
},
{
layerId = m005;
shapes = (
{
closed = 1;
nodes = (
(722,-12,o),
(970,82,o),
(970,368,c),
(970,396,ls),
(970,692,o),
(724,794,o),
(526,794,cs),
(306,794,o),
(80,692,o),
(80,396,c),
(80,368,l),
(80,118,o),
(262,-12,o),
(526,-12,cs)
);
},
{
closed = 1;
nodes = (
(408,226,o),
(348,290,o),
(348,368,cs),
(348,394,ls),
(348,516,o),
(410,566,o),
(526,566,cs),
(622,566,o),
(702,514,o),
(702,394,cs),
(702,368,ls),
(702,292,o),
(624,226,o),
(526,226,cs)
);
},
{
closed = 1;
nodes = (
(684,586,o),
(930,686,o),
(930,948,cs),
(930,978,ls),
(930,1232,o),
(704,1336,o),
(526,1336,cs),
(326,1336,o),
(120,1230,o),
(120,978,c),
(120,948,l),
(120,686,o),
(346,586,o),
(526,586,cs)
);
},
{
closed = 1;
nodes = (
(448,794,o),
(388,846,o),
(388,926,cs),
(388,968,ls),
(388,1044,o),
(448,1098,o),
(526,1098,cs),
(602,1098,o),
(662,1044,o),
(662,968,cs),
(662,926,ls),
(662,846,o),
(602,794,o),
(526,794,cs)
);
}
);
width = 1050;
},
{
layerId = "1B8EDE0E-D46F-48F9-B9C6-2CD34FEA95FD";
shapes = (
{
closed = 1;
nodes = (
(642,-12,o),
(850,76,o),
(850,346,cs),
(850,416,ls),
(850,636,o),
(622,770,o),
(456,770,cs),
(268,770,o),
(60,636,o),
(60,416,c),
(60,346,l),
(60,96,o),
(268,-12,o),
(456,-12,cs)
);
},
{
closed = 1;
nodes = (
(340,140,o),
(236,214,o),
(236,348,cs),
(236,414,ls),
(236,566,o),
(340,630,o),
(456,630,cs),
(550,630,o),
(674,566,o),
(674,414,cs),
(674,348,ls),
(674,194,o),
(550,140,o),
(456,140,cs)
);
},
{
closed = 1;
nodes = (
(602,630,o),
(810,722,o),
(810,962,cs),
(810,992,ls),
(810,1238,o),
(622,1336,o),
(456,1336,cs),
(268,1336,o),
(100,1238,o),
(100,992,c),
(100,962,l),
(100,722,o),
(288,630,o),
(456,630,cs)
);
},
{
closed = 1;
nodes = (
(340,770,o),
(276,834,o),
(276,964,cs),
(276,990,ls),
(276,1120,o),
(340,1184,o),
(456,1184,cs),
(550,1184,o),
(634,1120,o),
(634,990,cs),
(634,964,ls),
(634,834,o),
(550,770,o),
(456,770,cs)
);
}
);
width = 910;
}
);
unicode = 56;
},
{
glyphname = nine;
lastChange = "2025-11-21 20:58:09 +0000";
layers = (
{
background = {
shapes = (
{
closed = 1;
nodes = (
(141,540,o),
(180,578,o),
(265,578,cs),
(340,578,o),
(379,540,o),
(379,457,cs),
(379,375,o),
(351,323,o),
(257,323,cs),
(180,323,o),
(141,375,o),
(141,457,cs)
);
},
{
closed = 1;
nodes = (
(136,664,o),
(36,604,o),
(36,459,cs),
(36,314,o),
(126,237,o),
(257,237,cs),
(309,237,o),
(349,249,o),
(388,281,c),
(384,128,o),
(361,85,o),
(263,85,cs),
(176,85,o),
(137,125,o),
(137,202,c),
(41,202,l),
(41,43,o),
(129,-10,o),
(261,-10,cs),
(403,-10,o),
(488,72,o),
(492,344,cs),
(492,495,o),
(482,664,o),
(265,664,cs)
);
}
);
};
layerId = m002;
shapes = (
{
closed = 1;
nodes = (
(252,1091,o),
(356,1155,o),
(490,1155,cs),
(626,1155,o),
(730,1091,o),
(730,925,c),
(730,897,l),
(730,707,o),
(612,647,o),
(490,647,cs),
(362,647,o),
(254,727,o),
(252,895,c),
(252,925,l)
);
},
{
closed = 1;
nodes = (
(304,1325,o),
(48,1247,o),
(48,927,c),
(48,899,l),
(48,569,o),
(316,479,o),
(490,479,cs),
(634,479,o),
(702,577,o),
(790,687,c),
(606,627,l),
(172,-1,l),
(434,-1,l),
(734,425,ls),
(810,533,o),
(938,737,o),
(938,899,cs),
(938,899,o),
(938,927,o),
(938,927,cs),
(938,1247,o),
(698,1325,o),
(490,1325,cs)
);
}
);
width = 550;
},
{
layerId = m004;
shapes = (
{
closed = 1;
nodes = (
(154,1136,o),
(258,1240,o),
(394,1240,cs),
(542,1240,o),
(626,1136,o),
(626,960,cs),
(626,882,ls),
(626,706,o),
(542,602,o),
(394,602,cs),
(258,602,o),
(154,706,o),
(154,874,cs),
(154,960,ls)
);
},
{
closed = 1;
nodes = (
(244,1312,o),
(70,1214,o),
(70,968,cs),
(70,878,ls),
(70,628,o),
(244,530,o),
(394,530,cs),
(554,530,o),
(596,640,o),
(672,672,c),
(628,678,l),
(146,-12,l),
(242,-12,l),
(544,414,ls),
(668,588,o),
(710,730,o),
(710,874,c),
(710,874,o),
(710,968,o),
(710,968,cs),
(710,1214,o),
(554,1312,o),
(394,1312,cs)
);
}
);
width = 750;
},
{
layerId = m005;
shapes = (
{
closed = 1;
nodes = (
(348,1008,o),
(434,1086,o),
(542,1086,cs),
(652,1086,o),
(738,1008,o),
(738,900,cs),
(738,872,ls),
(738,718,o),
(644,666,o),
(542,666,cs),
(438,666,o),
(350,734,o),
(348,870,cs),
(348,900,ls)
);
},
{
closed = 1;
nodes = (
(356,1324,o),
(80,1216,o),
(80,902,cs),
(80,874,ls),
(80,526,o),
(374,430,o),
(542,430,cs),
(718,430,o),
(814,588,o),
(918,712,c),
(636,620,l),
(214,0,l),
(524,0,l),
(810,386,ls),
(890,494,o),
(1006,678,o),
(1006,874,c),
(1006,874,o),
(1006,902,o),
(1006,902,cs),
(1006,1240,o),
(744,1324,o),
(542,1324,cs)
);
}
);
width = 1086;
},
{
layerId = "1B8EDE0E-D46F-48F9-B9C6-2CD34FEA95FD";
shapes = (
{
closed = 1;
nodes = (
(236,1092,o),
(360,1174,o),
(474,1174,cs),
(610,1174,o),
(714,1092,o),
(714,946,c),
(714,898,l),
(714,748,o),
(596,672,o),
(474,672,cs),
(366,672,o),
(238,748,o),
(236,896,c),
(236,946,l)
);
},
{
closed = 1;
nodes = (
(288,1326,o),
(60,1208,o),
(60,948,c),
(60,900,l),
(60,630,o),
(300,520,o),
(474,520,cs),
(618,520,o),
(686,578,o),
(774,688,c),
(614,608,l),
(220,0,l),
(418,0,l),
(706,446,ls),
(836,652,o),
(890,790,o),
(890,912,cs),
(890,912,o),
(890,948,o),
(890,948,cs),
(890,1228,o),
(682,1326,o),
(474,1326,cs)
);
}
);
width = 950;
}
);
unicode = 57;
},
{
glyphname = period;
lastChange = "2025-11-21 21:40:00 +0000";
layers = (
{
layerId = m002;
shapes = (
{
closed = 1;
nodes = (
(245,-12,o),
(293,40,o),
(293,120,cs),
(293,196,o),
(245,246,o),
(163,246,cs),
(81,246,o),
(33,196,o),
(33,120,cs),
(33,40,o),
(81,-12,o),
(163,-12,cs)
);
}
);
width = 326;
},
{
layerId = m004;
shapes = (
{
closed = 1;
nodes = (
(175,-24,o),
(205,6,o),
(205,55,cs),
(205,103,o),
(175,133,o),
(126,133,cs),
(77,133,o),
(47,103,o),
(47,55,cs),
(47,6,o),
(77,-24,o),
(126,-24,cs)
);
}
);
width = 252;
},
{
layerId = m005;
shapes = (
{
closed = 1;
nodes = (
(246,-24,o),
(298,34,o),
(298,120,cs),
(298,202,o),
(246,258,o),
(158,258,cs),
(70,258,o),
(18,202,o),
(18,120,cs),
(18,34,o),
(70,-24,o),
(158,-24,cs)
);
}
);
width = 316;
},
{
layerId = "1B8EDE0E-D46F-48F9-B9C6-2CD34FEA95FD";
shapes = (
{
closed = 1;
nodes = (
(211,-24,o),
(249,18,o),
(249,90,cs),
(249,158,o),
(211,198,o),
(137,198,cs),
(63,198,o),
(25,158,o),
(25,90,cs),
(25,18,o),
(63,-24,o),
(137,-24,cs)
);
}
);
width = 274;
}
);
metricRight = "=|";
unicode = 46;
},
{
glyphname = comma;
lastChange = "2025-11-21 21:40:57 +0000";
layers = (
{
layerId = m002;
shapes = (
{
closed = 1;
nodes = (
(227,-260,l),
(353,240,l),
(90,240,l),
(20,-260,l)
);
}
);
width = 373;
},
{
layerId = m004;
shapes = (
{
closed = 1;
nodes = (
(107,-200,l),
(203,200,l),
(90,200,l),
(30,-200,l)
);
}
);
width = 239;
},
{
layerId = m005;
shapes = (
{
closed = 1;
nodes = (
(197,-260,l),
(363,240,l),
(90,240,l),
(20,-260,l)
);
}
);
width = 180;
},
{
layerId = "1B8EDE0E-D46F-48F9-B9C6-2CD34FEA95FD";
shapes = (
{
closed = 1;
nodes = (
(187,-230,l),
(313,220,l),
(90,220,l),
(20,-230,l)
);
}
);
width = 333;
}
);
unicode = 44;
},
{
glyphname = colon;
lastChange = "2025-11-21 21:44:27 +0000";
layers = (
{
layerId = m004;
shapes = (
{
closed = 1;
nodes = (
(175,-24,o),
(205,6,o),
(205,55,cs),
(205,103,o),
(175,133,o),
(126,133,cs),
(77,133,o),
(47,103,o),
(47,55,cs),
(47,6,o),
(77,-24,o),
(126,-24,cs)
);
},
{
closed = 1;
nodes = (
(175,616,o),
(205,646,o),
(205,695,cs),
(205,743,o),
(175,773,o),
(126,773,cs),
(77,773,o),
(47,743,o),
(47,695,cs),
(47,646,o),
(77,616,o),
(126,616,cs)
);
}
);
width = 252;
},
{
layerId = m002;
shapes = (
{
closed = 1;
nodes = (
(245,-24,o),
(293,28,o),
(293,108,cs),
(293,184,o),
(245,234,o),
(163,234,cs),
(81,234,o),
(33,184,o),
(33,108,cs),
(33,28,o),
(81,-24,o),
(163,-24,cs)
);
},
{
closed = 1;
nodes = (
(245,568,o),
(293,620,o),
(293,700,cs),
(293,776,o),
(245,826,o),
(163,826,cs),
(81,826,o),
(33,776,o),
(33,700,cs),
(33,620,o),
(81,568,o),
(163,568,cs)
);
}
);
width = 326;
},
{
layerId = m005;
shapes = (
{
closed = 1;
nodes = (
(239,556,o),
(291,614,o),
(291,700,cs),
(291,782,o),
(239,838,o),
(151,838,cs),
(63,838,o),
(11,782,o),
(11,700,cs),
(11,614,o),
(63,556,o),
(151,556,cs)
);
},
{
closed = 1;
nodes = (
(241,-24,o),
(293,34,o),
(293,120,cs),
(293,202,o),
(241,258,o),
(153,258,cs),
(65,258,o),
(13,202,o),
(13,120,cs),
(13,34,o),
(65,-24,o),
(153,-24,cs)
);
}
);
width = 304;
},
{
layerId = "1B8EDE0E-D46F-48F9-B9C6-2CD34FEA95FD";
shapes = (
{
closed = 1;
nodes = (
(211,-24,o),
(249,18,o),
(249,90,cs),
(249,158,o),
(211,198,o),
(137,198,cs),
(63,198,o),
(25,158,o),
(25,90,cs),
(25,18,o),
(63,-24,o),
(137,-24,cs)
);
},
{
closed = 1;
nodes = (
(211,587,o),
(249,629,o),
(249,701,cs),
(249,769,o),
(211,809,o),
(137,809,cs),
(63,809,o),
(25,769,o),
(25,701,cs),
(25,629,o),
(63,587,o),
(137,587,cs)
);
}
);
width = 274;
}
);
metricRight = "=|";
unicode = 58;
},
{
glyphname = semicolon;
lastChange = "2025-11-21 21:44:43 +0000";
layers = (
{
layerId = m004;
shapes = (
{
closed = 1;
nodes = (
(175,613,o),
(205,643,o),
(205,692,cs),
(205,740,o),
(175,770,o),
(126,770,cs),
(77,770,o),
(47,740,o),
(47,692,cs),
(47,643,o),
(77,613,o),
(126,613,cs)
);
},
{
closed = 1;
nodes = (
(107,-210,l),
(203,190,l),
(90,190,l),
(30,-210,l)
);
}
);
width = 235;
},
{
layerId = m002;
shapes = (
{
closed = 1;
nodes = (
(245,566,o),
(293,618,o),
(293,698,cs),
(293,774,o),
(245,824,o),
(163,824,cs),
(81,824,o),
(33,774,o),
(33,698,cs),
(33,618,o),
(81,566,o),
(163,566,cs)
);
},
{
closed = 1;
nodes = (
(177,-260,l),
(303,240,l),
(40,240,l),
(-30,-260,l)
);
}
);
width = 273;
},
{
layerId = m005;
shapes = (
{
closed = 1;
nodes = (
(316,554,o),
(368,612,o),
(368,698,cs),
(368,780,o),
(316,836,o),
(228,836,cs),
(140,836,o),
(88,780,o),
(88,698,cs),
(88,612,o),
(140,554,o),
(228,554,cs)
);
},
{
closed = 1;
nodes = (
(197,-260,l),
(363,240,l),
(90,240,l),
(20,-260,l)
);
}
);
width = 388;
},
{
layerId = "1B8EDE0E-D46F-48F9-B9C6-2CD34FEA95FD";
shapes = (
{
closed = 1;
nodes = (
(211,586,o),
(249,628,o),
(249,700,cs),
(249,768,o),
(211,808,o),
(137,808,cs),
(63,808,o),
(25,768,o),
(25,700,cs),
(25,628,o),
(63,586,o),
(137,586,cs)
);
},
{
closed = 1;
nodes = (
(187,-230,l),
(313,220,l),
(90,220,l),
(20,-230,l)
);
}
);
width = 333;
}
);
metricRight = "=|";
unicode = 59;
},
{
glyphname = exclam;
lastChange = "2025-11-21 20:58:09 +0000";
layers = (
{
layerId = m002;
shapes = (
{
closed = 1;
nodes = (
(324,341,l),
(348,781,l),
(348,1313,l),
(124,1313,l),
(124,781,l),
(148,341,l)
);
},
{
closed = 1;
nodes = (
(326,-13,o),
(352,15,o),
(352,103,cs),
(352,191,o),
(326,217,o),
(236,217,cs),
(146,217,o),
(120,191,o),
(120,103,cs),
(120,15,o),
(146,-13,o),
(236,-13,cs)
);
}
);
width = 472;
},
{
layerId = m004;
shapes = (
{
closed = 1;
nodes = (
(278,288,l),
(292,912,l),
(292,1312,l),
(218,1312,l),
(218,912,l),
(232,288,l)
);
},
{
closed = 1;
nodes = (
(302,-12,o),
(316,0,o),
(316,46,cs),
(316,90,o),
(302,104,o),
(258,104,cs),
(214,104,o),
(200,90,o),
(200,46,cs),
(200,0,o),
(214,-12,o),
(258,-12,cs)
);
}
);
width = 516;
},
{
layerId = m005;
shapes = (
{
closed = 1;
nodes = (
(269,341,l),
(293,781,l),
(293,1313,l),
(69,1313,l),
(69,781,l),
(93,341,l)
);
},
{
closed = 1;
nodes = (
(271,-13,o),
(297,15,o),
(297,103,cs),
(297,191,o),
(271,217,o),
(181,217,cs),
(91,217,o),
(65,191,o),
(65,103,cs),
(65,15,o),
(91,-13,o),
(181,-13,cs)
);
}
);
width = 362;
},
{
layerId = "1B8EDE0E-D46F-48F9-B9C6-2CD34FEA95FD";
shapes = (
{
closed = 1;
nodes = (
(284,327,l),
(304,815,l),
(304,1313,l),
(118,1313,l),
(118,815,l),
(140,327,l)
);
},
{
closed = 1;
nodes = (
(290,-13,o),
(314,11,o),
(314,89,cs),
(314,167,o),
(290,189,o),
(212,189,cs),
(134,189,o),
(110,167,o),
(110,89,cs),
(110,11,o),
(134,-13,o),
(212,-13,cs)
);
}
);
width = 424;
}
);
metricLeft = "=H";
metricRight = "=|";
unicode = 33;
},
{
glyphname = exclamdown;
lastChange = "2025-11-21 20:58:09 +0000";
layers = (
{
layerId = m004;
shapes = (
{
closed = 1;
nodes = (
(238,824,l),
(224,200,l),
(224,-200,l),
(298,-200,l),
(298,200,l),
(284,824,l)
);
},
{
closed = 1;
nodes = (
(214,1124,o),
(200,1112,o),
(200,1066,cs),
(200,1022,o),
(214,1008,o),
(258,1008,cs),
(302,1008,o),
(316,1022,o),
(316,1066,cs),
(316,1112,o),
(302,1124,o),
(258,1124,cs)
);
}
);
width = 516;
},
{
layerId = m002;
shapes = (
{
closed = 1;
nodes = (
(148,772,l),
(124,332,l),
(124,-200,l),
(348,-200,l),
(348,332,l),
(324,772,l)
);
},
{
closed = 1;
nodes = (
(146,1126,o),
(120,1098,o),
(120,1010,cs),
(120,922,o),
(146,896,o),
(236,896,cs),
(326,896,o),
(352,922,o),
(352,1010,cs),
(352,1098,o),
(326,1126,o),
(236,1126,cs)
);
}
);
width = 472;
},
{
layerId = m005;
shapes = (
{
closed = 1;
nodes = (
(93,772,l),
(69,332,l),
(69,-200,l),
(293,-200,l),
(293,332,l),
(269,772,l)
);
},
{
closed = 1;
nodes = (
(91,1126,o),
(65,1098,o),
(65,1010,cs),
(65,922,o),
(91,896,o),
(181,896,cs),
(271,896,o),
(297,922,o),
(297,1010,cs),
(297,1098,o),
(271,1126,o),
(181,1126,cs)
);
}
);
width = 362;
},
{
layerId = "1B8EDE0E-D46F-48F9-B9C6-2CD34FEA95FD";
shapes = (
{
closed = 1;
nodes = (
(140,786,l),
(120,298,l),
(120,-200,l),
(306,-200,l),
(306,298,l),
(284,786,l)
);
},
{
closed = 1;
nodes = (
(134,1126,o),
(110,1102,o),
(110,1024,cs),
(110,948,o),
(134,924,o),
(212,924,cs),
(290,924,o),
(314,948,o),
(314,1024,cs),
(314,1102,o),
(290,1126,o),
(212,1126,cs)
);
}
);
width = 424;
}
);
metricLeft = "=H";
metricRight = "=H";
unicode = 161;
},
{
glyphname = question;
lastChange = "2025-11-21 20:58:09 +0000";
layers = (
{
layerId = m004;
shapes = (
{
closed = 1;
nodes = (
(447,-12,o),
(461,0,o),
(461,46,cs),
(461,90,o),
(447,104,o),
(403,104,cs),
(359,104,o),
(345,90,o),
(345,46,cs),
(345,0,o),
(359,-12,o),
(403,-12,cs)
);
},
{
closed = 1;
nodes = (
(439,288,l),
(439,368,ls),
(439,486,o),
(533,562,o),
(577,600,cs),
(633,648,o),
(773,766,o),
(773,932,cs),
(773,1190,o),
(639,1336,o),
(421,1336,cs),
(197,1336,o),
(49,1190,o),
(49,912,c),
(125,912,l),
(125,1190,o),
(277,1272,o),
(421,1272,cs),
(553,1272,o),
(699,1190,o),
(699,932,cs),
(699,796,o),
(573,690,o),
(523,644,cs),
(475,600,o),
(371,522,o),
(371,406,cs),
(371,288,l)
);
}
);
width = 460;
},
{
layerId = m002;
shapes = (
{
closed = 1;
nodes = (
(457,-12,o),
(483,14,o),
(483,110,cs),
(483,206,o),
(457,232,o),
(361,232,cs),
(265,232,o),
(239,206,o),
(239,110,cs),
(239,14,o),
(265,-12,o),
(361,-12,cs)
);
},
{
closed = 1;
nodes = (
(459,308,l),
(459,368,ls),
(459,448,o),
(621,568,o),
(665,606,cs),
(721,654,o),
(841,722,o),
(841,938,cs),
(841,1236,o),
(647,1336,o),
(429,1336,cs),
(205,1336,o),
(29,1236,o),
(29,912,c),
(235,912,l),
(235,1060,o),
(291,1152,o),
(429,1154,cs),
(561,1156,o),
(619,1060,o),
(619,930,cs),
(619,844,o),
(525,750,o),
(481,710,cs),
(433,666,o),
(251,538,o),
(251,406,cs),
(251,308,l)
);
}
);
width = 464;
},
{
layerId = m005;
shapes = (
{
closed = 1;
nodes = (
(447,-12,o),
(473,14,o),
(473,110,cs),
(473,206,o),
(447,232,o),
(351,232,cs),
(255,232,o),
(229,206,o),
(229,110,cs),
(229,14,o),
(255,-12,o),
(351,-12,cs)
);
},
{
closed = 1;
nodes = (
(449,308,l),
(449,368,ls),
(449,448,o),
(611,568,o),
(655,606,cs),
(711,654,o),
(831,722,o),
(831,938,cs),
(831,1236,o),
(637,1336,o),
(419,1336,cs),
(195,1336,o),
(19,1236,o),
(19,912,c),
(225,912,l),
(225,1060,o),
(281,1152,o),
(419,1154,cs),
(551,1156,o),
(609,1060,o),
(609,930,cs),
(609,844,o),
(515,750,o),
(471,710,cs),
(423,666,o),
(241,538,o),
(241,406,cs),
(241,308,l)
);
}
);
width = 444;
},
{
layerId = "1B8EDE0E-D46F-48F9-B9C6-2CD34FEA95FD";
shapes = (
{
closed = 1;
nodes = (
(439,-12,o),
(463,10,o),
(463,94,cs),
(463,178,o),
(439,200,o),
(357,200,cs),
(273,200,o),
(251,178,o),
(251,94,cs),
(251,10,o),
(273,-12,o),
(357,-12,cs)
);
},
{
closed = 1;
nodes = (
(439,304,l),
(439,368,ls),
(439,458,o),
(585,566,o),
(629,604,cs),
(685,652,o),
(809,734,o),
(809,936,cs),
(809,1224,o),
(631,1336,o),
(413,1336,cs),
(189,1336,o),
(19,1224,o),
(19,912,c),
(193,912,l),
(193,1092,o),
(273,1182,o),
(413,1184,cs),
(541,1184,o),
(625,1092,o),
(625,930,cs),
(625,832,o),
(523,736,o),
(477,694,cs),
(429,650,o),
(267,534,o),
(267,406,cs),
(267,304,l)
);
}
);
width = 433;
}
);
unicode = 63;
},
{
glyphname = questiondown;
lastChange = "2025-11-21 20:58:09 +0000";
layers = (
{
layerId = m004;
shapes = (
{
closed = 1;
nodes = (
(375,1136,o),
(361,1124,o),
(361,1078,cs),
(361,1034,o),
(375,1020,o),
(419,1020,cs),
(463,1020,o),
(477,1034,o),
(477,1078,cs),
(477,1124,o),
(463,1136,o),
(419,1136,cs)
);
},
{
closed = 1;
nodes = (
(383,836,l),
(383,756,ls),
(383,638,o),
(289,562,o),
(245,524,cs),
(189,476,o),
(49,358,o),
(49,192,cs),
(49,-66,o),
(183,-212,o),
(401,-212,cs),
(625,-212,o),
(773,-66,o),
(773,212,c),
(697,212,l),
(697,-66,o),
(545,-148,o),
(401,-148,cs),
(269,-148,o),
(123,-66,o),
(123,192,cs),
(123,328,o),
(249,434,o),
(299,480,cs),
(347,524,o),
(451,602,o),
(451,718,cs),
(451,836,l)
);
}
);
width = 460;
},
{
layerId = m002;
shapes = (
{
closed = 1;
nodes = (
(413,1137,o),
(387,1111,o),
(387,1015,cs),
(387,919,o),
(413,893,o),
(509,893,cs),
(605,893,o),
(631,919,o),
(631,1015,cs),
(631,1111,o),
(605,1137,o),
(509,1137,cs)
);
},
{
closed = 1;
nodes = (
(415,817,l),
(415,757,ls),
(415,677,o),
(243,557,o),
(205,519,cs),
(153,467,o),
(29,361,o),
(29,187,cs),
(29,-111,o),
(223,-211,o),
(441,-211,cs),
(665,-211,o),
(841,-111,o),
(841,213,c),
(635,213,l),
(635,45,o),
(559,-27,o),
(441,-29,cs),
(309,-31,o),
(251,45,o),
(251,195,cs),
(251,281,o),
(345,375,o),
(389,415,cs),
(437,459,o),
(619,587,o),
(619,719,cs),
(619,817,l)
);
}
);
width = 464;
},
{
layerId = m005;
shapes = (
{
closed = 1;
nodes = (
(403,1137,o),
(377,1111,o),
(377,1015,cs),
(377,919,o),
(403,893,o),
(499,893,cs),
(595,893,o),
(621,919,o),
(621,1015,cs),
(621,1111,o),
(595,1137,o),
(499,1137,cs)
);
},
{
closed = 1;
nodes = (
(405,817,l),
(405,757,ls),
(405,677,o),
(233,557,o),
(195,519,cs),
(143,467,o),
(19,361,o),
(19,187,cs),
(19,-111,o),
(213,-211,o),
(431,-211,cs),
(655,-211,o),
(831,-111,o),
(831,213,c),
(625,213,l),
(625,45,o),
(549,-27,o),
(431,-29,cs),
(299,-31,o),
(241,45,o),
(241,195,cs),
(241,281,o),
(335,375,o),
(379,415,cs),
(427,459,o),
(609,587,o),
(609,719,cs),
(609,817,l)
);
}
);
width = 444;
},
{
layerId = "1B8EDE0E-D46F-48F9-B9C6-2CD34FEA95FD";
shapes = (
{
closed = 1;
nodes = (
(389,1137,o),
(365,1115,o),
(365,1031,cs),
(365,947,o),
(389,925,o),
(471,925,cs),
(555,925,o),
(577,947,o),
(577,1031,cs),
(577,1115,o),
(555,1137,o),
(471,1137,cs)
);
},
{
closed = 1;
nodes = (
(391,821,l),
(391,757,ls),
(391,667,o),
(239,557,o),
(201,521,cs),
(147,469,o),
(19,359,o),
(19,189,cs),
(19,-99,o),
(199,-211,o),
(417,-211,cs),
(641,-211,o),
(809,-99,o),
(809,213,c),
(635,213,l),
(635,17,o),
(541,-57,o),
(417,-59,cs),
(283,-61,o),
(205,17,o),
(205,193,cs),
(205,293,o),
(305,389,o),
(351,431,cs),
(399,475,o),
(563,591,o),
(563,719,cs),
(563,821,l)
);
}
);
width = 433;
}
);
unicode = 191;
},
{
glyphname = periodcentered;
lastChange = "2025-11-21 20:58:09 +0000";
layers = (
{
layerId = m004;
shapes = (
{
closed = 1;
nodes = (
(162,299,o),
(176,311,o),
(176,357,cs),
(176,401,o),
(162,415,o),
(118,415,cs),
(74,415,o),
(60,401,o),
(60,357,cs),
(60,311,o),
(74,299,o),
(118,299,cs)
);
}
);
width = 236;
},
{
layerId = m002;
shapes = (
{
closed = 1;
nodes = (
(265,275,o),
(293,307,o),
(293,407,cs),
(293,503,o),
(265,533,o),
(163,533,cs),
(61,533,o),
(33,503,o),
(33,407,cs),
(33,307,o),
(61,275,o),
(163,275,cs)
);
}
);
width = 326;
},
{
layerId = m005;
shapes = (
{
closed = 1;
nodes = (
(255,275,o),
(283,307,o),
(283,407,cs),
(283,503,o),
(255,533,o),
(153,533,cs),
(51,533,o),
(23,503,o),
(23,407,cs),
(23,307,o),
(51,275,o),
(153,275,cs)
);
}
);
width = 306;
},
{
layerId = "1B8EDE0E-D46F-48F9-B9C6-2CD34FEA95FD";
shapes = (
{
closed = 1;
nodes = (
(205,281,o),
(249,327,o),
(249,395,cs),
(249,457,o),
(205,503,o),
(137,503,cs),
(69,503,o),
(25,457,o),
(25,395,cs),
(25,327,o),
(69,281,o),
(137,281,cs)
);
}
);
width = 274;
}
);
metricRight = "=|";
unicode = 183;
},
{
glyphname = bullet;
lastChange = "2025-11-21 20:58:09 +0000";
layers = (
{
layerId = m004;
shapes = (
{
closed = 1;
nodes = (
(266,268,o),
(300,304,o),
(300,380,cs),
(300,450,o),
(266,486,o),
(190,486,cs),
(112,486,o),
(80,450,o),
(80,380,cs),
(80,304,o),
(112,268,o),
(190,268,cs)
);
}
);
width = 380;
},
{
layerId = m002;
shapes = (
{
closed = 1;
nodes = (
(478,201,o),
(550,281,o),
(550,449,cs),
(550,611,o),
(478,687,o),
(306,687,cs),
(132,687,o),
(60,611,o),
(60,449,cs),
(60,281,o),
(132,201,o),
(306,201,cs)
);
}
);
width = 610;
},
{
layerId = m005;
shapes = (
{
closed = 1;
nodes = (
(468,201,o),
(540,281,o),
(540,449,cs),
(540,611,o),
(468,687,o),
(296,687,cs),
(122,687,o),
(50,611,o),
(50,449,cs),
(50,281,o),
(122,201,o),
(296,201,cs)
);
}
);
width = 590;
},
{
layerId = "1B8EDE0E-D46F-48F9-B9C6-2CD34FEA95FD";
shapes = (
{
closed = 1;
nodes = (
(390,218,o),
(472,306,o),
(472,432,cs),
(472,558,o),
(390,646,o),
(262,646,cs),
(132,646,o),
(50,558,o),
(50,432,cs),
(50,306,o),
(132,218,o),
(262,218,cs)
);
}
);
width = 522;
}
);
metricRight = "=|";
unicode = 8226;
},
{
glyphname = asterisk;
lastChange = "2025-11-21 20:58:09 +0000";
layers = (
{
layerId = m002;
shapes = (
{
closed = 1;
nodes = (
(393,931,l),
(255,931,l),
(275,713,l),
(73,799,l),
(29,665,l),
(245,619,l),
(99,451,l),
(213,371,l),
(325,559,l),
(437,369,l),
(551,451,l),
(405,617,l),
(619,665,l),
(577,799,l),
(375,711,l)
);
}
);
width = 648;
},
{
layerId = m004;
shapes = (
{
closed = 1;
nodes = (
(391,913,l),
(301,913,l),
(323,669,l),
(95,767,l),
(69,683,l),
(307,627,l),
(145,441,l),
(215,387,l),
(343,599,l),
(469,387,l),
(541,439,l),
(381,623,l),
(621,679,l),
(595,763,l),
(369,667,l)
);
}
);
width = 690;
},
{
layerId = m005;
shapes = (
{
closed = 1;
nodes = (
(383,931,l),
(245,931,l),
(265,713,l),
(63,799,l),
(19,665,l),
(235,619,l),
(89,451,l),
(203,371,l),
(315,559,l),
(427,369,l),
(541,451,l),
(395,617,l),
(609,665,l),
(567,799,l),
(365,711,l)
);
}
);
width = 628;
},
{
layerId = "1B8EDE0E-D46F-48F9-B9C6-2CD34FEA95FD";
shapes = (
{
closed = 1;
nodes = (
(378,927,l),
(252,927,l),
(272,703,l),
(64,791,l),
(24,669,l),
(246,621,l),
(96,449,l),
(198,375,l),
(314,569,l),
(430,373,l),
(534,449,l),
(384,619,l),
(604,669,l),
(566,791,l),
(358,701,l)
);
}
);
width = 628;
}
);
metricRight = "=|";
unicode = 42;
},
{
glyphname = numbersign;
lastChange = "2025-11-21 21:00:36 +0000";
layers = (
{
layerId = m004;
shapes = (
{
closed = 1;
nodes = (
(120,0,l),
(190,0,l),
(426,1300,l),
(356,1300,l)
);
},
{
closed = 1;
nodes = (
(600,0,l),
(670,0,l),
(906,1300,l),
(836,1300,l)
);
},
{
closed = 1;
nodes = (
(100,866,l),
(998,866,l),
(998,934,l),
(100,934,l)
);
},
{
closed = 1;
nodes = (
(40,406,l),
(938,406,l),
(938,472,l),
(40,472,l)
);
}
);
width = 1038;
},
{
layerId = m002;
shapes = (
{
closed = 1;
nodes = (
(120,0,l),
(304,0,l),
(540,1300,l),
(356,1300,l)
);
},
{
closed = 1;
nodes = (
(600,0,l),
(784,0,l),
(1020,1300,l),
(836,1300,l)
);
},
{
closed = 1;
nodes = (
(100,824,l),
(1098,824,l),
(1098,976,l),
(100,976,l)
);
},
{
closed = 1;
nodes = (
(40,364,l),
(1038,364,l),
(1038,516,l),
(40,516,l)
);
}
);
width = 1138;
},
{
layerId = m005;
shapes = (
{
closed = 1;
nodes = (
(120,0,l),
(304,0,l),
(540,1300,l),
(356,1300,l)
);
},
{
closed = 1;
nodes = (
(600,0,l),
(784,0,l),
(1020,1300,l),
(836,1300,l)
);
},
{
closed = 1;
nodes = (
(100,824,l),
(1098,824,l),
(1098,976,l),
(100,976,l)
);
},
{
closed = 1;
nodes = (
(40,364,l),
(1038,364,l),
(1038,516,l),
(40,516,l)
);
}
);
width = 1138;
},
{
layerId = "1B8EDE0E-D46F-48F9-B9C6-2CD34FEA95FD";
shapes = (
{
closed = 1;
nodes = (
(120,0,l),
(276,0,l),
(512,1300,l),
(356,1300,l)
);
},
{
closed = 1;
nodes = (
(600,0,l),
(756,0,l),
(992,1300,l),
(836,1300,l)
);
},
{
closed = 1;
nodes = (
(100,834,l),
(1074,834,l),
(1074,966,l),
(100,966,l)
);
},
{
closed = 1;
nodes = (
(40,374,l),
(1014,374,l),
(1014,504,l),
(40,504,l)
);
}
);
width = 1114;
}
);
metricLeft = "=40";
metricRight = "=|";
unicode = 35;
},
{
glyphname = slash;
lastChange = "2025-11-21 20:58:09 +0000";
layers = (
{
layerId = m004;
shapes = (
{
closed = 1;
nodes = (
(50,2,l),
(116,2,l),
(632,1398,l),
(566,1398,l)
);
}
);
width = 682;
},
{
layerId = m002;
shapes = (
{
closed = 1;
nodes = (
(30,-28,l),
(194,-28,l),
(710,1388,l),
(546,1388,l)
);
}
);
width = 740;
},
{
layerId = m005;
shapes = (
{
closed = 1;
nodes = (
(20,-28,l),
(184,-28,l),
(700,1388,l),
(536,1388,l)
);
}
);
width = 720;
},
{
layerId = "1B8EDE0E-D46F-48F9-B9C6-2CD34FEA95FD";
shapes = (
{
closed = 1;
nodes = (
(20,-20,l),
(160,-20,l),
(676,1390,l),
(536,1390,l)
);
}
);
width = 696;
}
);
metricRight = "=|";
unicode = 47;
},
{
glyphname = backslash;
lastChange = "2025-11-21 20:58:09 +0000";
layers = (
{
layerId = m004;
shapes = (
{
closed = 1;
nodes = (
(50,1398,l),
(566,2,l),
(632,2,l),
(116,1398,l)
);
}
);
width = 682;
},
{
layerId = m002;
shapes = (
{
closed = 1;
nodes = (
(30,1388,l),
(546,-28,l),
(710,-28,l),
(194,1388,l)
);
}
);
width = 740;
},
{
layerId = m005;
shapes = (
{
closed = 1;
nodes = (
(20,1388,l),
(536,-28,l),
(700,-28,l),
(184,1388,l)
);
}
);
width = 720;
},
{
layerId = "1B8EDE0E-D46F-48F9-B9C6-2CD34FEA95FD";
shapes = (
{
closed = 1;
nodes = (
(20,1390,l),
(536,-20,l),
(676,-20,l),
(160,1390,l)
);
}
);
width = 696;
}
);
metricRight = "=|";
unicode = 92;
},
{
glyphname = hyphen;
lastChange = "2025-11-23 10:37:26 +0000";
layers = (
{
layerId = m002;
shapes = (
{
closed = 1;
nodes = (
(44,243,l),
(666,243,l),
(666,415,l),
(44,415,l)
);
}
);
width = 710;
},
{
layerId = m004;
shapes = (
{
closed = 1;
nodes = (
(50,410,l),
(672,410,l),
(672,482,l),
(50,482,l)
);
}
);
width = 722;
},
{
layerId = m005;
shapes = (
{
closed = 1;
nodes = (
(34,243,l),
(656,243,l),
(656,415,l),
(34,415,l)
);
}
);
width = 690;
},
{
layerId = "1B8EDE0E-D46F-48F9-B9C6-2CD34FEA95FD";
shapes = (
{
closed = 1;
nodes = (
(31,382,l),
(653,382,l),
(653,526,l),
(31,526,l)
);
}
);
width = 684;
}
);
metricRight = "=|";
unicode = 45;
},
{
glyphname = endash;
lastChange = "2025-11-21 20:58:09 +0000";
layers = (
{
layerId = m004;
shapes = (
{
closed = 1;
nodes = (
(50,272,l),
(772,272,l),
(772,332,l),
(50,332,l)
);
}
);
width = 822;
},
{
layerId = m002;
shapes = (
{
closed = 1;
nodes = (
(44,243,l),
(938,243,l),
(938,415,l),
(44,415,l)
);
}
);
width = 982;
},
{
layerId = m005;
shapes = (
{
closed = 1;
nodes = (
(34,243,l),
(928,243,l),
(928,415,l),
(34,415,l)
);
}
);
width = 962;
},
{
layerId = "1B8EDE0E-D46F-48F9-B9C6-2CD34FEA95FD";
shapes = (
{
closed = 1;
nodes = (
(31,250,l),
(881,250,l),
(881,394,l),
(31,394,l)
);
}
);
width = 912;
}
);
metricRight = "=|";
unicode = 8211;
},
{
glyphname = emdash;
lastChange = "2025-11-21 20:58:09 +0000";
layers = (
{
layerId = m004;
shapes = (
{
closed = 1;
nodes = (
(50,272,l),
(1370,272,l),
(1370,332,l),
(50,332,l)
);
}
);
width = 1420;
},
{
layerId = m002;
shapes = (
{
closed = 1;
nodes = (
(44,243,l),
(1474,243,l),
(1474,415,l),
(44,415,l)
);
}
);
width = 1518;
},
{
layerId = m005;
shapes = (
{
closed = 1;
nodes = (
(34,243,l),
(1464,243,l),
(1464,415,l),
(34,415,l)
);
}
);
width = 1498;
},
{
layerId = "1B8EDE0E-D46F-48F9-B9C6-2CD34FEA95FD";
shapes = (
{
closed = 1;
nodes = (
(31,250,l),
(1433,250,l),
(1433,394,l),
(31,394,l)
);
}
);
width = 1464;
}
);
metricRight = "=|";
unicode = 8212;
},
{
glyphname = underscore;
lastChange = "2025-11-21 20:58:09 +0000";
layers = (
{
layerId = m004;
shapes = (
{
closed = 1;
nodes = (
(50,-200,l),
(772,-200,l),
(772,-140,l),
(50,-140,l)
);
}
);
width = 822;
},
{
layerId = m002;
shapes = (
{
closed = 1;
nodes = (
(8,-200,l),
(902,-200,l),
(902,-28,l),
(8,-28,l)
);
}
);
width = 910;
},
{
layerId = m005;
shapes = (
{
closed = 1;
nodes = (
(-2,-200,l),
(892,-200,l),
(892,-28,l),
(-2,-28,l)
);
}
);
width = 890;
},
{
layerId = "1B8EDE0E-D46F-48F9-B9C6-2CD34FEA95FD";
shapes = (
{
closed = 1;
nodes = (
(4,-200,l),
(854,-200,l),
(854,-56,l),
(4,-56,l)
);
}
);
width = 858;
}
);
metricRight = "=|";
unicode = 95;
},
{
glyphname = parenleft;
lastChange = "2025-11-24 21:29:14 +0000";
layers = (
{
layerId = m002;
shapes = (
{
closed = 1;
nodes = (
(120,314,o),
(298,20,o),
(422,-178,c),
(600,-64,l),
(480,120,o),
(332,350,o),
(332,728,cs),
(332,1106,o),
(480,1336,o),
(600,1520,c),
(422,1634,l),
(298,1436,o),
(120,1142,o),
(120,728,cs)
);
}
);
width = 419;
},
{
layerId = m004;
shapes = (
{
closed = 1;
nodes = (
(200,314,o),
(378,20,o),
(502,-178,c),
(554,-134,l),
(438,34,o),
(272,350,o),
(272,728,cs),
(272,1106,o),
(438,1422,o),
(554,1590,c),
(502,1634,l),
(378,1436,o),
(200,1142,o),
(200,728,cs)
);
}
);
width = 463;
},
{
layerId = m005;
shapes = (
{
closed = 1;
nodes = (
(70,314,o),
(248,20,o),
(372,-178,c),
(550,-64,l),
(430,120,o),
(282,350,o),
(282,728,cs),
(282,1106,o),
(430,1336,o),
(550,1520,c),
(372,1634,l),
(248,1436,o),
(70,1142,o),
(70,728,cs)
);
}
);
width = 620;
},
{
layerId = "1B8EDE0E-D46F-48F9-B9C6-2CD34FEA95FD";
shapes = (
{
closed = 1;
nodes = (
(200,314,o),
(378,20,o),
(502,-178,c),
(650,-82,l),
(532,96,o),
(378,350,o),
(378,728,cs),
(378,1106,o),
(532,1360,o),
(650,1538,c),
(502,1634,l),
(378,1436,o),
(200,1142,o),
(200,728,cs)
);
}
);
width = 770;
}
);
unicode = 40;
},
{
glyphname = parenright;
lastChange = "2025-11-24 21:29:08 +0000";
layers = (
{
layerId = m002;
shapes = (
{
closed = 1;
nodes = (
(558,1142,o),
(380,1436,o),
(256,1634,c),
(78,1520,l),
(198,1336,o),
(346,1106,o),
(346,728,cs),
(346,350,o),
(198,120,o),
(78,-64,c),
(256,-178,l),
(380,20,o),
(558,314,o),
(558,728,cs)
);
}
);
width = 678;
},
{
layerId = m004;
shapes = (
{
closed = 1;
nodes = (
(452,1142,o),
(274,1436,o),
(150,1634,c),
(98,1590,l),
(214,1422,o),
(380,1106,o),
(380,728,cs),
(380,350,o),
(214,34,o),
(98,-134,c),
(150,-178,l),
(274,20,o),
(452,314,o),
(452,728,cs)
);
}
);
width = 652;
},
{
layerId = m005;
shapes = (
{
closed = 1;
nodes = (
(550,1142,o),
(372,1436,o),
(248,1634,c),
(70,1520,l),
(190,1336,o),
(338,1106,o),
(338,728,cs),
(338,350,o),
(190,120,o),
(70,-64,c),
(248,-178,l),
(372,20,o),
(550,314,o),
(550,728,cs)
);
}
);
width = 620;
},
{
layerId = "1B8EDE0E-D46F-48F9-B9C6-2CD34FEA95FD";
shapes = (
{
closed = 1;
nodes = (
(568,1142,o),
(390,1436,o),
(266,1634,c),
(120,1538,l),
(238,1360,o),
(392,1106,o),
(392,728,cs),
(392,350,o),
(238,96,o),
(120,-82,c),
(266,-178,l),
(390,20,o),
(568,314,o),
(568,728,cs)
);
}
);
width = 768;
}
);
unicode = 41;
},
{
glyphname = braceleft;
lastChange = "2025-11-21 20:58:09 +0000";
layers = (
{
layerId = m004;
shapes = (
{
closed = 1;
nodes = (
(488,-138,l),
(488,-78,l),
(458,-78,ls),
(398,-78,o),
(360,-66,o),
(360,48,cs),
(360,548,ls),
(360,674,o),
(308,714,o),
(194,714,cs),
(164,714,l),
(164,654,l),
(194,654,ls),
(254,654,o),
(292,642,o),
(292,528,cs),
(292,28,ls),
(292,-98,o),
(344,-138,o),
(458,-138,cs)
);
},
{
closed = 1;
nodes = (
(344,1560,o),
(292,1520,o),
(292,1394,cs),
(292,840,ls),
(292,726,o),
(254,714,o),
(194,714,cs),
(164,714,l),
(164,654,l),
(194,654,ls),
(306,654,o),
(360,694,o),
(360,820,cs),
(360,1374,ls),
(360,1488,o),
(398,1500,o),
(458,1500,cs),
(488,1500,l),
(488,1560,l),
(458,1560,ls)
);
}
);
width = 660;
},
{
layerId = m002;
shapes = (
{
closed = 1;
nodes = (
(706,-148,l),
(706,28,l),
(560,28,ls),
(494,28,o),
(474,58,o),
(474,110,cs),
(474,540,ls),
(474,714,o),
(316,764,o),
(236,764,cs),
(30,764,l),
(30,616,l),
(176,616,ls),
(242,616,o),
(262,572,o),
(262,520,cs),
(262,90,ls),
(262,-84,o),
(354,-148,o),
(500,-148,cs)
);
},
{
closed = 1;
nodes = (
(354,1550,o),
(262,1486,o),
(262,1312,cs),
(262,880,ls),
(262,828,o),
(242,784,o),
(176,784,cs),
(30,784,l),
(30,636,l),
(236,636,ls),
(316,636,o),
(474,686,o),
(474,860,cs),
(474,1292,ls),
(474,1344,o),
(494,1374,o),
(560,1374,cs),
(706,1374,l),
(706,1550,l),
(500,1550,ls)
);
}
);
width = 408;
},
{
layerId = m005;
shapes = (
{
closed = 1;
nodes = (
(696,-148,l),
(696,28,l),
(550,28,ls),
(484,28,o),
(464,58,o),
(464,110,cs),
(464,540,ls),
(464,714,o),
(306,764,o),
(226,764,cs),
(20,764,l),
(20,616,l),
(166,616,ls),
(232,616,o),
(252,572,o),
(252,520,cs),
(252,90,ls),
(252,-84,o),
(344,-148,o),
(490,-148,cs)
);
},
{
closed = 1;
nodes = (
(344,1550,o),
(252,1486,o),
(252,1312,cs),
(252,880,ls),
(252,828,o),
(232,784,o),
(166,784,cs),
(20,784,l),
(20,636,l),
(226,636,ls),
(306,636,o),
(464,686,o),
(464,860,cs),
(464,1292,ls),
(464,1344,o),
(484,1374,o),
(550,1374,cs),
(696,1374,l),
(696,1550,l),
(490,1550,ls)
);
}
);
width = 388;
},
{
layerId = "1B8EDE0E-D46F-48F9-B9C6-2CD34FEA95FD";
shapes = (
{
closed = 1;
nodes = (
(636,-145,l),
(636,1,l),
(520,1,ls),
(456,1,o),
(432,27,o),
(432,93,cs),
(432,541,ls),
(432,703,o),
(300,751,o),
(212,751,cs),
(48,751,l),
(48,625,l),
(166,625,ls),
(230,625,o),
(256,589,o),
(256,521,cs),
(256,73,ls),
(256,-89,o),
(338,-145,o),
(476,-145,cs)
);
},
{
closed = 1;
nodes = (
(338,1553,o),
(256,1495,o),
(256,1333,cs),
(256,869,ls),
(256,801,o),
(230,767,o),
(166,767,cs),
(48,767,l),
(48,639,l),
(212,639,ls),
(300,639,o),
(432,687,o),
(432,849,cs),
(432,1313,ls),
(432,1379,o),
(456,1405,o),
(520,1405,cs),
(636,1405,l),
(636,1553,l),
(476,1553,ls)
);
}
);
width = 441;
}
);
unicode = 123;
},
{
glyphname = braceright;
lastChange = "2025-11-21 20:58:09 +0000";
layers = (
{
layerId = m004;
shapes = (
{
closed = 1;
nodes = (
(308,-148,o),
(360,-108,o),
(360,18,cs),
(360,538,ls),
(360,652,o),
(398,664,o),
(458,664,cs),
(488,664,l),
(488,724,l),
(458,724,ls),
(344,724,o),
(292,684,o),
(292,558,cs),
(292,38,ls),
(292,-76,o),
(254,-88,o),
(194,-88,cs),
(164,-88,l),
(164,-148,l),
(194,-148,ls)
);
},
{
closed = 1;
nodes = (
(164,1570,l),
(164,1510,l),
(194,1510,ls),
(254,1510,o),
(292,1498,o),
(292,1384,cs),
(292,830,ls),
(292,704,o),
(346,664,o),
(458,664,cs),
(488,664,l),
(488,724,l),
(458,724,ls),
(398,724,o),
(360,736,o),
(360,850,cs),
(360,1404,ls),
(360,1530,o),
(308,1570,o),
(194,1570,cs)
);
}
);
width = 660;
},
{
layerId = m002;
shapes = (
{
closed = 1;
nodes = (
(392,-148,o),
(484,-84,o),
(484,90,cs),
(484,520,ls),
(484,572,o),
(504,616,o),
(570,616,cs),
(716,616,l),
(716,764,l),
(510,764,ls),
(430,764,o),
(272,714,o),
(272,540,cs),
(272,110,ls),
(272,58,o),
(252,28,o),
(186,28,cs),
(40,28,l),
(40,-148,l),
(246,-148,ls)
);
},
{
closed = 1;
nodes = (
(40,1550,l),
(40,1374,l),
(186,1374,ls),
(252,1374,o),
(272,1344,o),
(272,1292,cs),
(272,860,ls),
(272,686,o),
(430,636,o),
(510,636,cs),
(716,636,l),
(716,784,l),
(570,784,ls),
(504,784,o),
(484,828,o),
(484,880,cs),
(484,1312,ls),
(484,1486,o),
(392,1550,o),
(246,1550,cs)
);
}
);
width = 408;
},
{
layerId = m005;
shapes = (
{
closed = 1;
nodes = (
(382,-148,o),
(474,-84,o),
(474,90,cs),
(474,520,ls),
(474,572,o),
(494,616,o),
(560,616,cs),
(706,616,l),
(706,764,l),
(500,764,ls),
(420,764,o),
(262,714,o),
(262,540,cs),
(262,110,ls),
(262,58,o),
(242,28,o),
(176,28,cs),
(30,28,l),
(30,-148,l),
(236,-148,ls)
);
},
{
closed = 1;
nodes = (
(30,1550,l),
(30,1374,l),
(176,1374,ls),
(242,1374,o),
(262,1344,o),
(262,1292,cs),
(262,860,ls),
(262,686,o),
(420,636,o),
(500,636,cs),
(706,636,l),
(706,784,l),
(560,784,ls),
(494,784,o),
(474,828,o),
(474,880,cs),
(474,1312,ls),
(474,1486,o),
(382,1550,o),
(236,1550,cs)
);
}
);
width = 388;
},
{
layerId = "1B8EDE0E-D46F-48F9-B9C6-2CD34FEA95FD";
shapes = (
{
closed = 1;
nodes = (
(356,-148,o),
(438,-90,o),
(438,72,cs),
(438,524,ls),
(438,592,o),
(462,628,o),
(528,628,cs),
(644,628,l),
(644,754,l),
(482,754,ls),
(394,754,o),
(262,706,o),
(262,544,cs),
(262,92,ls),
(262,24,o),
(238,0,o),
(174,0,cs),
(56,0,l),
(56,-148,l),
(218,-148,ls)
);
},
{
closed = 1;
nodes = (
(56,1556,l),
(56,1408,l),
(174,1408,ls),
(238,1408,o),
(262,1382,o),
(262,1316,cs),
(262,852,ls),
(262,690,o),
(394,642,o),
(482,642,cs),
(644,642,l),
(644,770,l),
(528,770,ls),
(462,770,o),
(438,804,o),
(438,872,cs),
(438,1336,ls),
(438,1498,o),
(356,1556,o),
(218,1556,cs)
);
}
);
width = 441;
}
);
unicode = 125;
},
{
glyphname = bracketleft;
lastChange = "2025-11-21 20:58:09 +0000";
layers = (
{
layerId = m002;
shapes = (
{
closed = 1;
nodes = (
(544,-148,l),
(544,28,l),
(418,28,ls),
(352,28,o),
(332,58,o),
(332,110,cs),
(332,1292,ls),
(332,1344,o),
(352,1374,o),
(418,1374,cs),
(544,1374,l),
(544,1550,l),
(358,1550,ls),
(212,1550,o),
(120,1486,o),
(120,1312,cs),
(120,90,ls),
(120,-84,o),
(212,-148,o),
(358,-148,cs)
);
}
);
width = 352;
},
{
background = {
shapes = (
{
closed = 1;
nodes = (
(268,-148,l),
(268,-60,l),
(205,-60,ls),
(172,-60,o),
(162,-45,o),
(162,-19,cs),
(162,572,ls),
(162,598,o),
(172,613,o),
(205,613,cs),
(268,613,l),
(268,701,l),
(175,701,ls),
(102,701,o),
(56,669,o),
(56,582,cs),
(56,-29,ls),
(56,-116,o),
(102,-148,o),
(175,-148,cs)
);
}
);
};
layerId = m004;
shapes = (
{
closed = 1;
nodes = (
(396,-148,l),
(396,-88,l),
(366,-88,ls),
(306,-88,o),
(268,-76,o),
(268,38,cs),
(268,1364,ls),
(268,1478,o),
(306,1490,o),
(366,1490,cs),
(396,1490,l),
(396,1550,l),
(366,1550,ls),
(252,1550,o),
(200,1510,o),
(200,1384,cs),
(200,18,ls),
(200,-108,o),
(252,-148,o),
(366,-148,cs)
);
}
);
width = 338;
},
{
layerId = m005;
shapes = (
{
closed = 1;
nodes = (
(489,-148,l),
(489,28,l),
(363,28,ls),
(297,28,o),
(277,58,o),
(277,110,cs),
(277,1292,ls),
(277,1344,o),
(297,1374,o),
(363,1374,cs),
(489,1374,l),
(489,1550,l),
(303,1550,ls),
(157,1550,o),
(65,1486,o),
(65,1312,cs),
(65,90,ls),
(65,-84,o),
(157,-148,o),
(303,-148,cs)
);
}
);
width = 287;
},
{
layerId = "1B8EDE0E-D46F-48F9-B9C6-2CD34FEA95FD";
shapes = (
{
closed = 1;
nodes = (
(478,-148,l),
(478,0,l),
(376,0,ls),
(312,0,o),
(286,24,o),
(286,92,cs),
(286,1310,ls),
(286,1378,o),
(312,1402,o),
(376,1402,cs),
(478,1402,l),
(478,1550,l),
(330,1550,ls),
(192,1550,o),
(110,1492,o),
(110,1330,cs),
(110,72,ls),
(110,-90,o),
(192,-148,o),
(330,-148,cs)
);
}
);
width = 304;
}
);
metricLeft = "=H";
unicode = 91;
},
{
glyphname = bracketright;
lastChange = "2025-11-21 20:58:09 +0000";
layers = (
{
layerId = m002;
shapes = (
{
closed = 1;
nodes = (
(352,-148,o),
(444,-84,o),
(444,90,cs),
(444,1312,ls),
(444,1486,o),
(352,1550,o),
(206,1550,cs),
(20,1550,l),
(20,1374,l),
(146,1374,ls),
(212,1374,o),
(232,1344,o),
(232,1292,cs),
(232,110,ls),
(232,58,o),
(212,28,o),
(146,28,cs),
(20,28,l),
(20,-148,l),
(206,-148,ls)
);
}
);
width = 564;
},
{
layerId = m004;
shapes = (
{
closed = 1;
nodes = (
(184,-148,o),
(236,-108,o),
(236,18,cs),
(236,1384,ls),
(236,1510,o),
(184,1550,o),
(70,1550,cs),
(40,1550,l),
(40,1490,l),
(70,1490,ls),
(130,1490,o),
(168,1478,o),
(168,1364,cs),
(168,38,ls),
(168,-76,o),
(130,-88,o),
(70,-88,cs),
(40,-88,l),
(40,-148,l),
(70,-148,ls)
);
}
);
width = 436;
},
{
layerId = m005;
shapes = (
{
closed = 1;
nodes = (
(342,-148,o),
(434,-84,o),
(434,90,cs),
(434,1312,ls),
(434,1486,o),
(342,1550,o),
(196,1550,cs),
(10,1550,l),
(10,1374,l),
(136,1374,ls),
(202,1374,o),
(222,1344,o),
(222,1292,cs),
(222,110,ls),
(222,58,o),
(202,28,o),
(136,28,cs),
(10,28,l),
(10,-148,l),
(196,-148,ls)
);
}
);
width = 499;
},
{
layerId = "1B8EDE0E-D46F-48F9-B9C6-2CD34FEA95FD";
shapes = (
{
closed = 1;
nodes = (
(296,-148,o),
(378,-90,o),
(378,72,cs),
(378,1330,ls),
(378,1492,o),
(296,1550,o),
(158,1550,cs),
(10,1550,l),
(10,1402,l),
(112,1402,ls),
(176,1402,o),
(200,1378,o),
(200,1310,cs),
(200,92,ls),
(200,24,o),
(176,0,o),
(112,0,cs),
(10,0,l),
(10,-148,l),
(158,-148,ls)
);
}
);
width = 488;
}
);
metricRight = "=H";
unicode = 93;
},
{
glyphname = quotesinglbase;
lastChange = "2025-11-21 20:58:09 +0000";
layers = (
{
layerId = m004;
shapes = (
{
closed = 1;
nodes = (
(156,-30,o),
(176,-4,o),
(176,72,cs),
(176,130,o),
(162,144,o),
(118,144,cs),
(74,144,o),
(60,130,o),
(60,86,cs),
(60,34,o),
(82,30,o),
(104,30,cs),
(112,30,o),
(118,32,o),
(124,34,c),
(124,14,o),
(118,-20,o),
(100,-48,c),
(144,-48,l)
);
}
);
width = 178;
},
{
layerId = m002;
shapes = (
{
closed = 1;
nodes = (
(249,-25,o),
(301,55,o),
(301,193,cs),
(301,331,o),
(271,361,o),
(167,361,cs),
(63,361,o),
(33,331,o),
(33,227,cs),
(33,103,o),
(83,93,o),
(135,93,cs),
(149,93,o),
(167,97,o),
(183,103,c),
(173,35,o),
(139,-5,o),
(99,-47,c),
(159,-117,l)
);
}
);
width = 207;
},
{
layerId = m005;
shapes = (
{
closed = 1;
nodes = (
(239,-25,o),
(291,55,o),
(291,193,cs),
(291,331,o),
(261,361,o),
(157,361,cs),
(53,361,o),
(23,331,o),
(23,227,cs),
(23,103,o),
(73,93,o),
(125,93,cs),
(139,93,o),
(157,97,o),
(173,103,c),
(163,35,o),
(129,-5,o),
(89,-47,c),
(149,-117,l)
);
}
);
width = 187;
},
{
layerId = "1B8EDE0E-D46F-48F9-B9C6-2CD34FEA95FD";
shapes = (
{
closed = 1;
nodes = (
(213,-24,o),
(255,40,o),
(255,162,cs),
(255,280,o),
(229,308,o),
(139,308,cs),
(51,308,o),
(25,280,o),
(25,192,cs),
(25,86,o),
(67,78,o),
(111,78,cs),
(125,78,o),
(143,82,o),
(153,86,c),
(145,28,o),
(119,-8,o),
(83,-48,c),
(141,-100,l)
);
}
);
width = 170;
}
);
unicode = 8218;
},
{
glyphname = quoteleft;
lastChange = "2025-11-23 10:37:53 +0000";
layers = (
{
layerId = m004;
shapes = (
{
closed = 1;
nodes = (
(152,576,o),
(170,590,o),
(170,636,cs),
(170,688,o),
(148,692,o),
(124,692,cs),
(118,692,o),
(104,692,o),
(94,686,c),
(94,704,o),
(104,738,o),
(122,760,c),
(88,784,l),
(68,754,o),
(50,704,o),
(50,650,cs),
(50,590,o),
(68,576,o),
(110,576,cs)
);
}
);
width = 160;
},
{
layerId = m002;
shapes = (
{
closed = 1;
nodes = (
(268,472,o),
(298,502,o),
(298,606,cs),
(298,730,o),
(248,740,o),
(196,740,cs),
(182,740,o),
(164,736,o),
(148,730,c),
(158,798,o),
(192,838,o),
(232,880,c),
(172,950,l),
(82,858,o),
(30,778,o),
(30,640,cs),
(30,502,o),
(60,472,o),
(164,472,cs)
);
}
);
width = 189;
},
{
layerId = m005;
shapes = (
{
closed = 1;
nodes = (
(258,472,o),
(288,502,o),
(288,606,cs),
(288,730,o),
(238,740,o),
(186,740,cs),
(172,740,o),
(154,736,o),
(138,730,c),
(148,798,o),
(182,838,o),
(222,880,c),
(162,950,l),
(72,858,o),
(20,778,o),
(20,640,cs),
(20,502,o),
(50,472,o),
(154,472,cs)
);
}
);
width = 169;
},
{
layerId = "1B8EDE0E-D46F-48F9-B9C6-2CD34FEA95FD";
shapes = (
{
closed = 1;
nodes = (
(230,1300,l),
(20,1300,l),
(164,970,l),
(306,970,l)
);
}
);
width = 326;
}
);
unicode = 8216;
},
{
glyphname = quoteright;
lastChange = "2025-11-23 10:38:08 +0000";
layers = (
{
layerId = m004;
shapes = (
{
closed = 1;
nodes = (
(152,606,o),
(170,656,o),
(170,710,cs),
(170,770,o),
(152,784,o),
(110,784,cs),
(68,784,o),
(50,770,o),
(50,724,cs),
(50,672,o),
(72,668,o),
(96,668,cs),
(102,668,o),
(116,668,o),
(126,674,c),
(126,656,o),
(116,622,o),
(98,600,c),
(132,576,l)
);
}
);
width = 160;
},
{
layerId = m002;
shapes = (
{
closed = 1;
nodes = (
(246,565,o),
(298,645,o),
(298,783,cs),
(298,921,o),
(268,951,o),
(164,951,cs),
(60,951,o),
(30,921,o),
(30,817,cs),
(30,693,o),
(80,683,o),
(132,683,cs),
(146,683,o),
(164,687,o),
(180,693,c),
(170,625,o),
(136,585,o),
(96,543,c),
(156,473,l)
);
}
);
width = 184;
},
{
layerId = m005;
shapes = (
{
closed = 1;
nodes = (
(236,565,o),
(288,645,o),
(288,783,cs),
(288,921,o),
(258,951,o),
(154,951,cs),
(50,951,o),
(20,921,o),
(20,817,cs),
(20,693,o),
(70,683,o),
(122,683,cs),
(136,683,o),
(154,687,o),
(170,693,c),
(160,625,o),
(126,585,o),
(86,543,c),
(146,473,l)
);
}
);
width = 164;
},
{
layerId = "1B8EDE0E-D46F-48F9-B9C6-2CD34FEA95FD";
shapes = (
{
closed = 1;
nodes = (
(162,970,l),
(306,1300,l),
(96,1300,l),
(20,970,l)
);
}
);
width = 326;
}
);
unicode = 8217;
},
{
glyphname = guillemetleft;
lastChange = "2025-11-21 20:58:09 +0000";
layers = (
{
layerId = m004;
shapes = (
{
closed = 1;
nodes = (
(236,671,l),
(70,375,l),
(236,77,l),
(320,77,l),
(160,371,l),
(318,671,l)
);
},
{
closed = 1;
nodes = (
(444,671,l),
(278,375,l),
(444,77,l),
(528,77,l),
(368,371,l),
(526,671,l)
);
}
);
width = 369;
},
{
layerId = m002;
shapes = (
{
closed = 1;
nodes = (
(216,671,l),
(50,375,l),
(216,77,l),
(390,77,l),
(230,371,l),
(388,671,l)
);
},
{
closed = 1;
nodes = (
(556,671,l),
(390,375,l),
(556,77,l),
(730,77,l),
(570,371,l),
(728,671,l)
);
}
);
width = 440;
},
{
layerId = m005;
shapes = (
{
closed = 1;
nodes = (
(206,671,l),
(40,375,l),
(206,77,l),
(380,77,l),
(220,371,l),
(378,671,l)
);
},
{
closed = 1;
nodes = (
(546,671,l),
(380,375,l),
(546,77,l),
(720,77,l),
(560,371,l),
(718,671,l)
);
}
);
width = 420;
},
{
layerId = "1B8EDE0E-D46F-48F9-B9C6-2CD34FEA95FD";
shapes = (
{
closed = 1;
nodes = (
(206,671,l),
(40,375,l),
(206,77,l),
(358,77,l),
(198,371,l),
(356,671,l)
);
},
{
closed = 1;
nodes = (
(512,671,l),
(346,375,l),
(512,77,l),
(664,77,l),
(504,371,l),
(662,671,l)
);
}
);
width = 392;
}
);
unicode = 171;
},
{
glyphname = guillemetright;
lastChange = "2025-11-21 20:58:09 +0000";
layers = (
{
layerId = m004;
shapes = (
{
closed = 1;
nodes = (
(438,371,l),
(278,77,l),
(362,77,l),
(528,375,l),
(362,671,l),
(280,671,l)
);
},
{
closed = 1;
nodes = (
(230,371,l),
(70,77,l),
(154,77,l),
(320,375,l),
(154,671,l),
(72,671,l)
);
}
);
width = 369;
},
{
layerId = m002;
shapes = (
{
closed = 1;
nodes = (
(550,371,l),
(390,77,l),
(564,77,l),
(730,375,l),
(564,671,l),
(392,671,l)
);
},
{
closed = 1;
nodes = (
(210,371,l),
(50,77,l),
(224,77,l),
(390,375,l),
(224,671,l),
(52,671,l)
);
}
);
width = 440;
},
{
layerId = m005;
shapes = (
{
closed = 1;
nodes = (
(540,371,l),
(380,77,l),
(554,77,l),
(720,375,l),
(554,671,l),
(382,671,l)
);
},
{
closed = 1;
nodes = (
(200,371,l),
(40,77,l),
(214,77,l),
(380,375,l),
(214,671,l),
(42,671,l)
);
}
);
width = 420;
},
{
layerId = "1B8EDE0E-D46F-48F9-B9C6-2CD34FEA95FD";
shapes = (
{
closed = 1;
nodes = (
(506,371,l),
(346,77,l),
(498,77,l),
(664,375,l),
(498,671,l),
(348,671,l)
);
},
{
closed = 1;
nodes = (
(200,371,l),
(40,77,l),
(192,77,l),
(358,375,l),
(192,671,l),
(42,671,l)
);
}
);
width = 392;
}
);
unicode = 187;
},
{
glyphname = guilsinglleft;
lastChange = "2025-11-21 20:58:09 +0000";
layers = (
{
layerId = m004;
shapes = (
{
closed = 1;
nodes = (
(236,671,l),
(70,375,l),
(236,77,l),
(320,77,l),
(160,371,l),
(318,671,l)
);
}
);
width = 265;
},
{
layerId = m002;
shapes = (
{
closed = 1;
nodes = (
(216,671,l),
(50,375,l),
(216,77,l),
(390,77,l),
(230,371,l),
(388,671,l)
);
}
);
width = 270;
},
{
layerId = m005;
shapes = (
{
closed = 1;
nodes = (
(206,671,l),
(40,375,l),
(206,77,l),
(380,77,l),
(220,371,l),
(378,671,l)
);
}
);
width = 250;
},
{
layerId = "1B8EDE0E-D46F-48F9-B9C6-2CD34FEA95FD";
shapes = (
{
closed = 1;
nodes = (
(206,671,l),
(40,375,l),
(206,77,l),
(358,77,l),
(198,371,l),
(356,671,l)
);
}
);
width = 239;
}
);
unicode = 8249;
},
{
glyphname = guilsinglright;
lastChange = "2025-11-21 20:58:09 +0000";
layers = (
{
layerId = m004;
shapes = (
{
closed = 1;
nodes = (
(230,371,l),
(70,77,l),
(154,77,l),
(320,375,l),
(154,671,l),
(72,671,l)
);
}
);
width = 265;
},
{
layerId = m002;
shapes = (
{
closed = 1;
nodes = (
(210,371,l),
(50,77,l),
(224,77,l),
(390,375,l),
(224,671,l),
(52,671,l)
);
}
);
width = 270;
},
{
layerId = m005;
shapes = (
{
closed = 1;
nodes = (
(200,371,l),
(40,77,l),
(214,77,l),
(380,375,l),
(214,671,l),
(42,671,l)
);
}
);
width = 250;
},
{
layerId = "1B8EDE0E-D46F-48F9-B9C6-2CD34FEA95FD";
shapes = (
{
closed = 1;
nodes = (
(200,371,l),
(40,77,l),
(192,77,l),
(358,375,l),
(192,671,l),
(42,671,l)
);
}
);
width = 239;
}
);
unicode = 8250;
},
{
glyphname = quotedbl;
lastChange = "2025-11-21 20:58:09 +0000";
layers = (
{
layerId = m004;
shapes = (
{
closed = 1;
nodes = (
(182,520,l),
(206,840,l),
(102,840,l),
(126,520,l)
);
},
{
closed = 1;
nodes = (
(410,520,l),
(434,840,l),
(330,840,l),
(354,520,l)
);
}
);
width = 536;
},
{
layerId = m002;
shapes = (
{
closed = 1;
nodes = (
(262,460,l),
(286,900,l),
(82,900,l),
(106,460,l)
);
},
{
closed = 1;
nodes = (
(550,460,l),
(574,900,l),
(370,900,l),
(394,460,l)
);
}
);
width = 656;
},
{
layerId = m005;
shapes = (
{
closed = 1;
nodes = (
(252,460,l),
(276,900,l),
(72,900,l),
(96,460,l)
);
},
{
closed = 1;
nodes = (
(540,460,l),
(564,900,l),
(360,900,l),
(384,460,l)
);
}
);
width = 636;
},
{
layerId = "1B8EDE0E-D46F-48F9-B9C6-2CD34FEA95FD";
shapes = (
{
closed = 1;
nodes = (
(228,475,l),
(252,885,l),
(72,885,l),
(96,475,l)
);
},
{
closed = 1;
nodes = (
(500,475,l),
(524,885,l),
(346,885,l),
(370,475,l)
);
}
);
width = 596;
}
);
metricRight = "=|";
unicode = 34;
},
{
glyphname = quotesingle;
lastChange = "2025-11-21 21:37:28 +0000";
layers = (
{
layerId = m004;
shapes = (
{
closed = 1;
nodes = (
(161,970,l),
(182,1300,l),
(82,1300,l),
(103,970,l)
);
}
);
width = 264;
},
{
layerId = m002;
shapes = (
{
closed = 1;
nodes = (
(238,940,l),
(282,1300,l),
(72,1300,l),
(116,940,l)
);
}
);
width = 354;
},
{
layerId = m005;
shapes = (
{
closed = 1;
nodes = (
(318,850,l),
(352,1300,l),
(72,1300,l),
(106,850,l)
);
}
);
width = 424;
},
{
layerId = "1B8EDE0E-D46F-48F9-B9C6-2CD34FEA95FD";
shapes = (
{
closed = 1;
nodes = (
(228,970,l),
(262,1300,l),
(72,1300,l),
(106,970,l)
);
}
);
width = 334;
}
);
metricRight = "=|";
unicode = 39;
},
